<?xml version="1.0" encoding="utf-8"?>
<!-- Generator: Adobe Illustrator 15.0.2, SVG Export Plug-In . SVG Version: 6.00 Build 0)  -->
<!DOCTYPE svg PUBLIC "-//W3C//DTD SVG 1.1//EN" "http://www.w3.org/Graphics/SVG/1.1/DTD/svg11.dtd">
<svg version="1.1" id="Capa_1" xmlns="http://www.w3.org/2000/svg" xmlns:xlink="http://www.w3.org/1999/xlink" x="0px" y="0px"
	 width="62.355px" height="72px" viewBox="0 0 62.355 72" enable-background="new 0 0 62.355 72" xml:space="preserve">
<path fill="#4777BB" d="M56.217,14.457C50.842,11.354,31.177,0,31.177,0S11.513,11.354,6.138,14.457C0.762,17.561,0,21.064,0,24.777
	s0,9.8,0,13.387c0,6.75,0.253,9.424,2.097,13.332c1.841,3.908,4.444,6.281,11.355,10.271C20.364,65.758,31.177,72,31.177,72
	s10.813-6.242,17.725-10.233c6.911-3.989,9.514-6.362,11.356-10.271s2.096-6.582,2.096-13.332c0-3.587,0.001-9.674,0.001-13.387
	S61.594,17.561,56.217,14.457z"/>
<path fill="#FFFFFF" d="M55.675,32.267c0,2.672-1.565,6.377-4.727,8.196c-3.161,1.818-7.569,4.37-7.569,4.37l-12.202,7.094
	L30.5,51.536c0,0-7.593-4.406-10.155-5.884c-2.56-1.478-3.087-3.541-3.087-5.668c0-2.128,0-3.18,0-3.18l7.1,4.174l6.754,3.922
	l12.268-7.063c0,0,1.026-0.594,3.184-1.837c2.154-1.245,3.969-1.978,3.969-4.593c0-1.604-1.896-1.888-3.037-1.319L31.111,39.49
	c0,0-10.79-6.224-13.952-8.046c-3.165-1.826-4.498-0.494-4.498,3.205v7.149c0,4.88,1.25,5.589,5.004,7.755
	c3.752,2.166,13.512,7.677,13.512,7.677s18.365-10.631,20.408-11.807c2.044-1.177,4.084-3.435,4.084-3.435s0.092,8.068-3.032,9.916
	c-3.127,1.848-21.508,12.441-21.508,12.441s-10.112-5.851-16.282-9.413C8.678,51.37,6.583,49.455,6.583,39.07
	c0-4.167,0-3.72,0-7.416c0-2.397,1.655-5.31,4.42-6.579c3.515-1.614,7.656,0.154,7.656,0.154l12.47,7.264l12.458-7.264
	c3.297-1.916,6.88-1.073,8.62-0.281c1.687,0.766,3.468,2.877,3.468,5.096V32.267z"/>
<ellipse fill="#FFFFFF" cx="31.179" cy="15.989" rx="9.071" ry="5.148"/>
</svg>
