<?xml version="1.0" encoding="utf-8"?>
<!-- Generator: Adobe Illustrator 15.0.2, SVG Export Plug-In . SVG Version: 6.00 Build 0)  -->
<!DOCTYPE svg PUBLIC "-//W3C//DTD SVG 1.1//EN" "http://www.w3.org/Graphics/SVG/1.1/DTD/svg11.dtd">
<svg version="1.1" id="Capa_1" xmlns="http://www.w3.org/2000/svg" xmlns:xlink="http://www.w3.org/1999/xlink" x="0px" y="0px"
	 width="600px" height="340px" viewBox="-120 20 600 340" enable-background="new -120 20 600 340" xml:space="preserve">
<g id="Capa_1_1_">
	<g>
		<path fill="#9AB4DA" d="M54.539,152.493c-11.583,0-20.999-9.426-20.999-21.01c0-10.786,8.168-19.685,18.639-20.864
			c3.394-10.526,13.225-17.774,24.393-17.774c14.134,0,25.639,11.506,25.639,25.651c0,1.156-0.102,2.313-0.258,3.448
			c0.853-0.147,1.708-0.236,2.584-0.236c8.483,0,15.381,6.899,15.381,15.393c0,8.482-6.898,15.393-15.381,15.393L54.539,152.493
			 M38.854,131.482c0,8.651,7.034,15.686,15.685,15.686h49.999c5.55,0,10.068-4.517,10.068-10.067
			c0-5.561-4.519-10.066-10.068-10.066c-1.449,0-2.843,0.304-4.146,0.899c-1.034,2.605-2.483,5.055-4.326,7.224l-4.045-3.461
			c3.146-3.673,4.876-8.358,4.876-13.201c0-11.213-9.122-20.324-20.325-20.324c-8.313,0-15.697,5.066-18.785,12.594
			c2.202,0.37,4.438,1.124,6.786,2.27l9.258,4.674l-2.415,4.74l-9.19-4.641c-2.753-1.347-5.27-2-7.686-2
			C45.888,115.809,38.854,122.843,38.854,131.482"/>
		<path fill="#9AB4DA" d="M162.577,94.31c-1.06,0-2.094,0.108-3.124,0.286c0.19-1.373,0.312-2.771,0.312-4.17
			c0-17.104-13.912-31.018-31.003-31.018c-13.505,0-25.393,8.764-29.495,21.494c-8.025,0.903-14.927,5.561-18.909,12.169
			c0.575,0.039,1.156,0.161,1.737,0.395c1.549,0.625,3.143,1.05,4.733,1.5c3.454-4.71,9.012-7.788,15.292-7.788
			c2.921,0,5.964,0.788,9.292,2.418l11.114,5.612l2.92-5.733l-11.195-5.653c-2.839-1.385-5.542-2.296-8.205-2.745
			c3.735-9.102,12.664-15.229,22.715-15.229c13.546,0,24.577,11.018,24.577,24.577c0,5.855-2.092,11.521-5.896,15.961l4.891,4.185
			c2.228-2.622,3.98-5.584,5.231-8.735c1.575-0.72,3.26-1.087,5.013-1.087c6.71,0,12.174,5.447,12.174,12.172
			c0,6.711-5.462,12.173-12.174,12.173H108.97c2.823,1.326,5.332,3.578,7.163,6.439h46.443c10.258,0,18.598-8.356,18.598-18.612
			C181.175,102.651,172.834,94.31,162.577,94.31z"/>
		
			<line fill="none" stroke="#9AB4DA" stroke-width="4.6142" stroke-linecap="round" stroke-dasharray="11.0741,11.997" x1="61.155" y1="150.593" x2="12.92" y2="237.758"/>
		
			<line fill="none" stroke="#9AB4DA" stroke-width="4.6142" stroke-linecap="round" stroke-dasharray="14.2036,15.3872" x1="77.863" y1="154.533" x2="15.997" y2="266.33"/>
		
			<line fill="none" stroke="#9AB4DA" stroke-width="4.6142" stroke-linecap="round" stroke-dasharray="11.0741,11.997" x1="101.063" y1="154.533" x2="52.828" y2="241.698"/>
		
			<line fill="none" stroke="#9AB4DA" stroke-width="4.6142" stroke-linecap="round" stroke-dasharray="14.2036,15.3872" x1="135.141" y1="130.611" x2="73.275" y2="242.408"/>
		
			<line fill="none" stroke="#9AB4DA" stroke-width="4.6142" stroke-linecap="round" stroke-dasharray="11.0741,11.997" x1="158.341" y1="130.611" x2="110.104" y2="217.776"/>
	</g>
	<g>
		<path fill="#9AB4DA" d="M223.349,132.018c-17.965,0-32.57-14.62-32.57-32.588c0-16.728,12.67-30.53,28.911-32.361
			c5.263-16.328,20.511-27.57,37.833-27.57c21.923,0,39.769,17.846,39.769,39.787c0,1.794-0.157,3.589-0.401,5.349
			c1.324-0.228,2.649-0.367,4.008-0.367c13.158,0,23.857,10.701,23.857,23.875c0,13.157-10.698,23.875-23.857,23.875
			L223.349,132.018 M199.021,99.429c0,13.42,10.909,24.328,24.327,24.328h77.549c8.608,0,15.615-7.005,15.615-15.615
			c0-8.626-7.007-15.613-15.615-15.613c-2.247,0-4.408,0.471-6.43,1.394c-1.604,4.042-3.852,7.841-6.709,11.205l-6.273-5.368
			c4.88-5.697,7.563-12.964,7.563-20.475c0-17.393-14.149-31.525-31.525-31.525c-12.894,0-24.346,7.858-29.137,19.535
			c3.414,0.575,6.882,1.744,10.524,3.521l14.358,7.25l-3.745,7.353l-14.256-7.198c-4.27-2.089-8.173-3.101-11.921-3.101
			C209.929,75.12,199.021,86.029,199.021,99.429"/>
		
			<line fill="none" stroke="#9AB4DA" stroke-width="4.6142" stroke-linecap="round" stroke-dasharray="14.9768,16.2249" x1="235.724" y1="128.077" x2="170.489" y2="245.961"/>
		
			<line fill="none" stroke="#9AB4DA" stroke-width="4.6142" stroke-linecap="round" stroke-dasharray="19.2091,20.8099" x1="258.319" y1="133.406" x2="174.65" y2="284.602"/>
		
			<line fill="none" stroke="#9AB4DA" stroke-width="4.6142" stroke-linecap="round" stroke-dasharray="14.9768,16.2249" x1="289.694" y1="133.406" x2="224.46" y2="251.289"/>
	</g>
</g>
<g id="Capa_2" display="none">
	<g display="inline">
		<g>
			<path fill="#4777BB" d="M241.033,258.413c-6.469,0-11.711,5.242-11.711,11.713c0,6.467,5.242,11.711,11.711,11.711
				s11.711-5.244,11.711-11.711C252.744,263.655,247.501,258.413,241.033,258.413z M241.033,280.239
				c-5.578,0-10.115-4.534-10.115-10.113c0-5.577,4.537-10.112,10.115-10.112c5.576,0,10.115,4.536,10.115,10.112
				C251.148,275.705,246.609,280.239,241.033,280.239z"/>
			<path fill="#4777BB" d="M279.564,275.566c0.226-1.621,0.349-3.271,0.369-4.947l-5.654-1.161c-0.02-0.868-0.07-1.729-0.152-2.578
				l5.463-1.927c-0.223-1.648-0.547-3.266-0.969-4.844l-5.76,0.408c-0.254-0.841-0.541-1.668-0.859-2.479l4.74-3.326
				c-0.655-1.517-1.405-2.979-2.242-4.381l-5.436,1.946c-0.477-0.75-0.985-1.476-1.521-2.18l3.663-4.481
				c-1.034-1.269-2.146-2.474-3.331-3.601l-4.711,3.344c-0.666-0.596-1.356-1.166-2.074-1.705l2.321-5.307
				c-1.331-0.936-2.723-1.793-4.169-2.559l-3.636,4.488c-0.81-0.394-1.637-0.758-2.48-1.088l0.805-5.729
				c-1.525-0.535-3.095-0.979-4.703-1.321l-2.287,5.309c-0.887-0.159-1.787-0.283-2.695-0.37l-0.771-5.729
				c-0.81-0.049-1.621-0.078-2.44-0.078c-0.82,0-1.634,0.028-2.441,0.078l-0.771,5.729c-0.912,0.087-1.811,0.211-2.696,0.37
				l-2.287-5.309c-1.608,0.342-3.175,0.786-4.702,1.321l0.801,5.729c-0.842,0.33-1.67,0.695-2.479,1.088l-3.635-4.488
				c-1.447,0.766-2.84,1.624-4.17,2.559l2.318,5.307c-0.714,0.539-1.404,1.109-2.072,1.705l-4.711-3.344
				c-1.187,1.127-2.295,2.332-3.33,3.603l3.664,4.481c-0.534,0.703-1.045,1.428-1.521,2.178l-5.436-1.946
				c-0.834,1.401-1.586,2.864-2.24,4.381l4.738,3.326c-0.316,0.812-0.604,1.64-0.859,2.479l-5.758-0.408
				c-0.424,1.578-0.748,3.195-0.969,4.844l5.463,1.927c-0.082,0.849-0.135,1.71-0.152,2.578l-5.652,1.161
				c0.019,1.675,0.141,3.326,0.366,4.947l5.778,0.38c0.146,0.838,0.324,1.668,0.533,2.491l-5.135,2.642
				c0.469,1.604,1.036,3.167,1.698,4.676l5.668-1.188c0.363,0.754,0.754,1.492,1.171,2.216l-4.229,3.933
				c0.883,1.415,1.855,2.776,2.908,4.064l5.137-2.682c0.543,0.618,1.109,1.217,1.695,1.795l-3.015,4.935
				c1.231,1.126,2.533,2.181,3.897,3.146l4.224-3.959c0.685,0.444,1.381,0.867,2.099,1.26l-1.578,5.569
				c1.485,0.761,3.025,1.419,4.61,1.987l2.994-4.951c0.771,0.242,1.556,0.457,2.349,0.646l-0.017,5.783
				c1.625,0.328,3.289,0.557,4.981,0.678l1.548-5.584c0.401,0.02,0.807,0.027,1.213,0.027c0.405,0,0.812-0.008,1.213-0.027
				l1.548,5.584c1.692-0.122,3.354-0.35,4.98-0.678l-0.018-5.783c0.797-0.19,1.576-0.405,2.35-0.646l2.992,4.951
				c1.588-0.568,3.127-1.227,4.611-1.987l-1.574-5.569c0.715-0.393,1.412-0.815,2.096-1.26l4.223,3.959
				c1.368-0.965,2.67-2.02,3.898-3.146l-3.014-4.935c0.586-0.578,1.152-1.177,1.695-1.795l5.136,2.682
				c1.054-1.289,2.026-2.65,2.907-4.064l-4.229-3.933c0.418-0.724,0.809-1.462,1.172-2.216l5.668,1.188
				c0.66-1.51,1.229-3.071,1.697-4.676l-5.134-2.642c0.207-0.822,0.388-1.652,0.534-2.491L279.564,275.566z M241.033,281.837
				c-6.469,0-11.711-5.244-11.711-11.711c0-6.471,5.242-11.713,11.711-11.713s11.711,5.242,11.711,11.713
				C252.744,276.593,247.501,281.837,241.033,281.837z"/>
		</g>
		<g>
			<path fill="#4777BB" d="M517.439,142.886v-4.237l-4.466-1.246c-0.202-1.173-0.513-2.314-0.916-3.405l3.232-3.315l-2.127-3.665
				l-4.492,1.172c-0.688-0.823-1.448-1.587-2.266-2.285l1.194-4.482l-3.646-2.153l-3.336,3.209c-1.13-0.424-2.311-0.747-3.53-0.957
				l-1.245-4.469h-4.23l-1.246,4.469c-1.128,0.196-2.224,0.483-3.275,0.863l-3.293-3.255l-3.676,2.102l1.138,4.492
				c-0.831,0.689-1.597,1.446-2.304,2.257l-4.469-1.231l-2.181,3.633l3.189,3.362c-0.453,1.17-0.793,2.394-1.014,3.657l-4.47,1.248
				v4.235l4.47,1.244c0.202,1.173,0.51,2.315,0.913,3.41l-3.231,3.314l2.13,3.662l4.486-1.168c0.693,0.821,1.454,1.583,2.27,2.281
				l-1.198,4.484l3.648,2.152l3.34-3.213c1.131,0.426,2.308,0.748,3.525,0.961l1.246,4.462h4.235l1.24-4.462
				c1.129-0.199,2.223-0.485,3.278-0.868l3.29,3.258l3.679-2.103l-1.136-4.495c0.83-0.688,1.595-1.444,2.297-2.257l4.479,1.232
				l2.175-3.631l-3.188-3.364c0.454-1.17,0.793-2.391,1.015-3.658L517.439,142.886z M493.728,156.068
				c-8.45,0-15.302-6.851-15.302-15.302c0-8.451,6.852-15.304,15.302-15.304c8.447,0,15.3,6.853,15.3,15.304
				C509.027,149.217,502.175,156.068,493.728,156.068z"/>
			<path fill="#4777BB" d="M493.728,125.462c-8.45,0-15.302,6.853-15.302,15.304c0,8.451,6.852,15.302,15.302,15.302
				c8.447,0,15.3-6.851,15.3-15.302C509.027,132.315,502.175,125.462,493.728,125.462z M493.728,155.311
				c-8.021,0-14.546-6.523-14.546-14.544c0-8.017,6.524-14.544,14.546-14.544c8.019,0,14.544,6.527,14.544,14.544
				C508.271,148.788,501.746,155.311,493.728,155.311z"/>
			<path fill="#4777BB" d="M493.728,127.479c-7.326,0-13.287,5.962-13.287,13.288c0,7.327,5.961,13.285,13.287,13.285
				c7.323,0,13.287-5.958,13.287-13.285C507.015,133.441,501.051,127.479,493.728,127.479z M493.728,153.853
				c-7.228,0-13.088-5.86-13.088-13.086s5.86-13.087,13.088-13.087c7.229,0,13.089,5.861,13.089,13.087
				S500.957,153.853,493.728,153.853z"/>
			<path fill="#4777BB" d="M493.728,127.68c-7.228,0-13.088,5.861-13.088,13.087s5.86,13.086,13.088,13.086
				c7.229,0,13.089-5.86,13.089-13.086S500.957,127.68,493.728,127.68z"/>
		</g>
		<g>
			<path fill="#4777BB" d="M340.623,272.923v-4.235l-4.465-1.246c-0.203-1.174-0.514-2.313-0.915-3.404l3.231-3.316l-2.128-3.664
				l-4.491,1.172c-0.688-0.823-1.447-1.588-2.267-2.285l1.195-4.481l-3.646-2.153l-3.336,3.209c-1.131-0.424-2.31-0.746-3.529-0.957
				l-1.245-4.47h-4.232l-1.246,4.47c-1.127,0.194-2.223,0.483-3.274,0.863l-3.293-3.255l-3.677,2.101l1.139,4.492
				c-0.83,0.69-1.598,1.446-2.303,2.258l-4.471-1.23l-2.18,3.633l3.189,3.363c-0.453,1.169-0.793,2.393-1.015,3.656l-4.468,1.248
				v4.233l4.468,1.245c0.204,1.173,0.51,2.314,0.915,3.41l-3.232,3.313l2.131,3.666l4.484-1.17c0.694,0.822,1.454,1.584,2.271,2.28
				l-1.198,4.485l3.646,2.152l3.341-3.214c1.132,0.425,2.307,0.748,3.524,0.962l1.246,4.461h4.236l1.241-4.461
				c1.128-0.199,2.223-0.486,3.277-0.867l3.29,3.256l3.679-2.103l-1.137-4.495c0.83-0.688,1.595-1.443,2.297-2.257l4.479,1.231
				l2.175-3.631l-3.189-3.362c0.454-1.169,0.795-2.392,1.016-3.658L340.623,272.923z M316.912,286.105
				c-8.45,0-15.301-6.851-15.301-15.303c0-8.449,6.851-15.303,15.301-15.303c8.447,0,15.299,6.854,15.299,15.303
				C332.21,279.255,325.359,286.105,316.912,286.105z"/>
			<path fill="#4777BB" d="M316.912,255.5c-8.45,0-15.301,6.854-15.301,15.303c0,8.452,6.851,15.303,15.301,15.303
				c8.447,0,15.299-6.851,15.299-15.303C332.21,262.354,325.359,255.5,316.912,255.5z M316.912,285.35
				c-8.021,0-14.545-6.523-14.545-14.546c0-8.016,6.523-14.543,14.545-14.543c8.018,0,14.543,6.527,14.543,14.543
				C331.455,278.826,324.929,285.35,316.912,285.35z"/>
			<path fill="#4777BB" d="M316.912,257.52c-7.326,0-13.287,5.961-13.287,13.285c0,7.327,5.961,13.284,13.287,13.284
				c7.324,0,13.287-5.957,13.287-13.284C330.199,263.479,324.236,257.52,316.912,257.52z M316.912,283.891
				c-7.229,0-13.087-5.859-13.087-13.086c0-7.226,5.858-13.088,13.087-13.088s13.089,5.862,13.089,13.088
				C330,278.031,324.14,283.891,316.912,283.891z"/>
			<path fill="#4777BB" d="M316.912,257.717c-7.229,0-13.087,5.862-13.087,13.088c0,7.227,5.858,13.086,13.087,13.086
				s13.089-5.859,13.089-13.086C330,263.579,324.14,257.717,316.912,257.717z"/>
		</g>
		<g>
			<path fill="#4777BB" d="M457.854,96.393c-2.259,0-4.089,1.83-4.089,4.089c0,2.257,1.83,4.089,4.089,4.089
				c2.257,0,4.091-1.832,4.091-4.089C461.944,98.223,460.11,96.393,457.854,96.393z M457.854,104.012
				c-1.947,0-3.533-1.583-3.533-3.531c0-1.947,1.586-3.532,3.533-3.532c1.948,0,3.53,1.585,3.53,3.532
				C461.384,102.429,459.802,104.012,457.854,104.012z"/>
			<path fill="#4777BB" d="M471.302,102.379c0.078-0.563,0.122-1.141,0.131-1.727l-1.973-0.404c-0.009-0.304-0.027-0.605-0.057-0.9
				l1.911-0.672c-0.081-0.576-0.196-1.14-0.34-1.692l-2.014,0.144c-0.087-0.294-0.186-0.583-0.297-0.867l1.654-1.161
				c-0.229-0.526-0.494-1.038-0.783-1.529l-1.9,0.682c-0.165-0.263-0.341-0.517-0.528-0.763l1.278-1.563
				c-0.358-0.443-0.75-0.863-1.161-1.258l-1.646,1.168c-0.234-0.209-0.474-0.408-0.724-0.597l0.808-1.852
				c-0.463-0.327-0.947-0.625-1.454-0.892l-1.269,1.566c-0.282-0.138-0.572-0.264-0.865-0.381l0.279-2
				c-0.533-0.188-1.08-0.342-1.64-0.461l-0.801,1.853c-0.31-0.055-0.626-0.097-0.941-0.129l-0.268-1.998
				c-0.282-0.018-0.565-0.027-0.854-0.027c-0.287,0-0.57,0.009-0.853,0.027l-0.271,1.998c-0.314,0.032-0.631,0.075-0.94,0.129
				l-0.795-1.853c-0.564,0.12-1.111,0.273-1.646,0.461l0.281,2c-0.295,0.117-0.584,0.243-0.867,0.381l-1.269-1.566
				c-0.502,0.267-0.991,0.565-1.454,0.892l0.808,1.852c-0.25,0.189-0.486,0.388-0.724,0.597l-1.643-1.168
				c-0.414,0.395-0.806,0.815-1.164,1.258l1.278,1.563c-0.188,0.247-0.362,0.5-0.528,0.763l-1.9-0.682
				c-0.289,0.492-0.549,1.003-0.78,1.529l1.656,1.161c-0.113,0.285-0.213,0.573-0.302,0.867l-2.011-0.144
				c-0.146,0.552-0.26,1.116-0.338,1.692l1.906,0.672c-0.029,0.295-0.048,0.597-0.055,0.9l-1.973,0.404
				c0.007,0.585,0.053,1.163,0.129,1.727l2.016,0.134c0.052,0.292,0.113,0.582,0.188,0.869l-1.792,0.922
				c0.161,0.56,0.359,1.105,0.592,1.633l1.979-0.416c0.126,0.263,0.265,0.522,0.409,0.774l-1.479,1.371
				c0.31,0.496,0.646,0.97,1.018,1.418l1.793-0.933c0.188,0.215,0.386,0.425,0.593,0.626l-1.056,1.722
				c0.43,0.395,0.886,0.762,1.363,1.098l1.473-1.383c0.239,0.156,0.48,0.304,0.73,0.441l-0.547,1.944
				c0.519,0.264,1.054,0.498,1.608,0.694l1.043-1.729c0.271,0.084,0.544,0.16,0.82,0.226l-0.006,2.02
				c0.566,0.115,1.15,0.193,1.738,0.233l0.541-1.945c0.144,0.003,0.282,0.007,0.425,0.007c0.142,0,0.283-0.004,0.424-0.007
				l0.539,1.945c0.592-0.041,1.172-0.119,1.737-0.233l-0.004-2.02c0.276-0.066,0.551-0.142,0.819-0.226l1.043,1.729
				c0.556-0.196,1.091-0.43,1.608-0.694l-0.548-1.944c0.25-0.137,0.494-0.285,0.731-0.441l1.473,1.383
				c0.479-0.335,0.934-0.703,1.363-1.098l-1.054-1.722c0.204-0.201,0.401-0.411,0.591-0.626l1.797,0.933
				c0.368-0.448,0.704-0.922,1.015-1.418l-1.477-1.371c0.146-0.252,0.282-0.511,0.406-0.774l1.979,0.416
				c0.232-0.528,0.43-1.073,0.592-1.633l-1.793-0.922c0.074-0.287,0.136-0.577,0.188-0.869L471.302,102.379z M457.854,104.571
				c-2.259,0-4.089-1.832-4.089-4.089c0-2.259,1.83-4.089,4.089-4.089c2.257,0,4.091,1.83,4.091,4.089
				C461.944,102.739,460.11,104.571,457.854,104.571z"/>
		</g>
		<g>
			<path fill="#4777BB" d="M372.645,74.062c-6.062,0-10.978,4.915-10.978,10.978s4.916,10.979,10.978,10.979
				c6.063,0,10.979-4.916,10.979-10.979S378.708,74.062,372.645,74.062z M372.645,94.521c-5.229,0-9.48-4.254-9.48-9.481
				c0-5.228,4.252-9.479,9.48-9.479s9.479,4.251,9.479,9.479S377.873,94.521,372.645,94.521z"/>
			<path fill="#4777BB" d="M408.764,90.139c0.206-1.517,0.326-3.065,0.346-4.638l-5.301-1.086c-0.019-0.814-0.065-1.618-0.145-2.416
				l5.122-1.806c-0.211-1.544-0.514-3.061-0.908-4.54l-5.398,0.382c-0.239-0.788-0.51-1.564-0.807-2.324l4.443-3.119
				c-0.614-1.418-1.316-2.788-2.101-4.105l-5.098,1.824c-0.447-0.702-0.927-1.382-1.427-2.042l3.435-4.2
				c-0.969-1.189-2.012-2.319-3.119-3.376l-4.412,3.133c-0.631-0.559-1.276-1.093-1.948-1.6l2.18-4.973
				c-1.254-0.877-2.557-1.679-3.914-2.399l-3.404,4.208c-0.758-0.37-1.531-0.71-2.325-1.02l0.752-5.371
				c-1.428-0.501-2.901-0.916-4.403-1.239l-2.149,4.974c-0.827-0.151-1.672-0.264-2.521-0.345l-0.726-5.369
				c-0.761-0.048-1.521-0.074-2.288-0.074c-0.771,0-1.53,0.026-2.288,0.074l-0.729,5.369c-0.849,0.081-1.688,0.194-2.521,0.345
				l-2.147-4.974c-1.504,0.323-2.974,0.738-4.402,1.239l0.75,5.371c-0.791,0.309-1.568,0.65-2.324,1.02l-3.408-4.208
				c-1.354,0.72-2.661,1.521-3.908,2.401l2.174,4.97c-0.668,0.507-1.315,1.041-1.94,1.6l-4.416-3.133
				c-1.111,1.057-2.152,2.187-3.123,3.377l3.435,4.199c-0.499,0.661-0.978,1.34-1.425,2.042l-5.096-1.824
				c-0.782,1.317-1.485,2.687-2.1,4.105l4.44,3.119c-0.297,0.76-0.566,1.536-0.805,2.324l-5.398-0.382
				c-0.396,1.479-0.699,2.996-0.907,4.54l5.119,1.806c-0.075,0.797-0.125,1.602-0.144,2.416l-5.299,1.086
				c0.019,1.573,0.135,3.121,0.346,4.638l5.417,0.356c0.136,0.788,0.303,1.566,0.499,2.333l-4.813,2.478
				c0.438,1.505,0.974,2.969,1.593,4.387l5.313-1.117c0.34,0.707,0.708,1.401,1.1,2.078l-3.967,3.685
				c0.829,1.328,1.738,2.601,2.728,3.808l4.813-2.508c0.509,0.581,1.039,1.14,1.592,1.683l-2.825,4.619
				c1.15,1.06,2.373,2.048,3.651,2.952l3.959-3.714c0.638,0.419,1.295,0.816,1.965,1.186l-1.477,5.219
				c1.391,0.71,2.836,1.333,4.32,1.863l2.809-4.642c0.723,0.229,1.456,0.432,2.201,0.61l-0.015,5.42
				c1.521,0.307,3.082,0.521,4.67,0.63l1.447-5.228c0.378,0.013,0.756,0.024,1.139,0.024c0.378,0,0.759-0.011,1.136-0.024
				l1.45,5.228c1.589-0.109,3.146-0.323,4.67-0.63l-0.011-5.42c0.741-0.179,1.473-0.382,2.195-0.61l2.809,4.642
				c1.485-0.53,2.93-1.152,4.319-1.863l-1.475-5.219c0.669-0.369,1.324-0.765,1.962-1.186l3.96,3.714
				c1.282-0.904,2.503-1.892,3.656-2.952l-2.828-4.621c0.549-0.541,1.082-1.1,1.59-1.681l4.814,2.508
				c0.989-1.208,1.899-2.48,2.727-3.808l-3.967-3.685c0.395-0.676,0.76-1.371,1.103-2.078l5.313,1.117
				c0.62-1.418,1.152-2.882,1.591-4.387l-4.813-2.478c0.192-0.767,0.362-1.545,0.499-2.333L408.764,90.139z M372.645,96.019
				c-6.062,0-10.978-4.916-10.978-10.979s4.916-10.978,10.978-10.978c6.063,0,10.979,4.915,10.979,10.978
				S378.708,96.019,372.645,96.019z"/>
		</g>
		<g>
			<path fill="#4777BB" d="M534.188,182.756c-1.515,0-2.736,1.221-2.736,2.735c0,1.508,1.223,2.731,2.736,2.731
				c1.511,0,2.732-1.225,2.732-2.731C536.92,183.977,535.698,182.756,534.188,182.756z M534.188,187.85
				c-1.306,0-2.361-1.06-2.361-2.358c0-1.306,1.057-2.363,2.361-2.363c1.301,0,2.358,1.058,2.358,2.363
				C536.546,186.791,535.488,187.85,534.188,187.85z"/>
			<path fill="#4777BB" d="M543.181,186.761c0.055-0.382,0.084-0.764,0.086-1.155l-1.32-0.273c-0.004-0.2-0.016-0.398-0.033-0.6
				l1.274-0.451c-0.052-0.385-0.129-0.76-0.228-1.133l-1.346,0.098c-0.058-0.196-0.123-0.391-0.197-0.576l1.104-0.781
				c-0.153-0.351-0.326-0.693-0.521-1.021l-1.271,0.455c-0.109-0.175-0.231-0.343-0.354-0.509l0.854-1.048
				c-0.237-0.293-0.5-0.574-0.774-0.838l-1.103,0.781c-0.153-0.141-0.314-0.273-0.483-0.401l0.543-1.237
				c-0.313-0.221-0.637-0.419-0.973-0.595l-0.851,1.043c-0.19-0.089-0.382-0.178-0.58-0.25l0.187-1.336
				c-0.355-0.126-0.724-0.231-1.097-0.314l-0.532,1.239c-0.207-0.037-0.416-0.066-0.63-0.084l-0.18-1.336
				c-0.19-0.012-0.379-0.021-0.568-0.021c-0.194,0-0.383,0.008-0.574,0.021l-0.181,1.336c-0.213,0.019-0.421,0.047-0.628,0.084
				l-0.537-1.239c-0.373,0.083-0.736,0.188-1.095,0.314l0.188,1.336c-0.199,0.072-0.394,0.161-0.581,0.25l-0.85-1.043
				c-0.337,0.175-0.66,0.374-0.973,0.595l0.543,1.237c-0.17,0.128-0.33,0.26-0.485,0.401l-1.101-0.781
				c-0.277,0.264-0.537,0.545-0.779,0.838l0.855,1.048c-0.124,0.166-0.242,0.334-0.354,0.509l-1.27-0.455
				c-0.195,0.325-0.368,0.669-0.523,1.021l1.107,0.781c-0.074,0.186-0.141,0.38-0.202,0.576l-1.345-0.098
				c-0.097,0.373-0.174,0.748-0.224,1.133l1.273,0.451c-0.019,0.201-0.028,0.399-0.037,0.6l-1.319,0.273
				c0.005,0.392,0.032,0.773,0.086,1.155l1.353,0.089c0.033,0.194,0.072,0.39,0.124,0.58l-1.2,0.619
				c0.109,0.374,0.241,0.737,0.396,1.09l1.32-0.277c0.086,0.179,0.181,0.348,0.277,0.518l-0.989,0.917
				c0.206,0.331,0.435,0.646,0.681,0.948l1.197-0.626c0.128,0.149,0.261,0.287,0.396,0.419l-0.703,1.154
				c0.287,0.265,0.594,0.51,0.909,0.732l0.986-0.925c0.159,0.103,0.324,0.202,0.49,0.295l-0.368,1.299
				c0.346,0.177,0.704,0.334,1.076,0.468l0.698-1.158c0.18,0.055,0.363,0.105,0.547,0.15l-0.004,1.352
				c0.383,0.074,0.769,0.128,1.165,0.154l0.358-1.301c0.096,0.004,0.192,0.008,0.287,0.008c0.092,0,0.188-0.004,0.278-0.008
				l0.364,1.301c0.392-0.026,0.782-0.08,1.161-0.154v-1.352c0.184-0.045,0.366-0.097,0.547-0.15l0.698,1.158
				c0.371-0.133,0.73-0.291,1.074-0.468l-0.366-1.299c0.166-0.093,0.329-0.192,0.489-0.295l0.984,0.925
				c0.318-0.223,0.624-0.469,0.911-0.732l-0.702-1.154c0.137-0.132,0.269-0.271,0.393-0.419l1.202,0.626
				c0.245-0.303,0.474-0.618,0.68-0.948l-0.988-0.917c0.097-0.169,0.188-0.339,0.271-0.518l1.326,0.277
				c0.155-0.353,0.287-0.717,0.394-1.09l-1.195-0.619c0.047-0.19,0.091-0.385,0.124-0.58L543.181,186.761z M534.188,188.225
				c-1.515,0-2.736-1.226-2.736-2.732c0-1.514,1.223-2.735,2.736-2.735c1.511,0,2.732,1.222,2.732,2.735
				C536.92,186.999,535.698,188.225,534.188,188.225z"/>
		</g>
		<g>
			<path fill="#4777BB" d="M229.996,173.97c-4.238,0-7.676,3.431-7.676,7.671c0,4.238,3.438,7.674,7.676,7.674
				c4.236,0,7.672-3.436,7.672-7.674C237.667,177.401,234.232,173.97,229.996,173.97z M229.996,188.268
				c-3.656,0-6.627-2.975-6.627-6.627c0-3.651,2.971-6.627,6.627-6.627c3.652,0,6.625,2.976,6.625,6.627
				C236.621,185.293,233.648,188.268,229.996,188.268z"/>
			<path fill="#4777BB" d="M255.236,185.204c0.146-1.06,0.228-2.142,0.24-3.241l-3.703-0.76c-0.012-0.57-0.047-1.132-0.102-1.686
				l3.581-1.264c-0.147-1.081-0.358-2.14-0.635-3.175l-3.774,0.269c-0.164-0.552-0.353-1.095-0.562-1.627l3.104-2.175
				c-0.431-0.991-0.921-1.95-1.468-2.872l-3.563,1.279c-0.313-0.493-0.646-0.969-0.994-1.429l2.398-2.938
				c-0.677-0.83-1.406-1.62-2.181-2.361l-3.086,2.192c-0.438-0.392-0.892-0.765-1.358-1.119l1.52-3.473
				c-0.872-0.616-1.784-1.175-2.731-1.677l-2.379,2.941c-0.532-0.259-1.071-0.498-1.627-0.714l0.524-3.754
				c-1-0.351-2.025-0.641-3.08-0.866l-1.5,3.476c-0.577-0.104-1.168-0.183-1.762-0.241l-0.506-3.752
				c-0.533-0.033-1.063-0.052-1.6-0.052c-0.539,0-1.071,0.019-1.6,0.052l-0.508,3.752c-0.597,0.058-1.185,0.136-1.765,0.241
				l-1.5-3.476c-1.054,0.225-2.08,0.515-3.081,0.868l0.525,3.752c-0.553,0.216-1.096,0.455-1.625,0.714l-2.381-2.941
				c-0.949,0.502-1.858,1.062-2.731,1.677l1.521,3.473c-0.469,0.354-0.923,0.729-1.358,1.119l-3.087-2.192
				c-0.776,0.741-1.504,1.531-2.182,2.363l2.4,2.935c-0.352,0.46-0.684,0.937-0.998,1.429l-3.559-1.279
				c-0.549,0.922-1.041,1.881-1.469,2.872l3.104,2.175c-0.21,0.533-0.397,1.076-0.563,1.627l-3.773-0.269
				c-0.275,1.035-0.488,2.094-0.633,3.175l3.576,1.264c-0.053,0.554-0.086,1.116-0.099,1.686l-3.705,0.76
				c0.013,1.099,0.095,2.181,0.242,3.241l3.785,0.25c0.096,0.549,0.212,1.095,0.35,1.632l-3.364,1.733
				c0.307,1.051,0.68,2.07,1.112,3.063l3.714-0.783c0.237,0.498,0.495,0.981,0.77,1.452l-2.771,2.576
				c0.578,0.931,1.213,1.817,1.904,2.663l3.363-1.756c0.355,0.408,0.729,0.802,1.113,1.18l-1.977,3.229
				c0.807,0.74,1.659,1.43,2.554,2.062l2.767-2.594c0.445,0.291,0.906,0.569,1.375,0.827l-1.033,3.648
				c0.973,0.496,1.982,0.93,3.02,1.299l1.965-3.242c0.504,0.16,1.019,0.302,1.537,0.425l-0.012,3.788
				c1.066,0.217,2.156,0.363,3.266,0.439l1.015-3.65c0.264,0.008,0.528,0.016,0.795,0.016c0.264,0,0.528-0.008,0.793-0.016
				l1.014,3.65c1.107-0.076,2.197-0.223,3.263-0.439l-0.008-3.788c0.52-0.124,1.03-0.265,1.535-0.425l1.963,3.242
				c1.038-0.369,2.049-0.803,3.02-1.299l-1.03-3.648c0.468-0.258,0.925-0.536,1.372-0.827l2.766,2.594
				c0.896-0.632,1.752-1.321,2.555-2.062l-1.975-3.229c0.383-0.378,0.756-0.771,1.112-1.18l3.364,1.756
				c0.688-0.846,1.326-1.732,1.902-2.663l-2.77-2.576c0.273-0.471,0.527-0.954,0.768-1.452l3.713,0.783
				c0.436-0.992,0.807-2.012,1.112-3.063l-3.362-1.733c0.137-0.537,0.254-1.083,0.35-1.632L255.236,185.204z M229.996,189.314
				c-4.238,0-7.676-3.436-7.676-7.674c0-4.24,3.438-7.671,7.676-7.671c4.236,0,7.672,3.431,7.672,7.671
				C237.667,185.879,234.232,189.314,229.996,189.314z"/>
		</g>
		<g>
			<path fill="#4777BB" d="M448.923,166.069v-10.774l-11.354-3.164c-0.517-2.987-1.293-5.884-2.326-8.659l8.219-8.429l-5.412-9.316
				l-11.414,2.978c-1.756-2.092-3.685-4.032-5.769-5.809l3.047-11.396l-9.272-5.474l-8.485,8.163
				c-2.873-1.081-5.875-1.897-8.976-2.435l-3.162-11.359h-10.768l-3.16,11.359c-2.865,0.499-5.653,1.229-8.328,2.196l-8.369-8.275
				l-9.352,5.342l2.892,11.422c-2.105,1.75-4.057,3.675-5.851,5.739l-11.37-3.13l-5.541,9.237l8.104,8.551
				c-1.146,2.971-2.011,6.081-2.57,9.296l-11.357,3.172v10.766l11.357,3.161c0.521,2.984,1.295,5.892,2.323,8.674l-8.216,8.423
				l5.409,9.313l11.409-2.973c1.766,2.09,3.697,4.03,5.777,5.805l-3.046,11.395l9.27,5.474l8.486-8.167
				c2.877,1.084,5.875,1.905,8.971,2.439l3.164,11.352h10.771l3.164-11.352c2.86-0.498,5.645-1.229,8.323-2.204l8.371,8.289
				l9.352-5.345l-2.889-11.434c2.105-1.74,4.05-3.666,5.843-5.734l11.381,3.133l5.53-9.233l-8.106-8.553
				c1.152-2.977,2.014-6.076,2.576-9.302L448.923,166.069z M388.636,199.59c-21.484,0-38.901-17.42-38.901-38.911
				c0-21.486,17.417-38.909,38.901-38.909c21.482,0,38.907,17.422,38.907,38.909C427.543,182.17,410.119,199.59,388.636,199.59z"/>
			<path fill="#4777BB" d="M388.636,121.77c-21.484,0-38.901,17.422-38.901,38.909c0,21.491,17.417,38.911,38.901,38.911
				c21.482,0,38.907-17.42,38.907-38.911C427.543,139.192,410.119,121.77,388.636,121.77z M388.636,197.657
				c-20.385,0-36.975-16.582-36.975-36.978c0-20.384,16.59-36.976,36.975-36.976c20.396,0,36.979,16.592,36.979,36.976
				C425.615,181.075,409.033,197.657,388.636,197.657z"/>
			<path fill="#4777BB" d="M388.636,126.901c-18.625,0-33.776,15.155-33.776,33.778c0,18.632,15.151,33.783,33.776,33.783
				c18.626,0,33.783-15.15,33.783-33.783C422.419,142.056,407.262,126.901,388.636,126.901z M388.636,193.954
				c-18.371,0-33.27-14.898-33.27-33.275c0-18.372,14.897-33.272,33.27-33.272c18.379,0,33.277,14.901,33.277,33.272
				C421.914,179.055,407.015,193.954,388.636,193.954z"/>
			<path fill="#4777BB" d="M388.636,127.406c-18.371,0-33.27,14.901-33.27,33.273c0,18.376,14.897,33.275,33.27,33.275
				c18.379,0,33.277-14.898,33.277-33.275C421.914,142.307,407.015,127.406,388.636,127.406z"/>
		</g>
		<g>
			<path fill="#4777BB" d="M557.239,76.125v-7.028l-7.409-2.064c-0.334-1.947-0.84-3.837-1.514-5.648l5.358-5.498l-3.528-6.077
				l-7.446,1.944c-1.143-1.365-2.402-2.63-3.761-3.789l1.985-7.434l-6.052-3.569l-5.531,5.323c-1.874-0.704-3.831-1.237-5.852-1.588
				l-2.065-7.41h-7.021l-2.063,7.41c-1.866,0.325-3.685,0.8-5.434,1.432l-5.459-5.396l-6.098,3.482l1.888,7.452
				c-1.374,1.14-2.646,2.397-3.817,3.743l-7.417-2.042l-3.613,6.024l5.288,5.577c-0.75,1.938-1.314,3.968-1.679,6.063l-7.405,2.068
				v7.024l7.405,2.06c0.339,1.949,0.845,3.845,1.52,5.657l-5.36,5.497l3.53,6.072l7.438-1.938c1.15,1.365,2.41,2.629,3.771,3.786
				l-1.989,7.434l6.048,3.57l5.531-5.326c1.877,0.707,3.832,1.239,5.854,1.591l2.063,7.403h7.023l2.063-7.403
				c1.869-0.328,3.687-0.805,5.433-1.439l5.459,5.407l6.101-3.489l-1.884-7.453c1.375-1.137,2.64-2.394,3.806-3.742l7.426,2.043
				l3.61-6.024l-5.29-5.577c0.754-1.939,1.313-3.966,1.68-6.069L557.239,76.125z M517.918,97.987
				c-14.017,0-25.379-11.364-25.379-25.378c0-14.015,11.362-25.377,25.379-25.377c14.01,0,25.372,11.362,25.372,25.377
				C543.291,86.623,531.928,97.987,517.918,97.987z"/>
			<path fill="#4777BB" d="M517.918,47.231c-14.017,0-25.379,11.362-25.379,25.377c0,14.014,11.362,25.378,25.379,25.378
				c14.01,0,25.372-11.364,25.372-25.378C543.291,58.594,531.928,47.231,517.918,47.231z M517.918,96.725
				c-13.3,0-24.121-10.814-24.121-24.116c0-13.296,10.821-24.118,24.121-24.118c13.298,0,24.116,10.821,24.116,24.118
				C542.035,85.911,531.216,96.725,517.918,96.725z"/>
			<path fill="#4777BB" d="M517.918,50.577c-12.153,0-22.034,9.885-22.034,22.032c0,12.15,9.881,22.032,22.034,22.032
				c12.146,0,22.03-9.882,22.03-22.032C539.949,60.462,530.063,50.577,517.918,50.577z M517.918,94.31
				c-11.988,0-21.704-9.718-21.704-21.701c0-11.984,9.716-21.704,21.704-21.704c11.981,0,21.7,9.72,21.7,21.704
				C539.619,84.592,529.9,94.31,517.918,94.31z"/>
			<path fill="#4777BB" d="M517.918,50.905c-11.988,0-21.704,9.72-21.704,21.704c0,11.983,9.716,21.701,21.704,21.701
				c11.981,0,21.7-9.718,21.7-21.701C539.619,60.625,529.9,50.905,517.918,50.905z"/>
		</g>
		<path fill="#4777BB" d="M330.048,197.148v-6.408l-6.759-1.887c-0.307-1.775-0.771-3.5-1.384-5.152l4.893-5.017l-3.221-5.544
			l-6.797,1.77c-1.043-1.246-2.191-2.398-3.431-3.458l1.813-6.781l-5.521-3.26l-5.049,4.858c-1.711-0.645-3.497-1.128-5.343-1.448
			l-1.883-6.762h-6.408l-1.88,6.762c-1.705,0.297-3.364,0.73-4.959,1.308l-4.979-4.926l-5.565,3.179l1.721,6.8
			c-1.253,1.039-2.413,2.185-3.481,3.416l-6.768-1.863l-3.299,5.496l4.825,5.091c-0.685,1.766-1.198,3.619-1.53,5.531l-6.76,1.89
			v6.405l6.76,1.881c0.309,1.777,0.77,3.509,1.384,5.166l-4.893,5.013l3.223,5.54l6.789-1.766c1.05,1.246,2.2,2.397,3.438,3.453
			l-1.813,6.785l5.519,3.258l5.05-4.862c1.712,0.646,3.495,1.134,5.341,1.454l1.883,6.756h6.41l1.883-6.756
			c1.704-0.301,3.361-0.735,4.955-1.315l4.983,4.935l5.564-3.182l-1.722-6.804c1.255-1.037,2.41-2.183,3.478-3.417l6.774,1.865
			l3.294-5.496l-4.826-5.088c0.688-1.77,1.195-3.618,1.532-5.539L330.048,197.148z M294.167,217.102
			c-12.79,0-23.156-10.371-23.156-23.158c0-12.789,10.366-23.158,23.156-23.158c12.786,0,23.155,10.369,23.155,23.158
			C317.322,206.73,306.953,217.102,294.167,217.102z"/>
		<path fill="#4777BB" d="M294.167,170.785c-12.79,0-23.156,10.369-23.156,23.158c0,12.787,10.366,23.158,23.156,23.158
			c12.786,0,23.155-10.371,23.155-23.158C317.322,181.154,306.953,170.785,294.167,170.785z M294.167,215.951
			c-12.136,0-22.008-9.867-22.008-22.008c0-12.135,9.872-22.009,22.008-22.009c12.138,0,22.009,9.875,22.009,22.009
			C316.175,206.084,306.304,215.951,294.167,215.951z"/>
		<path fill="#4777BB" d="M294.167,173.838c-11.087,0-20.106,9.018-20.106,20.105c0,11.084,9.021,20.104,20.106,20.104
			c11.085,0,20.106-9.021,20.106-20.104C314.273,182.855,305.251,173.838,294.167,173.838z M294.167,213.747
			c-10.937,0-19.804-8.869-19.804-19.804c0-10.938,8.867-19.807,19.804-19.807s19.805,8.869,19.805,19.807
			C313.971,204.878,305.104,213.747,294.167,213.747z"/>
		<path fill="#4777BB" d="M294.167,174.137c-10.937,0-19.804,8.869-19.804,19.807c0,10.935,8.867,19.804,19.804,19.804
			s19.805-8.869,19.805-19.804C313.971,183.006,305.104,174.137,294.167,174.137z"/>
	</g>
</g>
<g id="Capa_3">
	<g>
		<g>
			<path fill="#4777BB" d="M160.228,193.936c18.018,1.083,34.82,10.568,34.956,31.569h-25.199c0.271-6.91-4.065-10.295-9.756-11.65
				v18.426c3.116,0.812,6.639,1.626,10.027,2.574c13.953,3.93,28.045,10.434,28.045,27.91c0,22.628-18.291,31.029-38.072,31.842
				V306.8h-6.369v-12.193c-21.407-0.679-39.562-10.162-39.698-34.009h25.2c0.542,9.754,5.961,13.685,14.497,14.633v-21.272
				c-2.438-0.677-5.419-1.488-8.537-2.303c-13.819-3.929-28.317-10.161-28.317-27.911c0-20.865,19.241-29.266,36.854-29.942V110.23
				h6.368L160.228,193.936L160.228,193.936z M153.859,213.311c-5.283,0.137-11.651,2.17-11.651,8.808
				c0,4.335,4.744,6.638,11.651,8.536V213.311z M160.228,275.095c5.961-0.406,12.871-2.846,12.871-9.35
				c0-5.283-5.147-7.857-12.871-10.025V275.095z"/>
		</g>
		<path fill="#4777BB" d="M156.231,130.299c-45.898,0.801-83.801,28.006-91.799,44.999c0,0,7.463-4.395,13.84-3.407
			c6.55,1.015,9.597,7.929,9.597,7.929s9.402-4.816,20.636-4.654c12.637,0.183,19.611,9.817,19.611,9.817s6.2-7.293,28.115-7.293
			c21.915,0,28.114,7.293,28.114,7.293s6.975-9.634,19.609-9.817c11.234-0.162,20.637,4.654,20.637,4.654s3.047-6.914,9.598-7.929
			c6.377-0.987,13.841,3.407,13.841,3.407C240.031,158.305,202.13,131.1,156.231,130.299z"/>
		<g>
			<path fill="#4777BB" d="M168.951,350.479c-8.192,0-16.486-6.406-16.486-18.651v-25.028h9.152v25.028
				c0,3.128,0.854,5.681,2.471,7.383c1.297,1.366,3.024,2.117,4.864,2.117c3.279,0,7.107-2.488,7.107-9.5l0.024-8.688l9.126-0.002
				v8.689C185.207,344.072,177.03,350.479,168.951,350.479z"/>
		</g>
	</g>
</g>
</svg>
