<?xml version="1.0" encoding="utf-8"?>
<!-- Generator: Adobe Illustrator 15.0.2, SVG Export Plug-In . SVG Version: 6.00 Build 0)  -->
<!DOCTYPE svg PUBLIC "-//W3C//DTD SVG 1.1//EN" "http://www.w3.org/Graphics/SVG/1.1/DTD/svg11.dtd">
<svg version="1.1" id="Capa_1" xmlns="http://www.w3.org/2000/svg" xmlns:xlink="http://www.w3.org/1999/xlink" x="0px" y="0px"
	 width="600px" height="340px" viewBox="-61.512 20 600 340" enable-background="new -61.512 20 600 340" xml:space="preserve">
<g id="Capa_1_1_">
	<g>
		<polygon fill="#4777BB" points="184.681,126.31 184.681,118.316 151.747,118.316 151.747,126.31 		"/>
		<polygon fill="#4777BB" points="192.305,97.851 163.784,81.388 159.787,88.308 188.308,104.782 		"/>
		<polygon fill="#4777BB" points="209.14,83.943 192.677,55.429 185.75,59.426 202.216,87.94 		"/>
		<polyline fill="#4777BB" points="230.666,47.367 230.666,80.313 222.676,80.313 222.676,47.367 230.666,47.367 		"/>
		<polygon fill="#4777BB" points="267.605,59.426 260.678,55.429 244.216,83.943 251.141,87.94 		"/>
		<polygon fill="#4777BB" points="265.047,104.782 293.563,88.314 289.57,81.388 261.048,97.86 		"/>
		<polygon fill="#4777BB" points="268.673,126.31 301.604,126.31 301.604,118.316 268.673,118.316 		"/>
		<path fill="#4777BB" d="M258.548,122.24c0,11.312-5.741,21.574-14.825,26.935c-1.428,0.84-1.83,2.165-1.83,3.678
			c0,3.828,0,20.69,0,20.69c-4.835,1.431-9.944,2.188-15.222,2.188c-5.298,0-10.408-0.758-15.222-2.188c0,0,0-17.747,0-20.69
			c0-1.513-0.401-2.838-1.83-3.678c-9.105-5.361-14.825-15.624-14.825-26.935c0-17.577,14.301-31.876,31.877-31.876
			C244.248,90.363,258.548,104.663,258.548,122.24 M233.926,161.116c0,0,0-6.895,0-8.264c0-6.244,3.596-9.313,5.74-10.577
			c6.708-3.952,10.893-11.627,10.893-20.036c0-13.164-10.726-23.864-23.888-23.864c-13.164,0-23.887,10.7-23.887,23.864
			c0,8.409,4.166,16.084,10.871,20.036c2.165,1.264,5.783,4.333,5.783,10.577c0,2.337,0,8.264,0,8.264
			c2.354,0.442,4.75,0.693,7.232,0.693S231.571,161.559,233.926,161.116"/>
	</g>
	<path fill="#95B1D8" d="M16.178,360l0.087-145.957h3.5v6.006l2.001,0.25V360h8.254v-79.186h6.75V360h8.5v-87.189h22.756v-11.5
		H79.53v-10.004h8.251v-9.758h4.754v42.266H71.53v11.252H60.027v11.257h-9.002V360h7v-45.176h9.501v-9.25H79.78v-11.756h13.005V360
		h9.251V216.795h14.005V360h9.503V245.805h9.501V360h8.253l0.502-111.197h10.501V360h7.754v-98.939h29.505V360h8.756V236.303h7.502
		v-7.757h10.253v7.006h4.998v92.276h15.757v-5.504h11.003V307.32h3.001V197.288h3.251v-18.504h3.5v19.004v82.276h6.004v17.256
		h14.002v18.754h5.501V360h8.001v-43.675h6.007v-57.267h22.256v11.502h15.753V360h8.004V234.301h10.503v-6.252h15.753v6h7.253V360
		h9.502V259.809h23.006v6.254h-5.501V360h9.255v-86.688h4.496v-9.506l3.628-3.623v-26.136h2.124v-7.498h7.753v6.748l1.877,1.876
		v26.137h18.881v1.996l-5.502,15.506l-0.25,1.252l-5.505,4.004V360h7.504v-69.684l2.003-1.252l1.75-1.25v-11.754h3.75l0.5,3.752
		v5.754l2.253,0.75v3.248l1.748,0.25V360h8.754v-73.684l-3.003-2.998l-4.5-4.506l-6.001-21.008v-5.502H441.64v-17.502l-2.502-0.501
		v-14.752h-20.004v14.5h-3.253v18.009h-27.757v-27.26h-9.252v-7.752H347.11v7.752h-9.751V237.8h-6.252v-3.251h-5.752v-5.755h-11.504
		v-21.503h-30.009v21.254h-4.001v60.02h-5.502v-17.75h-4.5v-74.527l-2.503-2.499h-2.999v-17.255h-2.502l-1.251-20.756l-3-24.508
		l-6.665,45.013l-0.337,10.339l-1.669,0.666l-0.333,7.333l-2.331,2.003l0.329,91.025h-1.665v12.002h-3.332v14.338h-5.671v4.671
		h-3.334v-90.028h-7.333v-11.339h-26.009v11.007h-7.672v22.34h-29.674v-12.336h-18.005v-2h-18.338v-30.011h-32.34v21.674H80.533
		v11.341H69.197v10.002H56.525v11.668h-20.34v10.336h-7.34v-50.685l-8.665-21.339l-0.665-4.331h-1.999v4l-9.005,21.341V360H16.178z
		 M285.343,239.055h7.75v-22.26h12.005v22.26h10.505v4.75h15.755v5.75h6.252l0.5,0.254v8.996h-8.753v-7.498h-37.261v55.017h-6.753
		V239.055L285.343,239.055z"/>
	<path fill="#4777BB" d="M226.549,248.779c13.889,0,25.139-11.262,25.139-25.152c0-13.882-11.25-25.146-25.139-25.146
		c-13.896,0-25.154,11.266-25.154,25.146C201.395,237.52,212.654,248.779,226.549,248.779z"/>
	<path fill="#4777BB" d="M325.646,191.374c-5.138-4.903-13.287-4.7-18.181,0.451l-62.241,62.604l-36.705,0.021l-62.624-62.625
		c-4.908-5.151-13.04-5.354-18.188-0.451c-5.155,4.899-5.362,13.04-0.451,18.185l65.405,65.51L192.666,360h68.064l-0.032-84.932
		l65.401-65.512C331,204.414,330.797,196.273,325.646,191.374z"/>
</g>
<g id="Capa_2" display="none">
	<g display="inline">
		<g>
			<path fill="#4777BB" d="M297.904-151.587c-6.469,0-11.711,5.242-11.711,11.713c0,6.467,5.242,11.711,11.711,11.711
				c6.47,0,11.712-5.244,11.712-11.711C309.616-146.345,304.374-151.587,297.904-151.587z M297.904-129.761
				c-5.577,0-10.114-4.534-10.114-10.113c0-5.577,4.537-10.112,10.114-10.112c5.578,0,10.115,4.536,10.115,10.112
				C308.02-134.295,303.482-129.761,297.904-129.761z"/>
			<path fill="#4777BB" d="M336.436-134.434c0.227-1.621,0.35-3.271,0.369-4.947l-5.653-1.161c-0.02-0.868-0.07-1.729-0.152-2.578
				l5.463-1.927c-0.223-1.648-0.547-3.266-0.969-4.844l-5.76,0.409c-0.253-0.841-0.54-1.669-0.859-2.48l4.74-3.326
				c-0.655-1.516-1.405-2.979-2.242-4.381l-5.436,1.946c-0.477-0.75-0.985-1.475-1.521-2.179l3.663-4.482
				c-1.034-1.268-2.146-2.473-3.331-3.6l-4.711,3.344c-0.666-0.597-1.357-1.167-2.074-1.706l2.321-5.306
				c-1.331-0.936-2.724-1.793-4.169-2.559l-3.635,4.488c-0.811-0.393-1.638-0.758-2.481-1.088l0.804-5.729
				c-1.524-0.535-3.094-0.979-4.702-1.322l-2.288,5.309c-0.887-0.159-1.785-0.283-2.694-0.37l-0.771-5.729
				c-0.811-0.049-1.623-0.079-2.441-0.079c-0.82,0-1.633,0.029-2.441,0.079l-0.771,5.729c-0.911,0.087-1.811,0.211-2.695,0.37
				l-2.287-5.309c-1.607,0.343-3.175,0.787-4.702,1.322l0.802,5.729c-0.843,0.331-1.67,0.696-2.479,1.088l-3.636-4.488
				c-1.446,0.766-2.838,1.624-4.17,2.559l2.319,5.306c-0.714,0.539-1.405,1.109-2.073,1.706l-4.711-3.344
				c-1.186,1.127-2.295,2.332-3.33,3.602l3.664,4.482c-0.533,0.703-1.045,1.427-1.521,2.177l-5.437-1.946
				c-0.834,1.402-1.584,2.865-2.24,4.381l4.738,3.326c-0.315,0.812-0.604,1.64-0.858,2.48l-5.759-0.409
				c-0.422,1.578-0.748,3.195-0.967,4.844l5.461,1.927c-0.082,0.849-0.135,1.71-0.151,2.578l-5.652,1.161
				c0.019,1.675,0.142,3.326,0.366,4.947l5.777,0.38c0.146,0.838,0.326,1.668,0.533,2.491l-5.135,2.642
				c0.469,1.605,1.037,3.167,1.699,4.676l5.668-1.189c0.363,0.754,0.754,1.493,1.171,2.216l-4.229,3.933
				c0.884,1.415,1.855,2.776,2.908,4.064l5.137-2.681c0.543,0.618,1.109,1.216,1.697,1.795l-3.016,4.934
				c1.23,1.126,2.533,2.181,3.898,3.146l4.223-3.959c0.684,0.444,1.381,0.867,2.098,1.26l-1.578,5.569
				c1.486,0.76,3.026,1.419,4.611,1.987l2.994-4.951c0.771,0.242,1.556,0.457,2.348,0.646l-0.016,5.784
				c1.625,0.328,3.289,0.556,4.982,0.677l1.547-5.583c0.4,0.019,0.807,0.027,1.213,0.027s0.811-0.008,1.213-0.027l1.548,5.583
				c1.692-0.122,3.354-0.349,4.981-0.677l-0.019-5.784c0.796-0.19,1.576-0.405,2.35-0.646l2.992,4.951
				c1.588-0.568,3.127-1.227,4.611-1.987l-1.575-5.569c0.715-0.393,1.413-0.816,2.097-1.26l4.223,3.959
				c1.368-0.965,2.67-2.02,3.898-3.146l-3.014-4.934c0.586-0.579,1.152-1.177,1.695-1.795l5.136,2.681
				c1.054-1.289,2.025-2.65,2.907-4.064l-4.229-3.933c0.418-0.723,0.81-1.462,1.172-2.216l5.668,1.189
				c0.661-1.51,1.23-3.071,1.698-4.676l-5.134-2.642c0.207-0.822,0.387-1.652,0.534-2.491L336.436-134.434z M297.904-128.163
				c-6.469,0-11.711-5.244-11.711-11.711c0-6.471,5.242-11.713,11.711-11.713c6.47,0,11.712,5.242,11.712,11.713
				C309.616-133.407,304.374-128.163,297.904-128.163z"/>
		</g>
		<g>
			<path fill="#4777BB" d="M574.311-267.114v-4.237l-4.465-1.246c-0.203-1.173-0.513-2.314-0.916-3.405l3.232-3.315l-2.127-3.665
				l-4.492,1.172c-0.688-0.823-1.448-1.587-2.266-2.285l1.194-4.482l-3.646-2.153l-3.336,3.209c-1.13-0.424-2.311-0.747-3.53-0.957
				l-1.245-4.469h-4.231l-1.245,4.469c-1.128,0.196-2.224,0.483-3.275,0.863l-3.293-3.255l-3.676,2.102l1.138,4.492
				c-0.831,0.689-1.597,1.446-2.304,2.257l-4.47-1.231l-2.18,3.633l3.189,3.362c-0.453,1.17-0.793,2.394-1.015,3.657l-4.469,1.248
				v4.235l4.469,1.244c0.203,1.173,0.511,2.315,0.914,3.41l-3.231,3.314l2.13,3.662l4.486-1.168c0.693,0.821,1.453,1.583,2.27,2.281
				l-1.198,4.484l3.648,2.152l3.34-3.213c1.131,0.426,2.307,0.748,3.525,0.961l1.246,4.462h4.235l1.24-4.462
				c1.129-0.199,2.223-0.485,3.278-0.868l3.29,3.258l3.679-2.103l-1.136-4.495c0.83-0.688,1.595-1.444,2.297-2.257l4.479,1.232
				l2.175-3.631l-3.188-3.364c0.454-1.17,0.793-2.391,1.015-3.658L574.311-267.114z M550.6-253.932
				c-8.45,0-15.302-6.851-15.302-15.302c0-8.451,6.852-15.304,15.302-15.304c8.447,0,15.3,6.853,15.3,15.304
				C565.899-260.783,559.047-253.932,550.6-253.932z"/>
			<path fill="#4777BB" d="M550.6-284.538c-8.45,0-15.302,6.853-15.302,15.304c0,8.451,6.852,15.302,15.302,15.302
				c8.447,0,15.3-6.851,15.3-15.302C565.899-277.685,559.047-284.538,550.6-284.538z M550.6-254.689
				c-8.021,0-14.546-6.523-14.546-14.544c0-8.017,6.524-14.544,14.546-14.544c8.019,0,14.543,6.527,14.543,14.544
				C565.143-261.212,558.618-254.689,550.6-254.689z"/>
			<path fill="#4777BB" d="M550.6-282.521c-7.326,0-13.288,5.962-13.288,13.288c0,7.327,5.962,13.285,13.288,13.285
				c7.323,0,13.287-5.958,13.287-13.285C563.887-276.559,557.923-282.521,550.6-282.521z M550.6-256.147
				c-7.228,0-13.088-5.86-13.088-13.086s5.86-13.087,13.088-13.087c7.229,0,13.088,5.861,13.088,13.087
				S557.829-256.147,550.6-256.147z"/>
			<path fill="#4777BB" d="M550.6-282.32c-7.228,0-13.088,5.861-13.088,13.087s5.86,13.086,13.088,13.086
				c7.229,0,13.088-5.86,13.088-13.086S557.829-282.32,550.6-282.32z"/>
		</g>
		<g>
			<path fill="#4777BB" d="M397.495-137.077v-4.236l-4.465-1.246c-0.203-1.173-0.514-2.313-0.915-3.404l3.231-3.317l-2.128-3.664
				l-4.492,1.173c-0.688-0.824-1.446-1.588-2.266-2.285l1.195-4.482l-3.646-2.154l-3.336,3.21c-1.131-0.424-2.31-0.746-3.53-0.957
				l-1.244-4.47h-4.232l-1.246,4.47c-1.127,0.194-2.223,0.483-3.274,0.863l-3.293-3.255l-3.677,2.101l1.139,4.492
				c-0.83,0.69-1.598,1.446-2.304,2.258l-4.47-1.231l-2.18,3.633l3.188,3.363c-0.452,1.169-0.793,2.392-1.014,3.656l-4.468,1.248
				v4.234l4.468,1.245c0.204,1.173,0.51,2.315,0.915,3.41l-3.233,3.313l2.131,3.665l4.485-1.169c0.694,0.822,1.454,1.583,2.271,2.28
				l-1.198,4.486l3.646,2.152l3.34-3.214c1.133,0.425,2.308,0.748,3.525,0.962l1.246,4.461h4.236l1.24-4.461
				c1.129-0.2,2.224-0.487,3.278-0.868l3.29,3.257l3.679-2.103l-1.137-4.495c0.83-0.688,1.595-1.443,2.297-2.257l4.479,1.231
				l2.175-3.631l-3.189-3.362c0.454-1.169,0.794-2.392,1.016-3.658L397.495-137.077z M373.784-123.894
				c-8.45,0-15.301-6.851-15.301-15.303c0-8.45,6.851-15.303,15.301-15.303c8.447,0,15.299,6.853,15.299,15.303
				C389.083-130.745,382.231-123.894,373.784-123.894z"/>
			<path fill="#4777BB" d="M373.784-154.5c-8.45,0-15.301,6.853-15.301,15.303c0,8.452,6.851,15.303,15.301,15.303
				c8.447,0,15.299-6.851,15.299-15.303C389.083-147.646,382.231-154.5,373.784-154.5z M373.784-124.651
				c-8.021,0-14.545-6.523-14.545-14.545c0-8.016,6.523-14.543,14.545-14.543c8.018,0,14.543,6.527,14.543,14.543
				C388.327-131.174,381.801-124.651,373.784-124.651z"/>
			<path fill="#4777BB" d="M373.784-152.481c-7.326,0-13.287,5.961-13.287,13.285c0,7.328,5.961,13.285,13.287,13.285
				c7.324,0,13.287-5.957,13.287-13.285C387.071-146.521,381.108-152.481,373.784-152.481z M373.784-126.11
				c-7.229,0-13.087-5.859-13.087-13.086c0-7.225,5.858-13.087,13.087-13.087s13.089,5.862,13.089,13.087
				C386.873-131.969,381.012-126.11,373.784-126.11z"/>
			<path fill="#4777BB" d="M373.784-152.283c-7.229,0-13.087,5.862-13.087,13.087c0,7.227,5.858,13.086,13.087,13.086
				s13.089-5.859,13.089-13.086C386.873-146.421,381.012-152.283,373.784-152.283z"/>
		</g>
		<g>
			<path fill="#4777BB" d="M514.726-313.607c-2.259,0-4.089,1.83-4.089,4.089c0,2.257,1.83,4.089,4.089,4.089
				c2.257,0,4.091-1.832,4.091-4.089C518.816-311.777,516.982-313.607,514.726-313.607z M514.726-305.988
				c-1.947,0-3.533-1.583-3.533-3.531c0-1.947,1.586-3.532,3.533-3.532c1.948,0,3.53,1.585,3.53,3.532
				C518.256-307.571,516.674-305.988,514.726-305.988z"/>
			<path fill="#4777BB" d="M528.174-307.621c0.078-0.563,0.122-1.141,0.131-1.727l-1.973-0.404c-0.009-0.304-0.027-0.605-0.057-0.9
				l1.91-0.672c-0.08-0.576-0.195-1.14-0.339-1.692l-2.014,0.144c-0.087-0.294-0.186-0.583-0.297-0.867l1.654-1.161
				c-0.229-0.526-0.494-1.038-0.783-1.529l-1.9,0.682c-0.165-0.263-0.341-0.517-0.529-0.763l1.279-1.563
				c-0.358-0.442-0.75-0.863-1.161-1.258l-1.646,1.168c-0.234-0.209-0.475-0.408-0.725-0.597l0.809-1.852
				c-0.463-0.327-0.947-0.625-1.454-0.892l-1.27,1.566c-0.281-0.138-0.571-0.264-0.864-0.381l0.278-2
				c-0.532-0.188-1.08-0.342-1.639-0.461l-0.801,1.852c-0.311-0.055-0.626-0.097-0.941-0.129l-0.268-1.998
				c-0.282-0.018-0.565-0.027-0.854-0.027s-0.57,0.009-0.853,0.027l-0.271,1.998c-0.314,0.032-0.631,0.075-0.94,0.129l-0.795-1.852
				c-0.564,0.12-1.111,0.273-1.646,0.461l0.281,2c-0.295,0.117-0.584,0.243-0.867,0.381l-1.269-1.566
				c-0.502,0.267-0.991,0.565-1.454,0.892l0.808,1.852c-0.25,0.189-0.487,0.388-0.724,0.597l-1.643-1.168
				c-0.415,0.395-0.806,0.815-1.165,1.258l1.279,1.563c-0.188,0.247-0.363,0.5-0.529,0.763l-1.899-0.682
				c-0.289,0.492-0.549,1.003-0.78,1.529l1.656,1.161c-0.113,0.285-0.213,0.573-0.302,0.867l-2.011-0.144
				c-0.146,0.552-0.26,1.116-0.338,1.692l1.906,0.672c-0.029,0.295-0.048,0.597-0.055,0.9l-1.973,0.404
				c0.006,0.585,0.053,1.163,0.128,1.727l2.017,0.134c0.052,0.292,0.113,0.582,0.188,0.869l-1.792,0.922
				c0.161,0.561,0.359,1.105,0.591,1.633l1.98-0.416c0.126,0.263,0.265,0.522,0.409,0.774l-1.479,1.371
				c0.31,0.496,0.646,0.97,1.018,1.418l1.793-0.933c0.188,0.215,0.386,0.425,0.593,0.626l-1.056,1.722
				c0.43,0.395,0.886,0.762,1.362,1.098l1.474-1.383c0.238,0.156,0.48,0.304,0.73,0.441l-0.547,1.944
				c0.519,0.264,1.053,0.498,1.608,0.694l1.043-1.729c0.271,0.084,0.544,0.16,0.819,0.226l-0.005,2.02
				c0.566,0.115,1.15,0.193,1.738,0.233l0.541-1.945c0.143,0.003,0.282,0.007,0.425,0.007c0.142,0,0.283-0.004,0.424-0.007
				l0.539,1.945c0.591-0.041,1.171-0.119,1.737-0.233l-0.004-2.02c0.275-0.066,0.551-0.142,0.818-0.226l1.044,1.729
				c0.556-0.196,1.091-0.43,1.608-0.694l-0.548-1.944c0.25-0.137,0.494-0.285,0.731-0.441l1.473,1.383
				c0.479-0.335,0.934-0.703,1.363-1.098l-1.055-1.722c0.205-0.201,0.402-0.411,0.592-0.626l1.797,0.933
				c0.367-0.448,0.704-0.922,1.015-1.418l-1.477-1.371c0.146-0.252,0.281-0.511,0.405-0.774l1.98,0.416
				c0.231-0.528,0.43-1.073,0.592-1.633l-1.793-0.922c0.074-0.287,0.136-0.577,0.188-0.869L528.174-307.621z M514.726-305.429
				c-2.259,0-4.089-1.832-4.089-4.089c0-2.259,1.83-4.089,4.089-4.089c2.257,0,4.091,1.83,4.091,4.089
				C518.816-307.261,516.982-305.429,514.726-305.429z"/>
		</g>
		<g>
			<path fill="#4777BB" d="M429.517-335.938c-6.062,0-10.978,4.915-10.978,10.978s4.916,10.979,10.978,10.979
				c6.063,0,10.979-4.916,10.979-10.979S435.58-335.938,429.517-335.938z M429.517-315.479c-5.229,0-9.48-4.254-9.48-9.481
				c0-5.228,4.252-9.479,9.48-9.479s9.479,4.251,9.479,9.479S434.745-315.479,429.517-315.479z"/>
			<path fill="#4777BB" d="M465.636-319.861c0.206-1.517,0.326-3.065,0.346-4.638l-5.301-1.086
				c-0.019-0.814-0.065-1.618-0.145-2.416l5.122-1.806c-0.211-1.544-0.515-3.061-0.908-4.54l-5.399,0.382
				c-0.238-0.788-0.509-1.564-0.806-2.324l4.443-3.119c-0.614-1.418-1.316-2.788-2.101-4.104l-5.098,1.824
				c-0.447-0.702-0.927-1.382-1.427-2.042l3.435-4.2c-0.969-1.189-2.012-2.319-3.119-3.376l-4.413,3.133
				c-0.63-0.559-1.275-1.093-1.947-1.6l2.18-4.973c-1.254-0.877-2.557-1.679-3.914-2.399l-3.404,4.208
				c-0.758-0.37-1.531-0.71-2.325-1.02l0.752-5.371c-1.428-0.501-2.901-0.916-4.403-1.239l-2.149,4.974
				c-0.827-0.151-1.672-0.264-2.521-0.345l-0.727-5.369c-0.76-0.048-1.52-0.074-2.288-0.074c-0.771,0-1.529,0.026-2.287,0.074
				l-0.729,5.369c-0.849,0.081-1.688,0.194-2.521,0.345l-2.147-4.974c-1.504,0.323-2.974,0.738-4.403,1.239l0.75,5.371
				c-0.791,0.309-1.567,0.65-2.323,1.02l-3.408-4.208c-1.354,0.72-2.661,1.521-3.908,2.401l2.174,4.97
				c-0.668,0.507-1.315,1.041-1.94,1.6l-4.416-3.133c-1.111,1.057-2.152,2.187-3.123,3.377l3.435,4.199
				c-0.499,0.661-0.978,1.34-1.425,2.042l-5.096-1.824c-0.782,1.316-1.485,2.687-2.1,4.104l4.44,3.119
				c-0.297,0.76-0.566,1.536-0.805,2.324l-5.398-0.382c-0.396,1.479-0.699,2.996-0.907,4.54l5.119,1.806
				c-0.075,0.797-0.125,1.602-0.144,2.416l-5.3,1.086c0.02,1.573,0.136,3.121,0.347,4.638l5.417,0.356
				c0.136,0.788,0.303,1.566,0.499,2.333l-4.813,2.478c0.438,1.505,0.973,2.969,1.593,4.387l5.313-1.117
				c0.34,0.707,0.708,1.401,1.1,2.078l-3.967,3.685c0.829,1.328,1.738,2.601,2.727,3.808l4.814-2.508
				c0.509,0.581,1.039,1.14,1.592,1.683l-2.826,4.619c1.151,1.06,2.373,2.048,3.652,2.952l3.959-3.714
				c0.637,0.419,1.295,0.816,1.965,1.186l-1.477,5.219c1.391,0.71,2.836,1.333,4.32,1.863l2.809-4.643
				c0.723,0.229,1.456,0.433,2.201,0.61l-0.016,5.42c1.522,0.307,3.083,0.521,4.67,0.63l1.448-5.228
				c0.378,0.013,0.756,0.023,1.139,0.023c0.378,0,0.759-0.011,1.136-0.023l1.45,5.228c1.589-0.109,3.146-0.323,4.67-0.63
				l-0.012-5.42c0.742-0.179,1.474-0.382,2.196-0.61l2.809,4.643c1.485-0.53,2.93-1.152,4.319-1.863l-1.475-5.219
				c0.669-0.369,1.324-0.765,1.962-1.186l3.96,3.714c1.282-0.904,2.503-1.892,3.656-2.952l-2.828-4.621
				c0.549-0.541,1.082-1.101,1.59-1.681l4.814,2.508c0.989-1.208,1.899-2.48,2.727-3.808l-3.967-3.685
				c0.395-0.676,0.76-1.371,1.103-2.078l5.313,1.117c0.62-1.418,1.151-2.882,1.591-4.387l-4.813-2.478
				c0.193-0.767,0.363-1.545,0.499-2.333L465.636-319.861z M429.517-313.981c-6.062,0-10.978-4.916-10.978-10.979
				s4.916-10.978,10.978-10.978c6.063,0,10.979,4.915,10.979,10.978S435.58-313.981,429.517-313.981z"/>
		</g>
		<g>
			<path fill="#4777BB" d="M591.06-227.244c-1.515,0-2.736,1.221-2.736,2.735c0,1.508,1.223,2.732,2.736,2.732
				c1.511,0,2.732-1.225,2.732-2.732C593.792-226.023,592.57-227.244,591.06-227.244z M591.06-222.15
				c-1.306,0-2.361-1.06-2.361-2.359c0-1.306,1.057-2.363,2.361-2.363c1.301,0,2.358,1.057,2.358,2.363
				C593.418-223.209,592.36-222.15,591.06-222.15z"/>
			<path fill="#4777BB" d="M600.053-223.239c0.055-0.382,0.084-0.764,0.086-1.156l-1.32-0.273c-0.004-0.2-0.016-0.398-0.033-0.599
				l1.273-0.452c-0.051-0.384-0.128-0.76-0.227-1.132l-1.346,0.097c-0.058-0.196-0.123-0.391-0.197-0.576l1.104-0.781
				c-0.152-0.351-0.325-0.694-0.521-1.021l-1.271,0.455c-0.109-0.174-0.231-0.343-0.354-0.508l0.854-1.049
				c-0.236-0.293-0.499-0.574-0.773-0.838l-1.103,0.781c-0.153-0.141-0.314-0.273-0.483-0.401l0.543-1.237
				c-0.313-0.221-0.637-0.419-0.974-0.595l-0.85,1.043c-0.19-0.089-0.382-0.178-0.58-0.25l0.187-1.336
				c-0.355-0.126-0.724-0.231-1.097-0.314l-0.533,1.239c-0.206-0.037-0.416-0.066-0.629-0.084l-0.18-1.336
				c-0.191-0.012-0.379-0.021-0.569-0.021c-0.193,0-0.382,0.008-0.573,0.021l-0.181,1.336c-0.213,0.019-0.421,0.047-0.628,0.084
				l-0.537-1.239c-0.374,0.083-0.736,0.188-1.095,0.314l0.188,1.336c-0.199,0.072-0.394,0.161-0.581,0.25l-0.85-1.043
				c-0.337,0.175-0.661,0.374-0.973,0.595l0.543,1.237c-0.17,0.128-0.33,0.26-0.485,0.401l-1.101-0.781
				c-0.277,0.264-0.537,0.545-0.779,0.838l0.855,1.049c-0.124,0.165-0.242,0.334-0.354,0.508l-1.27-0.455
				c-0.195,0.326-0.368,0.669-0.523,1.021l1.107,0.781c-0.074,0.186-0.142,0.38-0.202,0.576l-1.345-0.097
				c-0.097,0.372-0.175,0.748-0.224,1.132l1.273,0.452c-0.019,0.201-0.028,0.399-0.037,0.599l-1.319,0.273
				c0.004,0.392,0.032,0.774,0.085,1.156l1.354,0.089c0.033,0.194,0.072,0.389,0.124,0.579l-1.2,0.62
				c0.109,0.374,0.241,0.737,0.396,1.09l1.32-0.277c0.086,0.178,0.181,0.347,0.277,0.517l-0.989,0.917
				c0.206,0.331,0.435,0.646,0.68,0.948l1.198-0.626c0.128,0.149,0.26,0.287,0.396,0.419l-0.703,1.154
				c0.287,0.265,0.594,0.51,0.909,0.733l0.986-0.925c0.159,0.103,0.324,0.202,0.49,0.295l-0.368,1.299
				c0.346,0.177,0.704,0.334,1.076,0.467l0.698-1.157c0.18,0.054,0.362,0.105,0.547,0.15l-0.004,1.351
				c0.383,0.074,0.769,0.128,1.165,0.155l0.358-1.301c0.096,0.004,0.192,0.008,0.287,0.008c0.091,0,0.188-0.004,0.278-0.008
				l0.364,1.301c0.392-0.027,0.781-0.081,1.161-0.155v-1.351c0.184-0.045,0.366-0.097,0.547-0.15l0.697,1.157
				c0.372-0.132,0.731-0.29,1.075-0.467l-0.367-1.299c0.166-0.093,0.33-0.192,0.49-0.295l0.984,0.925
				c0.317-0.223,0.624-0.469,0.911-0.733l-0.702-1.154c0.137-0.132,0.269-0.271,0.393-0.419l1.202,0.626
				c0.245-0.302,0.473-0.618,0.679-0.948l-0.987-0.917c0.097-0.169,0.188-0.339,0.271-0.517l1.326,0.277
				c0.155-0.353,0.287-0.717,0.394-1.09l-1.195-0.62c0.047-0.19,0.091-0.384,0.124-0.579L600.053-223.239z M591.06-221.776
				c-1.515,0-2.736-1.225-2.736-2.732c0-1.514,1.223-2.735,2.736-2.735c1.511,0,2.732,1.221,2.732,2.735
				C593.792-223.001,592.57-221.776,591.06-221.776z"/>
		</g>
		<g>
			<path fill="#4777BB" d="M286.868-236.03c-4.238,0-7.675,3.431-7.675,7.671c0,4.238,3.437,7.673,7.675,7.673
				c4.235,0,7.672-3.435,7.672-7.673C294.54-232.599,291.104-236.03,286.868-236.03z M286.868-221.733
				c-3.656,0-6.627-2.974-6.627-6.626s2.971-6.628,6.627-6.628c3.651,0,6.625,2.977,6.625,6.628S290.52-221.733,286.868-221.733z"/>
			<path fill="#4777BB" d="M312.108-224.796c0.146-1.06,0.228-2.142,0.24-3.241l-3.704-0.76c-0.011-0.57-0.047-1.132-0.101-1.686
				l3.581-1.264c-0.148-1.081-0.359-2.14-0.635-3.175l-3.774,0.269c-0.165-0.552-0.353-1.095-0.562-1.627l3.104-2.175
				c-0.43-0.991-0.92-1.95-1.467-2.872l-3.563,1.279c-0.313-0.493-0.646-0.969-0.996-1.429l2.399-2.938
				c-0.677-0.83-1.405-1.62-2.181-2.361l-3.086,2.192c-0.438-0.392-0.893-0.765-1.358-1.119l1.521-3.473
				c-0.873-0.616-1.785-1.175-2.732-1.677l-2.379,2.941c-0.532-0.259-1.072-0.498-1.627-0.714l0.523-3.754
				c-0.998-0.351-2.024-0.641-3.078-0.866l-1.5,3.476c-0.578-0.104-1.168-0.183-1.764-0.241l-0.505-3.752
				c-0.532-0.033-1.063-0.052-1.601-0.052c-0.538,0-1.07,0.019-1.6,0.052l-0.508,3.752c-0.596,0.058-1.184,0.136-1.764,0.241
				l-1.5-3.476c-1.053,0.225-2.08,0.515-3.081,0.868l0.524,3.752c-0.552,0.216-1.095,0.455-1.623,0.714l-2.383-2.941
				c-0.947,0.502-1.857,1.062-2.73,1.677l1.521,3.473c-0.469,0.354-0.923,0.729-1.358,1.119l-3.086-2.192
				c-0.777,0.741-1.506,1.531-2.183,2.363l2.4,2.935c-0.353,0.46-0.685,0.937-0.998,1.429l-3.56-1.279
				c-0.547,0.922-1.041,1.881-1.469,2.872l3.105,2.175c-0.211,0.533-0.398,1.076-0.564,1.627l-3.773-0.269
				c-0.274,1.035-0.487,2.094-0.633,3.175l3.578,1.264c-0.054,0.554-0.087,1.116-0.1,1.686l-3.705,0.76
				c0.012,1.099,0.094,2.181,0.242,3.241l3.785,0.25c0.096,0.549,0.212,1.095,0.35,1.632l-3.365,1.733
				c0.307,1.051,0.68,2.071,1.113,3.063l3.714-0.783c0.237,0.498,0.495,0.981,0.769,1.452l-2.771,2.576
				c0.578,0.93,1.213,1.818,1.904,2.663l3.364-1.756c0.354,0.409,0.728,0.802,1.113,1.18l-1.978,3.228
				c0.807,0.74,1.659,1.43,2.554,2.062l2.766-2.594c0.446,0.291,0.906,0.57,1.375,0.828l-1.033,3.648
				c0.974,0.496,1.982,0.929,3.021,1.299l1.964-3.243c0.506,0.161,1.02,0.302,1.538,0.425l-0.012,3.788
				c1.065,0.217,2.155,0.364,3.265,0.44l1.016-3.651c0.264,0.008,0.527,0.016,0.795,0.016c0.264,0,0.527-0.008,0.793-0.016
				l1.014,3.651c1.107-0.076,2.197-0.223,3.262-0.44l-0.008-3.788c0.52-0.124,1.031-0.264,1.536-0.425l1.962,3.243
				c1.039-0.37,2.049-0.803,3.02-1.299l-1.029-3.648c0.467-0.258,0.925-0.537,1.372-0.828l2.767,2.594
				c0.896-0.632,1.75-1.322,2.553-2.062l-1.975-3.228c0.385-0.378,0.758-0.771,1.113-1.18l3.364,1.756
				c0.688-0.845,1.326-1.733,1.902-2.663l-2.77-2.576c0.272-0.471,0.528-0.954,0.767-1.452l3.713,0.783
				c0.437-0.992,0.808-2.012,1.113-3.063l-3.363-1.733c0.138-0.537,0.254-1.083,0.351-1.632L312.108-224.796z M286.868-220.686
				c-4.238,0-7.675-3.435-7.675-7.673c0-4.24,3.437-7.671,7.675-7.671c4.235,0,7.672,3.431,7.672,7.671
				C294.54-224.121,291.104-220.686,286.868-220.686z"/>
		</g>
		<g>
			<path fill="#4777BB" d="M505.795-243.931v-10.774l-11.354-3.164c-0.517-2.987-1.293-5.884-2.326-8.659l8.219-8.429l-5.412-9.316
				l-11.414,2.978c-1.756-2.092-3.685-4.032-5.769-5.809l3.047-11.396l-9.272-5.474l-8.485,8.163
				c-2.873-1.081-5.875-1.897-8.976-2.435l-3.162-11.359h-10.768l-3.16,11.359c-2.865,0.499-5.653,1.229-8.328,2.196l-8.369-8.275
				l-9.352,5.342l2.892,11.422c-2.105,1.75-4.057,3.675-5.851,5.739l-11.37-3.13l-5.541,9.237l8.104,8.551
				c-1.146,2.971-2.011,6.081-2.57,9.296l-11.357,3.172v10.766l11.357,3.161c0.521,2.984,1.295,5.892,2.323,8.674l-8.217,8.423
				l5.41,9.313l11.409-2.973c1.766,2.09,3.697,4.03,5.777,5.804l-3.046,11.395l9.27,5.474l8.486-8.167
				c2.877,1.084,5.875,1.905,8.971,2.439l3.164,11.352h10.771l3.163-11.352c2.861-0.498,5.646-1.229,8.324-2.204l8.371,8.289
				l9.352-5.345l-2.889-11.433c2.105-1.741,4.049-3.666,5.843-5.734l11.381,3.133l5.53-9.234l-8.106-8.553
				c1.152-2.977,2.014-6.076,2.576-9.302L505.795-243.931z M445.508-210.41c-21.484,0-38.901-17.42-38.901-38.911
				c0-21.486,17.417-38.909,38.901-38.909c21.482,0,38.907,17.422,38.907,38.909C484.416-227.83,466.991-210.41,445.508-210.41z"/>
			<path fill="#4777BB" d="M445.508-288.23c-21.484,0-38.901,17.422-38.901,38.909c0,21.491,17.417,38.911,38.901,38.911
				c21.482,0,38.907-17.42,38.907-38.911C484.416-270.808,466.991-288.23,445.508-288.23z M445.508-212.343
				c-20.385,0-36.975-16.582-36.975-36.979c0-20.384,16.59-36.976,36.975-36.976c20.396,0,36.979,16.592,36.979,36.976
				C482.487-228.925,465.905-212.343,445.508-212.343z"/>
			<path fill="#4777BB" d="M445.508-283.099c-18.625,0-33.776,15.155-33.776,33.778c0,18.632,15.151,33.783,33.776,33.783
				c18.626,0,33.783-15.15,33.783-33.783C479.292-267.944,464.134-283.099,445.508-283.099z M445.508-216.046
				c-18.371,0-33.27-14.898-33.27-33.275c0-18.372,14.897-33.272,33.27-33.272c18.379,0,33.277,14.901,33.277,33.272
				C478.786-230.945,463.887-216.046,445.508-216.046z"/>
			<path fill="#4777BB" d="M445.508-282.594c-18.371,0-33.27,14.901-33.27,33.272c0,18.376,14.897,33.275,33.27,33.275
				c18.379,0,33.277-14.898,33.277-33.275C478.786-267.693,463.887-282.594,445.508-282.594z"/>
		</g>
		<g>
			<path fill="#4777BB" d="M614.111-333.875v-7.028l-7.409-2.063c-0.334-1.947-0.84-3.837-1.514-5.648l5.358-5.498l-3.529-6.077
				l-7.445,1.944c-1.143-1.365-2.402-2.63-3.761-3.789l1.985-7.434l-6.052-3.569l-5.531,5.323c-1.874-0.704-3.831-1.237-5.852-1.588
				l-2.065-7.41h-7.021l-2.063,7.41c-1.867,0.325-3.685,0.8-5.434,1.432l-5.459-5.396l-6.099,3.482l1.889,7.452
				c-1.374,1.14-2.646,2.397-3.817,3.743l-7.417-2.042l-3.614,6.024l5.289,5.577c-0.75,1.938-1.314,3.968-1.679,6.063l-7.405,2.068
				v7.024l7.405,2.06c0.339,1.949,0.845,3.845,1.519,5.657l-5.359,5.497l3.53,6.072l7.438-1.938c1.15,1.365,2.41,2.629,3.771,3.786
				l-1.989,7.434l6.048,3.57l5.531-5.326c1.877,0.707,3.832,1.239,5.854,1.591l2.063,7.403h7.023l2.063-7.403
				c1.869-0.328,3.687-0.805,5.433-1.439l5.459,5.407l6.101-3.489l-1.884-7.453c1.374-1.137,2.64-2.394,3.806-3.742l7.426,2.043
				l3.61-6.024l-5.29-5.577c0.754-1.939,1.313-3.966,1.68-6.069L614.111-333.875z M574.791-312.013
				c-14.017,0-25.379-11.364-25.379-25.378c0-14.015,11.362-25.377,25.379-25.377c14.01,0,25.372,11.362,25.372,25.377
				C600.163-323.377,588.8-312.013,574.791-312.013z"/>
			<path fill="#4777BB" d="M574.791-362.769c-14.017,0-25.379,11.362-25.379,25.377c0,14.014,11.362,25.378,25.379,25.378
				c14.01,0,25.372-11.364,25.372-25.378S588.8-362.769,574.791-362.769z M574.791-313.275c-13.3,0-24.121-10.814-24.121-24.116
				c0-13.296,10.821-24.118,24.121-24.118c13.298,0,24.116,10.821,24.116,24.118C598.907-324.089,588.088-313.275,574.791-313.275z"
				/>
			<path fill="#4777BB" d="M574.791-359.423c-12.153,0-22.034,9.885-22.034,22.032c0,12.15,9.881,22.032,22.034,22.032
				c12.145,0,22.03-9.882,22.03-22.032C596.821-349.538,586.935-359.423,574.791-359.423z M574.791-315.69
				c-11.988,0-21.704-9.718-21.704-21.701c0-11.984,9.716-21.704,21.704-21.704c11.981,0,21.7,9.72,21.7,21.704
				C596.491-325.408,586.771-315.69,574.791-315.69z"/>
			<path fill="#4777BB" d="M574.791-359.095c-11.988,0-21.704,9.72-21.704,21.704c0,11.983,9.716,21.701,21.704,21.701
				c11.981,0,21.7-9.718,21.7-21.701C596.491-349.375,586.771-359.095,574.791-359.095z"/>
		</g>
		<path fill="#4777BB" d="M386.92-212.851v-6.409l-6.759-1.886c-0.308-1.776-0.771-3.501-1.384-5.153l4.893-5.017l-3.221-5.544
			l-6.797,1.77c-1.043-1.246-2.191-2.398-3.431-3.458l1.813-6.781l-5.521-3.26l-5.049,4.858c-1.711-0.645-3.498-1.128-5.343-1.448
			l-1.883-6.762h-6.408l-1.88,6.762c-1.705,0.297-3.364,0.73-4.959,1.308l-4.98-4.926l-5.564,3.179l1.721,6.8
			c-1.253,1.039-2.413,2.185-3.482,3.416l-6.767-1.863l-3.299,5.496l4.825,5.091c-0.685,1.766-1.198,3.619-1.53,5.531l-6.76,1.89
			v6.405l6.76,1.881c0.309,1.778,0.77,3.509,1.384,5.166l-4.893,5.013l3.223,5.54l6.789-1.766c1.05,1.246,2.2,2.398,3.438,3.454
			l-1.813,6.785l5.52,3.257l5.049-4.862c1.712,0.646,3.496,1.134,5.341,1.454l1.883,6.756h6.41l1.883-6.756
			c1.704-0.301,3.361-0.735,4.955-1.315l4.983,4.934l5.564-3.181l-1.722-6.804c1.255-1.037,2.41-2.183,3.478-3.417l6.774,1.865
			l3.294-5.496l-4.826-5.087c0.688-1.77,1.195-3.619,1.532-5.54L386.92-212.851z M351.039-192.899
			c-12.79,0-23.156-10.371-23.156-23.158c0-12.789,10.366-23.158,23.156-23.158c12.786,0,23.155,10.369,23.155,23.158
			C374.194-203.27,363.825-192.899,351.039-192.899z"/>
		<path fill="#4777BB" d="M351.039-239.215c-12.79,0-23.156,10.369-23.156,23.158c0,12.788,10.366,23.158,23.156,23.158
			c12.786,0,23.155-10.371,23.155-23.158C374.194-228.846,363.825-239.215,351.039-239.215z M351.039-194.049
			c-12.136,0-22.008-9.867-22.008-22.008c0-12.134,9.872-22.009,22.008-22.009c12.138,0,22.009,9.875,22.009,22.009
			C373.047-203.916,363.176-194.049,351.039-194.049z"/>
		<path fill="#4777BB" d="M351.039-236.162c-11.087,0-20.107,9.018-20.107,20.105c0,11.085,9.021,20.105,20.107,20.105
			c11.085,0,20.105-9.02,20.105-20.105C371.145-227.145,362.124-236.162,351.039-236.162z M351.039-196.253
			c-10.937,0-19.804-8.869-19.804-19.804c0-10.937,8.867-19.806,19.804-19.806s19.805,8.869,19.805,19.806
			C370.843-205.122,361.975-196.253,351.039-196.253z"/>
		<path fill="#4777BB" d="M351.039-235.863c-10.937,0-19.804,8.869-19.804,19.806c0,10.935,8.867,19.804,19.804,19.804
			s19.805-8.869,19.805-19.804C370.843-226.994,361.975-235.863,351.039-235.863z"/>
	</g>
</g>
<g id="Capa_3">
</g>
</svg>
