<?xml version="1.0" encoding="utf-8"?>
<!-- Generator: Adobe Illustrator 15.0.2, SVG Export Plug-In . SVG Version: 6.00 Build 0)  -->
<!DOCTYPE svg PUBLIC "-//W3C//DTD SVG 1.1//EN" "http://www.w3.org/Graphics/SVG/1.1/DTD/svg11.dtd">
<svg version="1.1" id="Capa_1" xmlns="http://www.w3.org/2000/svg" xmlns:xlink="http://www.w3.org/1999/xlink" x="0px" y="0px"
	 width="600px" height="340px" viewBox="-120 20 600 340" enable-background="new -120 20 600 340" xml:space="preserve">
<g id="Capa_1_1_">
	<g>
		<polyline fill="#83A4D4" points="72.863,77.863 72.863,51.226 79.332,51.226 79.332,77.863 72.863,77.863 		"/>
		<polyline fill="#83A4D4" points="43,60.958 48.587,57.731 61.914,80.805 56.308,84.033 43,60.958 		"/>
		<polygon fill="#83A4D4" points="25.218,78.724 21.985,84.323 45.056,97.642 48.288,92.042 		"/>
		<polygon fill="#83A4D4" points="15.481,108.591 15.481,115.059 42.121,115.059 42.121,108.591 		"/>
		<polyline fill="#83A4D4" points="21.985,139.334 45.062,126.024 48.306,131.612 25.229,144.938 21.985,139.334 		"/>
		<polyline fill="#83A4D4" points="43,162.709 56.308,139.633 61.914,142.876 48.587,165.933 43,162.709 		"/>
		<polyline fill="#83A4D4" points="72.863,172.442 72.863,145.804 79.332,145.804 79.332,172.442 72.863,172.442 		"/>
		<polyline fill="#83A4D4" points="90.279,142.876 95.885,139.633 109.195,162.709 103.605,165.933 90.279,142.876 		"/>
		<polyline fill="#83A4D4" points="103.905,131.63 107.132,126.024 130.208,139.334 126.964,144.938 103.905,131.63 		"/>
		<polygon fill="#83A4D4" points="136.695,115.063 136.695,108.595 110.061,108.595 110.061,115.059 		"/>
		<polygon fill="#83A4D4" points="130.192,84.323 126.96,78.724 103.892,92.042 107.124,97.642 		"/>
		<polyline fill="#83A4D4" points="90.279,80.805 103.605,57.731 109.212,60.958 95.885,84.033 90.279,80.805 		"/>
		<path fill="#83A4D4" d="M50.226,111.797c0-14.262,11.618-25.861,25.878-25.861c14.245,0,25.862,11.6,25.862,25.861
			c0,14.262-11.617,25.861-25.862,25.861C61.844,137.658,50.226,126.059,50.226,111.797 M56.694,111.797
			c0,10.701,8.71,19.41,19.41,19.41c10.683,0,19.393-8.709,19.393-19.41c0-10.7-8.71-19.392-19.393-19.392
			C65.404,92.404,56.694,101.096,56.694,111.797"/>
	</g>
	<path fill="#4777BB" d="M141.32,231.7v-18.604c0,0,50.987,6.894,61.32-44.78c0,0-38.581-19.984-66.829,24.113
		c0,0-17.917-37.206-64.766-26.872c0,0,7.235,54.084,59.251,48.574V231.7H66.222l4.822,34.45h7.923l9.646,69.584h40.65v-8.611
		c0,0,4.822-9.647,9.646-0.346l0.668,8.957h40.991l9.669-67.862h9.645l5.49-36.173L141.32,231.7 M190.238,172.448
		c-12.4,33.071-47.54,31.693-47.54,31.693C154.065,170.036,190.238,172.448,190.238,172.448 M84.48,175.203
		c28.592-3.1,44.784,29.284,44.784,29.284C97.914,206.898,84.48,175.203,84.48,175.203 M172.41,325.747h-22.995
		c-0.258-5.426-3.616-14.986-16.018-14.986s-14.728,14.986-14.728,14.986H97.226l-8.266-59.685h91.201L172.41,325.747
		 M190.581,257.537H80.344l-2.065-16.189h114.37L190.581,257.537z"/>
	<g>
		<g>
			<path fill="#4777BB" d="M224.485,150.4v43.89h79.609V150.4H224.485z M237.193,176.736c-2.031,0-7.822-0.728-7.872-6.442h5.515
				c0,0.451,0.074,0.852,0.2,1.177c0.402,1.079,1.605,1.304,2.632,1.304c0.902,0,2.281-0.301,2.281-1.63
				c0-0.928-0.777-1.178-3.861-2.056c-2.831-0.802-6.067-1.579-6.067-5.189c0-4.137,3.536-5.916,7.221-5.916
				c3.885,0,7.319,1.479,7.471,5.84h-5.214c0.099-0.677-0.203-1.127-0.653-1.429c-0.45-0.326-1.076-0.451-1.629-0.451
				c-0.751,0-1.979,0.2-1.979,1.204c0.101,1.277,2.657,1.555,5.188,2.255c2.532,0.702,5.038,1.88,5.038,5.164
				C245.464,175.232,241.176,176.736,237.193,176.736z M251.672,176.31h-5.213v-4.963h5.213V176.31z M265.318,176.31l-0.751-2.557
				h-5.689l-0.803,2.557h-5.54l6.593-17.897h5.388l6.517,17.897H265.318z M277.188,176.31h-5.213v-4.963h5.213V176.31z
				 M285.98,176.736c-2.031,0-7.821-0.728-7.872-6.442h5.515c0,0.451,0.075,0.852,0.201,1.177c0.401,1.079,1.605,1.304,2.631,1.304
				c0.902,0,2.282-0.301,2.282-1.63c0-0.928-0.778-1.178-3.862-2.056c-2.832-0.802-6.066-1.579-6.066-5.189
				c0-4.137,3.535-5.916,7.22-5.916c3.886,0,7.319,1.479,7.47,5.84h-5.214c0.101-0.677-0.201-1.127-0.652-1.429
				c-0.45-0.326-1.076-0.451-1.628-0.451c-0.752,0-1.979,0.2-1.979,1.204c0.1,1.277,2.657,1.555,5.188,2.255
				c2.53,0.702,5.037,1.88,5.037,5.164C294.251,175.232,289.965,176.736,285.98,176.736z M300.459,176.31h-5.213v-4.963h5.213
				V176.31z"/>
			<polygon fill="#4777BB" points="261.813,164.403 260.081,169.918 263.465,169.918 261.859,164.403 			"/>
		</g>
		<rect x="310.922" y="140.898" fill="#4777BB" width="11.27" height="43.167"/>
		<path fill="#4777BB" d="M202.337,182.407v100.328h46.822v-41.401h30.261v41.401h46.821V182.407H202.337z M231.495,260.495h-17.678
			v-19.161h17.678V260.495L231.495,260.495z M231.495,213.451h-17.678V194.29h17.678V213.451L231.495,213.451z M273.13,213.451
			h-17.679V194.29h17.679V213.451z M314.763,260.495h-17.679v-19.161h17.679V260.495L314.763,260.495z M314.763,213.451h-17.679
			V194.29h17.679V213.451L314.763,213.451z"/>
	</g>
</g>
<g id="Capa_2" display="none">
	<g display="inline">
		<g>
			<path fill="#4777BB" d="M-838.967-151.587c-6.469,0-11.711,5.242-11.711,11.713c0,6.467,5.242,11.711,11.711,11.711
				c6.469,0,11.711-5.244,11.711-11.711C-827.256-146.345-832.499-151.587-838.967-151.587z M-838.967-129.761
				c-5.578,0-10.115-4.534-10.115-10.113c0-5.577,4.537-10.112,10.115-10.112c5.577,0,10.115,4.536,10.115,10.112
				C-828.852-134.295-833.39-129.761-838.967-129.761z"/>
			<path fill="#4777BB" d="M-800.436-134.434c0.226-1.621,0.349-3.271,0.369-4.947l-5.654-1.161
				c-0.019-0.868-0.07-1.729-0.152-2.578l5.463-1.927c-0.223-1.648-0.547-3.266-0.969-4.844l-5.76,0.409
				c-0.253-0.841-0.54-1.669-0.859-2.48l4.74-3.326c-0.655-1.516-1.405-2.979-2.242-4.381l-5.435,1.946
				c-0.477-0.75-0.986-1.475-1.521-2.179l3.663-4.482c-1.034-1.268-2.146-2.473-3.331-3.6l-4.711,3.344
				c-0.666-0.597-1.357-1.167-2.074-1.706l2.321-5.306c-1.331-0.936-2.723-1.793-4.169-2.559l-3.635,4.488
				c-0.81-0.393-1.637-0.758-2.481-1.088l0.804-5.729c-1.525-0.535-3.094-0.979-4.702-1.322l-2.288,5.309
				c-0.887-0.159-1.786-0.283-2.695-0.37l-0.771-5.729c-0.81-0.049-1.622-0.079-2.441-0.079c-0.82,0-1.633,0.029-2.441,0.079
				l-0.771,5.729c-0.912,0.087-1.811,0.211-2.696,0.37l-2.287-5.309c-1.608,0.343-3.175,0.787-4.702,1.322l0.801,5.729
				c-0.842,0.331-1.67,0.696-2.479,1.088l-3.635-4.488c-1.447,0.766-2.839,1.624-4.17,2.559l2.319,5.306
				c-0.714,0.539-1.405,1.109-2.073,1.706l-4.711-3.344c-1.186,1.127-2.295,2.332-3.33,3.602l3.664,4.482
				c-0.534,0.703-1.045,1.427-1.521,2.177l-5.436-1.946c-0.834,1.402-1.585,2.865-2.24,4.381l4.738,3.326
				c-0.316,0.812-0.604,1.64-0.859,2.48l-5.758-0.409c-0.423,1.578-0.748,3.195-0.968,4.844l5.462,1.927
				c-0.082,0.849-0.135,1.71-0.152,2.578l-5.652,1.161c0.018,1.675,0.141,3.326,0.366,4.947l5.778,0.38
				c0.146,0.838,0.325,1.668,0.533,2.491l-5.135,2.642c0.469,1.605,1.037,3.167,1.699,4.676l5.668-1.189
				c0.363,0.754,0.754,1.493,1.171,2.216l-4.229,3.933c0.883,1.415,1.855,2.776,2.908,4.064l5.137-2.681
				c0.543,0.618,1.109,1.216,1.696,1.795l-3.015,4.934c1.231,1.126,2.533,2.181,3.898,3.146l4.223-3.959
				c0.684,0.444,1.381,0.867,2.098,1.26l-1.578,5.569c1.486,0.76,3.026,1.419,4.611,1.987l2.994-4.951
				c0.771,0.242,1.556,0.457,2.348,0.646l-0.016,5.784c1.625,0.328,3.289,0.556,4.982,0.677l1.547-5.583
				c0.401,0.019,0.807,0.027,1.213,0.027c0.406,0,0.811-0.008,1.213-0.027l1.548,5.583c1.692-0.122,3.354-0.349,4.981-0.677
				l-0.018-5.784c0.796-0.19,1.576-0.405,2.35-0.646l2.992,4.951c1.588-0.568,3.127-1.227,4.611-1.987l-1.575-5.569
				c0.715-0.393,1.413-0.816,2.097-1.26l4.222,3.959c1.368-0.965,2.67-2.02,3.899-3.146l-3.014-4.934
				c0.586-0.579,1.152-1.177,1.695-1.795l5.136,2.681c1.054-1.289,2.026-2.65,2.907-4.064l-4.229-3.933
				c0.418-0.723,0.809-1.462,1.172-2.216l5.668,1.189c0.661-1.51,1.23-3.071,1.698-4.676l-5.134-2.642
				c0.207-0.822,0.387-1.652,0.534-2.491L-800.436-134.434z M-838.967-128.163c-6.469,0-11.711-5.244-11.711-11.711
				c0-6.471,5.242-11.713,11.711-11.713c6.469,0,11.711,5.242,11.711,11.713C-827.256-133.407-832.499-128.163-838.967-128.163z"/>
		</g>
		<g>
			<path fill="#4777BB" d="M-562.561-267.114v-4.237l-4.465-1.246c-0.203-1.173-0.513-2.314-0.916-3.405l3.232-3.315l-2.127-3.665
				l-4.492,1.172c-0.688-0.823-1.448-1.587-2.266-2.285l1.195-4.482l-3.647-2.153l-3.336,3.209c-1.13-0.424-2.31-0.747-3.53-0.957
				l-1.245-4.469h-4.231l-1.246,4.469c-1.128,0.196-2.223,0.483-3.275,0.863l-3.293-3.255l-3.676,2.102l1.138,4.492
				c-0.831,0.689-1.597,1.446-2.304,2.257l-4.469-1.231l-2.18,3.633l3.189,3.362c-0.453,1.17-0.793,2.394-1.014,3.657l-4.469,1.248
				v4.235l4.469,1.244c0.203,1.173,0.51,2.315,0.914,3.41l-3.232,3.314l2.13,3.662l4.486-1.168c0.694,0.821,1.454,1.583,2.27,2.281
				l-1.198,4.484l3.648,2.152l3.34-3.213c1.131,0.426,2.307,0.748,3.525,0.961l1.246,4.462h4.236l1.24-4.462
				c1.129-0.199,2.223-0.485,3.278-0.868l3.29,3.258l3.679-2.103l-1.136-4.495c0.83-0.688,1.595-1.444,2.297-2.257l4.479,1.232
				l2.174-3.631l-3.188-3.364c0.454-1.17,0.793-2.391,1.015-3.658L-562.561-267.114z M-586.272-253.932
				c-8.451,0-15.302-6.851-15.302-15.302c0-8.451,6.851-15.304,15.302-15.304c8.447,0,15.299,6.853,15.299,15.304
				C-570.973-260.783-577.825-253.932-586.272-253.932z"/>
			<path fill="#4777BB" d="M-586.272-284.538c-8.451,0-15.302,6.853-15.302,15.304c0,8.451,6.851,15.302,15.302,15.302
				c8.447,0,15.299-6.851,15.299-15.302C-570.973-277.685-577.825-284.538-586.272-284.538z M-586.272-254.689
				c-8.021,0-14.546-6.523-14.546-14.544c0-8.017,6.524-14.544,14.546-14.544c8.018,0,14.543,6.527,14.543,14.544
				C-571.729-261.212-578.254-254.689-586.272-254.689z"/>
			<path fill="#4777BB" d="M-586.272-282.521c-7.327,0-13.288,5.962-13.288,13.288c0,7.327,5.961,13.285,13.288,13.285
				c7.323,0,13.287-5.958,13.287-13.285C-572.985-276.559-578.949-282.521-586.272-282.521z M-586.272-256.147
				c-7.228,0-13.088-5.86-13.088-13.086s5.86-13.087,13.088-13.087c7.229,0,13.088,5.861,13.088,13.087
				S-579.043-256.147-586.272-256.147z"/>
			<path fill="#4777BB" d="M-586.272-282.32c-7.228,0-13.088,5.861-13.088,13.087s5.86,13.086,13.088,13.086
				c7.229,0,13.088-5.86,13.088-13.086S-579.043-282.32-586.272-282.32z"/>
		</g>
		<g>
			<path fill="#4777BB" d="M-739.377-137.077v-4.236l-4.465-1.246c-0.203-1.173-0.513-2.313-0.915-3.404l3.232-3.317l-2.128-3.664
				l-4.492,1.173c-0.688-0.824-1.447-1.588-2.266-2.285l1.195-4.482l-3.646-2.154l-3.336,3.21c-1.131-0.424-2.31-0.746-3.53-0.957
				l-1.245-4.47h-4.232l-1.246,4.47c-1.127,0.194-2.223,0.483-3.275,0.863l-3.293-3.255l-3.676,2.101l1.138,4.492
				c-0.83,0.69-1.597,1.446-2.303,2.258l-4.47-1.231l-2.18,3.633l3.189,3.363c-0.452,1.169-0.793,2.392-1.014,3.656l-4.468,1.248
				v4.234l4.468,1.245c0.204,1.173,0.51,2.315,0.915,3.41l-3.233,3.313l2.131,3.665l4.485-1.169c0.694,0.822,1.454,1.583,2.271,2.28
				l-1.198,4.486l3.647,2.152l3.34-3.214c1.132,0.425,2.307,0.748,3.525,0.962l1.246,4.461h4.236l1.241-4.461
				c1.128-0.2,2.223-0.487,3.278-0.868l3.29,3.257l3.679-2.103l-1.137-4.495c0.83-0.688,1.595-1.443,2.297-2.257l4.479,1.231
				l2.175-3.631l-3.189-3.362c0.454-1.169,0.794-2.392,1.015-3.658L-739.377-137.077z M-763.088-123.894
				c-8.45,0-15.301-6.851-15.301-15.303c0-8.45,6.851-15.303,15.301-15.303c8.447,0,15.299,6.853,15.299,15.303
				C-747.79-130.745-754.641-123.894-763.088-123.894z"/>
			<path fill="#4777BB" d="M-763.088-154.5c-8.45,0-15.301,6.853-15.301,15.303c0,8.452,6.851,15.303,15.301,15.303
				c8.447,0,15.299-6.851,15.299-15.303C-747.79-147.646-754.641-154.5-763.088-154.5z M-763.088-124.651
				c-8.021,0-14.545-6.523-14.545-14.545c0-8.016,6.524-14.543,14.545-14.543c8.018,0,14.543,6.527,14.543,14.543
				C-748.545-131.174-755.071-124.651-763.088-124.651z"/>
			<path fill="#4777BB" d="M-763.088-152.481c-7.326,0-13.287,5.961-13.287,13.285c0,7.328,5.961,13.285,13.287,13.285
				c7.324,0,13.287-5.957,13.287-13.285C-749.801-146.521-755.764-152.481-763.088-152.481z M-763.088-126.11
				c-7.228,0-13.087-5.859-13.087-13.086c0-7.225,5.859-13.087,13.087-13.087c7.229,0,13.089,5.862,13.089,13.087
				C-750-131.969-755.86-126.11-763.088-126.11z"/>
			<path fill="#4777BB" d="M-763.088-152.283c-7.228,0-13.087,5.862-13.087,13.087c0,7.227,5.859,13.086,13.087,13.086
				c7.229,0,13.089-5.859,13.089-13.086C-750-146.421-755.86-152.283-763.088-152.283z"/>
		</g>
		<g>
			<path fill="#4777BB" d="M-622.146-313.607c-2.259,0-4.089,1.83-4.089,4.089c0,2.257,1.83,4.089,4.089,4.089
				c2.256,0,4.09-1.832,4.09-4.089C-618.056-311.777-619.89-313.607-622.146-313.607z M-622.146-305.988
				c-1.948,0-3.534-1.583-3.534-3.531c0-1.947,1.586-3.532,3.534-3.532s3.53,1.585,3.53,3.532
				C-618.616-307.571-620.198-305.988-622.146-305.988z"/>
			<path fill="#4777BB" d="M-608.698-307.621c0.078-0.563,0.122-1.141,0.131-1.727l-1.973-0.404c-0.009-0.304-0.027-0.605-0.057-0.9
				l1.911-0.672c-0.081-0.576-0.196-1.14-0.339-1.692l-2.014,0.144c-0.087-0.294-0.186-0.583-0.297-0.867l1.654-1.161
				c-0.229-0.526-0.494-1.038-0.783-1.529l-1.9,0.682c-0.165-0.263-0.341-0.517-0.529-0.763l1.279-1.563
				c-0.359-0.442-0.75-0.863-1.161-1.258l-1.646,1.168c-0.234-0.209-0.474-0.408-0.724-0.597l0.808-1.852
				c-0.463-0.327-0.947-0.625-1.454-0.892l-1.269,1.566c-0.282-0.138-0.572-0.264-0.865-0.381l0.279-2
				c-0.533-0.188-1.08-0.342-1.639-0.461l-0.801,1.852c-0.31-0.055-0.626-0.097-0.941-0.129l-0.268-1.998
				c-0.282-0.018-0.565-0.027-0.853-0.027s-0.571,0.009-0.853,0.027l-0.271,1.998c-0.315,0.032-0.631,0.075-0.941,0.129
				l-0.795-1.852c-0.564,0.12-1.111,0.273-1.646,0.461l0.281,2c-0.295,0.117-0.584,0.243-0.867,0.381l-1.269-1.566
				c-0.502,0.267-0.991,0.565-1.454,0.892l0.808,1.852c-0.25,0.189-0.487,0.388-0.724,0.597l-1.642-1.168
				c-0.415,0.395-0.806,0.815-1.165,1.258l1.279,1.563c-0.188,0.247-0.363,0.5-0.529,0.763l-1.9-0.682
				c-0.289,0.492-0.549,1.003-0.78,1.529l1.656,1.161c-0.113,0.285-0.213,0.573-0.302,0.867l-2.01-0.144
				c-0.146,0.552-0.26,1.116-0.338,1.692l1.906,0.672c-0.029,0.295-0.048,0.597-0.055,0.9l-1.972,0.404
				c0.006,0.585,0.052,1.163,0.128,1.727l2.016,0.134c0.052,0.292,0.113,0.582,0.188,0.869l-1.792,0.922
				c0.161,0.561,0.359,1.105,0.591,1.633l1.98-0.416c0.126,0.263,0.265,0.522,0.409,0.774l-1.478,1.371
				c0.309,0.496,0.646,0.97,1.017,1.418l1.793-0.933c0.188,0.215,0.386,0.425,0.593,0.626l-1.056,1.722
				c0.43,0.395,0.886,0.762,1.363,1.098l1.473-1.383c0.239,0.156,0.481,0.304,0.731,0.441l-0.547,1.944
				c0.518,0.264,1.053,0.498,1.608,0.694l1.043-1.729c0.272,0.084,0.544,0.16,0.82,0.226l-0.005,2.02
				c0.566,0.115,1.15,0.193,1.738,0.233l0.541-1.945c0.143,0.003,0.282,0.007,0.425,0.007c0.141,0,0.283-0.004,0.424-0.007
				l0.539,1.945c0.591-0.041,1.171-0.119,1.737-0.233l-0.004-2.02c0.276-0.066,0.551-0.142,0.819-0.226l1.043,1.729
				c0.556-0.196,1.091-0.43,1.609-0.694l-0.548-1.944c0.25-0.137,0.494-0.285,0.731-0.441l1.473,1.383
				c0.479-0.335,0.934-0.703,1.363-1.098l-1.054-1.722c0.205-0.201,0.402-0.411,0.591-0.626l1.797,0.933
				c0.368-0.448,0.704-0.922,1.015-1.418l-1.477-1.371c0.146-0.252,0.282-0.511,0.406-0.774l1.98,0.416
				c0.232-0.528,0.43-1.073,0.592-1.633l-1.793-0.922c0.074-0.287,0.136-0.577,0.188-0.869L-608.698-307.621z M-622.146-305.429
				c-2.259,0-4.089-1.832-4.089-4.089c0-2.259,1.83-4.089,4.089-4.089c2.256,0,4.09,1.83,4.09,4.089
				C-618.056-307.261-619.89-305.429-622.146-305.429z"/>
		</g>
		<g>
			<path fill="#4777BB" d="M-707.355-335.938c-6.062,0-10.978,4.915-10.978,10.978s4.916,10.979,10.978,10.979
				c6.063,0,10.978-4.916,10.978-10.979S-701.292-335.938-707.355-335.938z M-707.355-315.479c-5.229,0-9.481-4.254-9.481-9.481
				c0-5.228,4.252-9.479,9.481-9.479c5.228,0,9.479,4.251,9.479,9.479S-702.127-315.479-707.355-315.479z"/>
			<path fill="#4777BB" d="M-671.236-319.861c0.206-1.517,0.326-3.065,0.345-4.638l-5.3-1.086c-0.019-0.814-0.066-1.618-0.145-2.416
				l5.122-1.806c-0.211-1.544-0.514-3.061-0.908-4.54l-5.399,0.382c-0.239-0.788-0.509-1.564-0.806-2.324l4.443-3.119
				c-0.614-1.418-1.316-2.788-2.1-4.104l-5.098,1.824c-0.447-0.702-0.927-1.382-1.427-2.042l3.435-4.2
				c-0.969-1.189-2.012-2.319-3.119-3.376l-4.413,3.133c-0.63-0.559-1.276-1.093-1.948-1.6l2.18-4.973
				c-1.254-0.877-2.557-1.679-3.914-2.399l-3.404,4.208c-0.758-0.37-1.532-0.71-2.326-1.02l0.752-5.371
				c-1.427-0.501-2.901-0.916-4.403-1.239l-2.149,4.974c-0.828-0.151-1.672-0.264-2.521-0.345l-0.726-5.369
				c-0.76-0.048-1.52-0.074-2.288-0.074c-0.771,0-1.53,0.026-2.288,0.074l-0.728,5.369c-0.849,0.081-1.689,0.194-2.522,0.345
				l-2.147-4.974c-1.504,0.323-2.974,0.738-4.403,1.239l0.75,5.371c-0.791,0.309-1.568,0.65-2.324,1.02l-3.408-4.208
				c-1.354,0.72-2.661,1.521-3.908,2.401l2.174,4.97c-0.668,0.507-1.316,1.041-1.941,1.6l-4.416-3.133
				c-1.111,1.057-2.152,2.187-3.123,3.377l3.435,4.199c-0.499,0.661-0.978,1.34-1.425,2.042l-5.096-1.824
				c-0.782,1.316-1.485,2.687-2.099,4.104l4.44,3.119c-0.297,0.76-0.566,1.536-0.805,2.324l-5.398-0.382
				c-0.396,1.479-0.699,2.996-0.907,4.54l5.119,1.806c-0.075,0.797-0.125,1.602-0.144,2.416l-5.299,1.086
				c0.019,1.573,0.135,3.121,0.346,4.638l5.417,0.356c0.136,0.788,0.303,1.566,0.499,2.333l-4.813,2.478
				c0.438,1.505,0.973,2.969,1.593,4.387l5.313-1.117c0.34,0.707,0.708,1.401,1.1,2.078l-3.967,3.685
				c0.829,1.328,1.738,2.601,2.727,3.808l4.814-2.508c0.509,0.581,1.039,1.14,1.592,1.683l-2.826,4.619
				c1.151,1.06,2.373,2.048,3.652,2.952l3.959-3.714c0.637,0.419,1.295,0.816,1.965,1.186l-1.477,5.219
				c1.391,0.71,2.836,1.333,4.32,1.863l2.809-4.643c0.723,0.229,1.456,0.433,2.201,0.61l-0.015,5.42
				c1.522,0.307,3.083,0.521,4.67,0.63l1.448-5.228c0.378,0.013,0.756,0.023,1.138,0.023c0.378,0,0.759-0.011,1.136-0.023
				l1.45,5.228c1.589-0.109,3.146-0.323,4.67-0.63l-0.011-5.42c0.742-0.179,1.473-0.382,2.196-0.61l2.808,4.643
				c1.486-0.53,2.93-1.152,4.32-1.863l-1.475-5.219c0.669-0.369,1.324-0.765,1.962-1.186l3.96,3.714
				c1.282-0.904,2.503-1.892,3.656-2.952l-2.828-4.621c0.549-0.541,1.082-1.101,1.59-1.681l4.814,2.508
				c0.99-1.208,1.9-2.48,2.727-3.808l-3.967-3.685c0.395-0.676,0.76-1.371,1.103-2.078l5.313,1.117
				c0.62-1.418,1.152-2.882,1.591-4.387l-4.813-2.478c0.193-0.767,0.363-1.545,0.499-2.333L-671.236-319.861z M-707.355-313.981
				c-6.062,0-10.978-4.916-10.978-10.979s4.916-10.978,10.978-10.978c6.063,0,10.978,4.915,10.978,10.978
				S-701.292-313.981-707.355-313.981z"/>
		</g>
		<g>
			<path fill="#4777BB" d="M-545.812-227.244c-1.515,0-2.737,1.221-2.737,2.735c0,1.508,1.223,2.732,2.737,2.732
				c1.51,0,2.732-1.225,2.732-2.732C-543.08-226.023-544.302-227.244-545.812-227.244z M-545.812-222.15
				c-1.306,0-2.362-1.06-2.362-2.359c0-1.306,1.057-2.363,2.362-2.363c1.3,0,2.358,1.057,2.358,2.363
				C-543.454-223.209-544.512-222.15-545.812-222.15z"/>
			<path fill="#4777BB" d="M-536.819-223.239c0.054-0.382,0.084-0.764,0.086-1.156l-1.321-0.273c-0.004-0.2-0.015-0.398-0.033-0.599
				l1.274-0.452c-0.051-0.384-0.128-0.76-0.227-1.132l-1.346,0.097c-0.057-0.196-0.123-0.391-0.197-0.576l1.104-0.781
				c-0.153-0.351-0.326-0.694-0.521-1.021l-1.271,0.455c-0.11-0.174-0.232-0.343-0.355-0.508l0.854-1.049
				c-0.237-0.293-0.499-0.574-0.774-0.838l-1.102,0.781c-0.154-0.141-0.315-0.273-0.484-0.401l0.543-1.237
				c-0.313-0.221-0.637-0.419-0.973-0.595l-0.85,1.043c-0.191-0.089-0.382-0.178-0.58-0.25l0.186-1.336
				c-0.355-0.126-0.723-0.231-1.096-0.314l-0.533,1.239c-0.207-0.037-0.416-0.066-0.629-0.084l-0.18-1.336
				c-0.191-0.012-0.379-0.021-0.569-0.021c-0.194,0-0.382,0.008-0.574,0.021l-0.18,1.336c-0.213,0.019-0.421,0.047-0.628,0.084
				l-0.537-1.239c-0.374,0.083-0.737,0.188-1.095,0.314l0.188,1.336c-0.199,0.072-0.393,0.161-0.581,0.25l-0.849-1.043
				c-0.337,0.175-0.661,0.374-0.973,0.595l0.543,1.237c-0.17,0.128-0.33,0.26-0.485,0.401l-1.101-0.781
				c-0.277,0.264-0.537,0.545-0.779,0.838l0.855,1.049c-0.124,0.165-0.242,0.334-0.354,0.508l-1.27-0.455
				c-0.195,0.326-0.368,0.669-0.523,1.021l1.107,0.781c-0.074,0.186-0.141,0.38-0.202,0.576l-1.345-0.097
				c-0.096,0.372-0.174,0.748-0.223,1.132l1.273,0.452c-0.018,0.201-0.028,0.399-0.037,0.599l-1.319,0.273
				c0.004,0.392,0.032,0.774,0.085,1.156l1.353,0.089c0.033,0.194,0.072,0.389,0.124,0.579l-1.2,0.62
				c0.109,0.374,0.241,0.737,0.396,1.09l1.321-0.277c0.086,0.178,0.18,0.347,0.277,0.517l-0.989,0.917
				c0.206,0.331,0.434,0.646,0.68,0.948l1.198-0.626c0.128,0.149,0.26,0.287,0.396,0.419l-0.703,1.154
				c0.287,0.265,0.594,0.51,0.909,0.733l0.987-0.925c0.159,0.103,0.324,0.202,0.49,0.295l-0.368,1.299
				c0.345,0.177,0.704,0.334,1.076,0.467l0.698-1.157c0.18,0.054,0.363,0.105,0.547,0.15l-0.004,1.351
				c0.383,0.074,0.769,0.128,1.165,0.155l0.359-1.301c0.095,0.004,0.192,0.008,0.287,0.008c0.091,0,0.188-0.004,0.278-0.008
				l0.364,1.301c0.392-0.027,0.782-0.081,1.161-0.155v-1.351c0.184-0.045,0.367-0.097,0.547-0.15l0.698,1.157
				c0.372-0.132,0.731-0.29,1.075-0.467l-0.367-1.299c0.166-0.093,0.33-0.192,0.49-0.295l0.984,0.925
				c0.318-0.223,0.624-0.469,0.911-0.733l-0.702-1.154c0.137-0.132,0.269-0.271,0.393-0.419l1.202,0.626
				c0.245-0.302,0.473-0.618,0.679-0.948l-0.988-0.917c0.097-0.169,0.188-0.339,0.271-0.517l1.326,0.277
				c0.155-0.353,0.287-0.717,0.393-1.09l-1.195-0.62c0.047-0.19,0.091-0.384,0.124-0.579L-536.819-223.239z M-545.812-221.776
				c-1.515,0-2.737-1.225-2.737-2.732c0-1.514,1.223-2.735,2.737-2.735c1.51,0,2.732,1.221,2.732,2.735
				C-543.08-223.001-544.302-221.776-545.812-221.776z"/>
		</g>
		<g>
			<path fill="#4777BB" d="M-850.004-236.03c-4.238,0-7.675,3.431-7.675,7.671c0,4.238,3.437,7.673,7.675,7.673
				c4.236,0,7.672-3.435,7.672-7.673C-842.333-232.599-845.768-236.03-850.004-236.03z M-850.004-221.733
				c-3.656,0-6.627-2.974-6.627-6.626s2.971-6.628,6.627-6.628c3.652,0,6.625,2.977,6.625,6.628S-846.352-221.733-850.004-221.733z"
				/>
			<path fill="#4777BB" d="M-824.764-224.796c0.146-1.06,0.228-2.142,0.241-3.241l-3.704-0.76c-0.011-0.57-0.047-1.132-0.101-1.686
				l3.581-1.264c-0.148-1.081-0.359-2.14-0.635-3.175l-3.774,0.269c-0.165-0.552-0.353-1.095-0.562-1.627l3.104-2.175
				c-0.43-0.991-0.92-1.95-1.467-2.872l-3.563,1.279c-0.313-0.493-0.646-0.969-0.995-1.429l2.399-2.938
				c-0.677-0.83-1.406-1.62-2.181-2.361l-3.086,2.192c-0.438-0.392-0.892-0.765-1.358-1.119l1.52-3.473
				c-0.873-0.616-1.785-1.175-2.732-1.677l-2.379,2.941c-0.532-0.259-1.072-0.498-1.627-0.714l0.524-3.754
				c-0.999-0.351-2.025-0.641-3.079-0.866l-1.5,3.476c-0.578-0.104-1.168-0.183-1.763-0.241l-0.505-3.752
				c-0.533-0.033-1.064-0.052-1.6-0.052c-0.539,0-1.071,0.019-1.6,0.052l-0.508,3.752c-0.596,0.058-1.184,0.136-1.764,0.241
				l-1.5-3.476c-1.053,0.225-2.08,0.515-3.081,0.868l0.525,3.752c-0.552,0.216-1.095,0.455-1.624,0.714l-2.382-2.941
				c-0.948,0.502-1.858,1.062-2.731,1.677l1.521,3.473c-0.469,0.354-0.923,0.729-1.359,1.119l-3.086-2.192
				c-0.777,0.741-1.505,1.531-2.182,2.363l2.4,2.935c-0.352,0.46-0.684,0.937-0.998,1.429l-3.559-1.279
				c-0.548,0.922-1.041,1.881-1.469,2.872l3.105,2.175c-0.21,0.533-0.398,1.076-0.564,1.627l-3.773-0.269
				c-0.275,1.035-0.488,2.094-0.633,3.175l3.577,1.264c-0.053,0.554-0.086,1.116-0.099,1.686l-3.705,0.76
				c0.012,1.099,0.094,2.181,0.242,3.241l3.785,0.25c0.096,0.549,0.212,1.095,0.35,1.632l-3.365,1.733
				c0.307,1.051,0.68,2.071,1.113,3.063l3.714-0.783c0.237,0.498,0.495,0.981,0.769,1.452l-2.771,2.576
				c0.578,0.93,1.213,1.818,1.904,2.663l3.364-1.756c0.355,0.409,0.728,0.802,1.113,1.18l-1.977,3.228
				c0.807,0.74,1.659,1.43,2.554,2.062l2.766-2.594c0.446,0.291,0.906,0.57,1.375,0.828l-1.033,3.648
				c0.973,0.496,1.982,0.929,3.02,1.299l1.964-3.243c0.505,0.161,1.019,0.302,1.538,0.425l-0.012,3.788
				c1.066,0.217,2.156,0.364,3.265,0.44l1.015-3.651c0.264,0.008,0.528,0.016,0.795,0.016c0.264,0,0.528-0.008,0.793-0.016
				l1.014,3.651c1.107-0.076,2.197-0.223,3.262-0.44l-0.008-3.788c0.52-0.124,1.031-0.264,1.536-0.425l1.962,3.243
				c1.039-0.37,2.049-0.803,3.021-1.299l-1.03-3.648c0.467-0.258,0.925-0.537,1.372-0.828l2.766,2.594
				c0.896-0.632,1.751-1.322,2.554-2.062l-1.975-3.228c0.384-0.378,0.757-0.771,1.113-1.18l3.364,1.756
				c0.689-0.845,1.327-1.733,1.903-2.663l-2.77-2.576c0.273-0.471,0.528-0.954,0.767-1.452l3.713,0.783
				c0.436-0.992,0.807-2.012,1.113-3.063l-3.363-1.733c0.137-0.537,0.254-1.083,0.35-1.632L-824.764-224.796z M-850.004-220.686
				c-4.238,0-7.675-3.435-7.675-7.673c0-4.24,3.437-7.671,7.675-7.671c4.236,0,7.672,3.431,7.672,7.671
				C-842.333-224.121-845.768-220.686-850.004-220.686z"/>
		</g>
		<g>
			<path fill="#4777BB" d="M-631.077-243.931v-10.774l-11.354-3.164c-0.516-2.987-1.293-5.884-2.326-8.659l8.219-8.429l-5.412-9.316
				l-11.414,2.978c-1.756-2.092-3.685-4.032-5.769-5.809l3.047-11.396l-9.272-5.474l-8.486,8.163
				c-2.873-1.081-5.875-1.897-8.975-2.435l-3.162-11.359h-10.768l-3.16,11.359c-2.865,0.499-5.653,1.229-8.328,2.196l-8.369-8.275
				l-9.352,5.342l2.892,11.422c-2.106,1.75-4.057,3.675-5.851,5.739l-11.37-3.13l-5.541,9.237l8.104,8.551
				c-1.146,2.971-2.01,6.081-2.57,9.296l-11.357,3.172v10.766l11.357,3.161c0.521,2.984,1.295,5.892,2.323,8.674l-8.216,8.423
				l5.41,9.313l11.409-2.973c1.765,2.09,3.697,4.03,5.777,5.804l-3.046,11.395l9.27,5.474l8.486-8.167
				c2.877,1.084,5.875,1.905,8.971,2.439l3.164,11.352h10.77l3.164-11.352c2.861-0.498,5.645-1.229,8.324-2.204l8.371,8.289
				l9.351-5.345l-2.888-11.433c2.105-1.741,4.049-3.666,5.842-5.734l11.381,3.133l5.531-9.234l-8.107-8.553
				c1.152-2.977,2.014-6.076,2.576-9.302L-631.077-243.931z M-691.364-210.41c-21.485,0-38.902-17.42-38.902-38.911
				c0-21.486,17.417-38.909,38.902-38.909c21.482,0,38.907,17.422,38.907,38.909C-652.457-227.83-669.881-210.41-691.364-210.41z"/>
			<path fill="#4777BB" d="M-691.364-288.23c-21.485,0-38.902,17.422-38.902,38.909c0,21.491,17.417,38.911,38.902,38.911
				c21.482,0,38.907-17.42,38.907-38.911C-652.457-270.808-669.881-288.23-691.364-288.23z M-691.364-212.343
				c-20.385,0-36.975-16.582-36.975-36.979c0-20.384,16.59-36.976,36.975-36.976c20.396,0,36.979,16.592,36.979,36.976
				C-654.385-228.925-670.967-212.343-691.364-212.343z"/>
			<path fill="#4777BB" d="M-691.364-283.099c-18.625,0-33.777,15.155-33.777,33.778c0,18.632,15.152,33.783,33.777,33.783
				c18.626,0,33.783-15.15,33.783-33.783C-657.581-267.944-672.738-283.099-691.364-283.099z M-691.364-216.046
				c-18.371,0-33.27-14.898-33.27-33.275c0-18.372,14.898-33.272,33.27-33.272c18.379,0,33.277,14.901,33.277,33.272
				C-658.086-230.945-672.985-216.046-691.364-216.046z"/>
			<path fill="#4777BB" d="M-691.364-282.594c-18.371,0-33.27,14.901-33.27,33.272c0,18.376,14.898,33.275,33.27,33.275
				c18.379,0,33.277-14.898,33.277-33.275C-658.086-267.693-672.985-282.594-691.364-282.594z"/>
		</g>
		<g>
			<path fill="#4777BB" d="M-522.761-333.875v-7.028l-7.409-2.063c-0.334-1.947-0.84-3.837-1.514-5.648l5.359-5.498l-3.529-6.077
				l-7.446,1.944c-1.142-1.365-2.402-2.63-3.761-3.789l1.986-7.434l-6.052-3.569l-5.531,5.323c-1.874-0.704-3.831-1.237-5.852-1.588
				l-2.065-7.41h-7.021l-2.063,7.41c-1.867,0.325-3.685,0.8-5.434,1.432l-5.459-5.396l-6.098,3.482l1.888,7.452
				c-1.374,1.14-2.646,2.397-3.817,3.743l-7.417-2.042l-3.614,6.024l5.289,5.577c-0.75,1.938-1.315,3.968-1.679,6.063l-7.405,2.068
				v7.024l7.405,2.06c0.339,1.949,0.845,3.845,1.519,5.657l-5.36,5.497l3.53,6.072l7.439-1.938c1.15,1.365,2.41,2.629,3.77,3.786
				l-1.989,7.434l6.048,3.57l5.531-5.326c1.877,0.707,3.832,1.239,5.854,1.591l2.063,7.403h7.024l2.062-7.403
				c1.869-0.328,3.687-0.805,5.433-1.439l5.459,5.407l6.1-3.489l-1.883-7.453c1.374-1.137,2.639-2.394,3.805-3.742l7.426,2.043
				l3.61-6.024l-5.29-5.577c0.754-1.939,1.313-3.966,1.68-6.069L-522.761-333.875z M-562.082-312.013
				c-14.017,0-25.379-11.364-25.379-25.378c0-14.015,11.362-25.377,25.379-25.377c14.01,0,25.372,11.362,25.372,25.377
				C-536.709-323.377-548.072-312.013-562.082-312.013z"/>
			<path fill="#4777BB" d="M-562.082-362.769c-14.017,0-25.379,11.362-25.379,25.377c0,14.014,11.362,25.378,25.379,25.378
				c14.01,0,25.372-11.364,25.372-25.378C-536.709-351.406-548.072-362.769-562.082-362.769z M-562.082-313.275
				c-13.3,0-24.121-10.814-24.121-24.116c0-13.296,10.821-24.118,24.121-24.118c13.298,0,24.116,10.821,24.116,24.118
				C-537.965-324.089-548.784-313.275-562.082-313.275z"/>
			<path fill="#4777BB" d="M-562.082-359.423c-12.153,0-22.034,9.885-22.034,22.032c0,12.15,9.881,22.032,22.034,22.032
				c12.145,0,22.03-9.882,22.03-22.032C-540.051-349.538-549.937-359.423-562.082-359.423z M-562.082-315.69
				c-11.988,0-21.704-9.718-21.704-21.701c0-11.984,9.716-21.704,21.704-21.704c11.981,0,21.7,9.72,21.7,21.704
				C-540.381-325.408-550.1-315.69-562.082-315.69z"/>
			<path fill="#4777BB" d="M-562.082-359.095c-11.988,0-21.704,9.72-21.704,21.704c0,11.983,9.716,21.701,21.704,21.701
				c11.981,0,21.7-9.718,21.7-21.701C-540.381-349.375-550.1-359.095-562.082-359.095z"/>
		</g>
		<path fill="#4777BB" d="M-749.952-212.851v-6.409l-6.759-1.886c-0.307-1.776-0.771-3.501-1.384-5.153l4.893-5.017l-3.221-5.544
			l-6.797,1.77c-1.043-1.246-2.191-2.398-3.43-3.458l1.813-6.781l-5.521-3.26l-5.049,4.858c-1.711-0.645-3.498-1.128-5.343-1.448
			l-1.883-6.762h-6.408l-1.88,6.762c-1.705,0.297-3.364,0.73-4.959,1.308l-4.98-4.926l-5.565,3.179l1.721,6.8
			c-1.253,1.039-2.413,2.185-3.482,3.416l-6.767-1.863l-3.299,5.496l4.825,5.091c-0.684,1.766-1.198,3.619-1.53,5.531l-6.76,1.89
			v6.405l6.76,1.881c0.309,1.778,0.77,3.509,1.384,5.166l-4.893,5.013l3.223,5.54l6.789-1.766c1.05,1.246,2.2,2.398,3.438,3.454
			l-1.813,6.785l5.519,3.257l5.049-4.862c1.712,0.646,3.496,1.134,5.341,1.454l1.883,6.756h6.41l1.883-6.756
			c1.704-0.301,3.361-0.735,4.955-1.315l4.983,4.934l5.565-3.181l-1.722-6.804c1.255-1.037,2.41-2.183,3.478-3.417l6.774,1.865
			l3.294-5.496l-4.826-5.087c0.687-1.77,1.195-3.619,1.532-5.54L-749.952-212.851z M-785.833-192.899
			c-12.79,0-23.156-10.371-23.156-23.158c0-12.789,10.366-23.158,23.156-23.158c12.786,0,23.155,10.369,23.155,23.158
			C-762.678-203.27-773.047-192.899-785.833-192.899z"/>
		<path fill="#4777BB" d="M-785.833-239.215c-12.79,0-23.156,10.369-23.156,23.158c0,12.788,10.366,23.158,23.156,23.158
			c12.786,0,23.155-10.371,23.155-23.158C-762.678-228.846-773.047-239.215-785.833-239.215z M-785.833-194.049
			c-12.136,0-22.008-9.867-22.008-22.008c0-12.134,9.872-22.009,22.008-22.009c12.138,0,22.009,9.875,22.009,22.009
			C-763.825-203.916-773.696-194.049-785.833-194.049z"/>
		<path fill="#4777BB" d="M-785.833-236.162c-11.087,0-20.107,9.018-20.107,20.105c0,11.085,9.021,20.105,20.107,20.105
			c11.085,0,20.106-9.02,20.106-20.105C-765.727-227.145-774.749-236.162-785.833-236.162z M-785.833-196.253
			c-10.936,0-19.804-8.869-19.804-19.804c0-10.937,8.868-19.806,19.804-19.806c10.937,0,19.805,8.869,19.805,19.806
			C-766.029-205.122-774.897-196.253-785.833-196.253z"/>
		<path fill="#4777BB" d="M-785.833-235.863c-10.936,0-19.804,8.869-19.804,19.806c0,10.935,8.868,19.804,19.804,19.804
			c10.937,0,19.805-8.869,19.805-19.804C-766.029-226.994-774.897-235.863-785.833-235.863z"/>
	</g>
</g>
<g id="Capa_3">
</g>
</svg>
