<?xml version="1.0" encoding="utf-8"?>
<!-- Generator: Adobe Illustrator 15.0.2, SVG Export Plug-In . SVG Version: 6.00 Build 0)  -->
<!DOCTYPE svg PUBLIC "-//W3C//DTD SVG 1.1//EN" "http://www.w3.org/Graphics/SVG/1.1/DTD/svg11.dtd">
<svg version="1.1" id="Capa_1" xmlns="http://www.w3.org/2000/svg" xmlns:xlink="http://www.w3.org/1999/xlink" x="0px" y="0px"
	 width="180px" height="150px" viewBox="0 0 180 150" enable-background="new 0 0 180 150" xml:space="preserve">
<g>
	<path fill="#4777BB" d="M111.275,41.186c-4.475-2.583-20.846-12.034-20.846-12.034s-16.369,9.452-20.846,12.034
		c-4.473,2.584-5.107,5.501-5.107,8.592c0,3.09,0,8.158,0,11.144c0,5.62,0.213,7.845,1.746,11.099
		c1.533,3.254,3.699,5.229,9.453,8.55c5.752,3.322,14.754,8.519,14.754,8.519s9.002-5.196,14.756-8.519
		c5.752-3.321,7.92-5.296,9.453-8.55c1.535-3.253,1.744-5.479,1.744-11.099c0-2.986,0.002-8.053,0.002-11.144
		C116.385,46.687,115.75,43.77,111.275,41.186z M110.824,56.012c0,2.224-1.303,5.309-3.936,6.823
		c-2.631,1.513-6.301,3.638-6.301,3.638L90.43,72.378l-0.563-0.324c0,0-6.32-3.669-8.453-4.899
		c-2.131-1.229-2.572-2.947-2.572-4.718c0-1.771,0-2.646,0-2.646l5.912,3.475l5.621,3.264l10.213-5.88c0,0,0.855-0.494,2.65-1.528
		c1.793-1.037,3.305-1.647,3.305-3.824c0-1.335-1.58-1.571-2.529-1.098l-13.639,7.827c0,0-8.982-5.181-11.613-6.699
		c-2.635-1.52-3.746-0.411-3.746,2.668v5.952c0,4.063,1.043,4.652,4.166,6.455c3.123,1.803,11.248,6.391,11.248,6.391
		s15.289-8.851,16.99-9.828c1.701-0.979,3.398-2.859,3.398-2.859s0.078,6.716-2.523,8.253c-2.604,1.539-17.904,10.357-17.904,10.357
		s-8.418-4.871-13.555-7.836c-5.135-2.965-6.879-4.559-6.879-13.205c0-3.468,0-3.096,0-6.172c0-1.996,1.377-4.42,3.678-5.477
		c2.926-1.344,6.373,0.128,6.373,0.128L90.391,56.2l10.371-6.046c2.744-1.595,5.727-0.894,7.176-0.234
		c1.402,0.638,2.887,2.395,2.887,4.242V56.012z M97.982,42.462c0,2.367-3.381,4.285-7.551,4.285c-4.172,0-7.551-1.918-7.551-4.285
		s3.379-4.286,7.551-4.286C94.602,38.176,97.982,40.095,97.982,42.462z"/>
	<g>
		<path fill="#4777BB" d="M43.826,111.166c0,0-2.707,0-4.746,0c-0.195-1.765,0.686-3.5,2.398-3.5c1.711,0,6.535,0,6.535,0v11.158
			c-0.436,0.262-0.975,0.502-1.619,0.721c-0.645,0.217-1.342,0.408-2.094,0.572c-0.754,0.162-1.539,0.289-2.355,0.377
			c-0.818,0.086-1.621,0.131-2.406,0.131c-1.658,0-3.125-0.131-4.402-0.395c-1.275-0.261-2.346-0.785-3.205-1.569
			c-0.863-0.785-1.518-1.899-1.965-3.338c-0.447-1.44-0.67-3.327-0.67-5.661c0-2.313,0.25-4.178,0.752-5.597
			c0.502-1.417,1.211-2.508,2.127-3.271c0.918-0.763,2.023-1.276,3.322-1.539c1.297-0.261,2.752-0.392,4.367-0.392
			c1.527,0,2.936,0.119,4.223,0.359c0.637,0.12,1.604,0.457,2.146,0.79c1.43,0.872,1.455,1.958,1.455,3.765
			c-0.924-0.314-2.535-0.848-4.527-1.15c-0.736-0.111-2.576-0.264-3.23-0.264c-0.895,0-1.723,0.063-2.486,0.182
			c-0.764,0.121-1.424,0.42-1.98,0.899c-0.555,0.479-0.992,1.205-1.309,2.177c-0.316,0.97-0.477,2.307-0.477,4.008
			c0,1.592,0.111,2.879,0.328,3.861c0.219,0.982,0.574,1.74,1.064,2.273c0.49,0.535,1.141,0.896,1.947,1.08
			c0.807,0.186,1.811,0.278,3.01,0.278c0.678,0,1.369-0.059,2.08-0.179c0.707-0.12,1.279-0.256,1.717-0.41V111.166z"/>
		<path fill="#4777BB" d="M54.309,111.2c0.064,1.286,0.221,2.323,0.473,3.108c0.25,0.785,0.627,1.391,1.129,1.816
			c0.502,0.424,1.135,0.715,1.898,0.867s1.701,0.229,2.814,0.229c0.654,0,1.326-0.061,2.014-0.18c0.686-0.12,1.34-0.262,1.963-0.426
			c0.621-0.163,1.188-0.332,1.701-0.508c0.512-0.173,1.73-0.614,2.07-0.813c0,0,0.264,0.601,0.174,2.313
			c-0.051,0.956-0.951,1.871-1.605,2.068c-0.656,0.195-1.359,0.37-2.111,0.523c-0.754,0.152-1.533,0.278-2.34,0.375
			c-0.807,0.101-1.594,0.148-2.355,0.148c-1.637,0-3.088-0.131-4.352-0.393c-1.268-0.263-2.336-0.78-3.207-1.555
			c-0.875-0.774-1.539-1.854-1.996-3.24c-0.459-1.385-0.688-3.211-0.688-5.481c0-2.354,0.244-4.265,0.736-5.728
			c0.49-1.459,1.176-2.595,2.061-3.402c0.885-0.807,1.93-1.352,3.141-1.635c1.211-0.284,2.547-0.426,4.01-0.426
			c1.57,0,2.961,0.152,4.172,0.458s2.229,0.856,3.059,1.653c0.83,0.796,1.553,1.872,1.813,3.275c0.258,1.42-0.098,3.716-0.666,4.671
			c-0.68,1.146-2.455,2.279-4.525,2.279C61.621,111.2,54.309,111.2,54.309,111.2z M62.918,107.666c1.861,0,2.238-1.342,2.074-2.541
			c-0.094-0.701-0.602-1.465-1.182-1.861c-0.477-0.327-1.084-0.604-1.715-0.736c-0.633-0.131-1.387-0.195-2.258-0.195
			c-0.766,0-1.467,0.039-2.111,0.115s-1.209,0.288-1.701,0.637c-0.492,0.35-0.885,0.885-1.18,1.604
			c-0.293,0.721-0.473,1.712-0.537,2.979C54.309,107.666,61.695,107.666,62.918,107.666z"/>
		<path fill="#4777BB" d="M118.432,111.2c0.064,1.286,0.225,2.323,0.475,3.108s0.627,1.391,1.129,1.816
			c0.502,0.424,1.135,0.715,1.898,0.867c0.762,0.152,1.701,0.229,2.814,0.229c0.654,0,1.324-0.061,2.012-0.18
			c0.688-0.12,1.342-0.262,1.963-0.426c0.623-0.163,1.189-0.332,1.703-0.508c0.512-0.173,1.73-0.614,2.07-0.813
			c0,0,0.264,0.601,0.174,2.313c-0.051,0.956-0.951,1.871-1.607,2.068c-0.654,0.195-1.357,0.37-2.111,0.523
			c-0.75,0.152-1.531,0.278-2.338,0.375c-0.809,0.101-1.594,0.148-2.355,0.148c-1.637,0-3.088-0.131-4.354-0.393
			c-1.266-0.263-2.336-0.78-3.207-1.555s-1.539-1.854-1.996-3.24c-0.459-1.385-0.686-3.211-0.686-5.481
			c0-2.354,0.244-4.265,0.736-5.728c0.49-1.459,1.176-2.595,2.061-3.402c0.885-0.807,1.93-1.352,3.143-1.635
			c1.209-0.284,2.545-0.426,4.008-0.426c1.57,0,2.961,0.152,4.172,0.458s2.23,0.856,3.061,1.653
			c0.828,0.796,1.551,1.872,1.809,3.275c0.26,1.42-0.096,3.716-0.664,4.671c-0.68,1.146-2.457,2.279-4.525,2.279
			S118.432,111.2,118.432,111.2z M127.041,107.666c1.863,0,2.24-1.342,2.076-2.541c-0.096-0.701-0.604-1.465-1.182-1.861
			c-0.477-0.327-1.082-0.604-1.715-0.736c-0.633-0.131-1.387-0.195-2.258-0.195c-0.764,0-1.469,0.039-2.111,0.115
			s-1.211,0.288-1.701,0.637c-0.49,0.35-0.883,0.885-1.178,1.604c-0.295,0.721-0.477,1.712-0.541,2.979
			C118.432,107.666,125.82,107.666,127.041,107.666z"/>
		<path fill="#4777BB" d="M71.201,120.296c0,0,0-19.026,0-21.007c2.111,0,4.32,1.033,4.32,2.984c0,1.949,0,18.022,0,18.022H71.201z"
			/>
		<path fill="#4777BB" d="M134.691,120.296V99.289h7.824c1.549,0,2.533,0.039,3.58,0.202c1.049,0.163,2.227,0.837,2.857,1.316
			c0.635,0.479,1.227,1.53,1.639,2.409c0.395,0.836,0.756,2.222,0.756,3.662c0,1.157-0.082,1.271-0.244,2.046
			c-0.164,0.775-0.74,1.358-1.121,1.872c-0.344,0.462-0.807,0.801-1.334,1.092c-0.057,0.033-0.115,0.065-0.174,0.098
			c1.26,0.744,1.617,1.12,2.111,2.014c0.383,0.69,0.381,1.826,0.381,3.066c0,0.537-0.014,1.238-0.031,1.859
			c-0.021,0.82,0.449,1.562,0.629,1.923c-2.725,0-4.896-0.34-4.896-2.052c0-0.418,0-0.887,0-1.365c0-1.487-0.092-2.641-0.311-3.09
			c-0.4-0.825-1.451-1.604-2.311-1.604s-5.035,0-5.035,0v7.558H134.691z M146.932,105.931c0-0.739-0.213-1.331-0.482-1.687
			c-0.244-0.32-0.576-0.737-0.988-1.012c-0.291-0.195-0.666-0.333-1.145-0.379c-0.48-0.042-1.059-0.064-1.734-0.064h-3.57v6.447
			h4.221c0.678,0,1.002-0.021,1.482-0.064c0.48-0.045,0.857-0.191,1.158-0.379c0.447-0.277,0.73-0.518,0.861-0.931
			c0.131-0.415,0.197-0.993,0.197-1.735V105.931z"/>
		<path fill="#4777BB" d="M85.932,116.762c0,0-0.93,0-1.736,0c-0.805,0-1.953,0.064-1.949-0.732
			c0.004-0.509,0.592-0.971,0.592-0.971l10.166-7.838c0,0,1.9-1.49,2.027-3.494c0.104-1.668-1.346-4.438-4.574-4.438
			c-1.09,0-6.693,0-9.693,0c-1.139,0-2.23,1.88-2.23,3.5c1.373,0,11.045,0,11.297,0c0.645,0,1.074,0.098,1.17,0.383
			c0.162,0.487-0.627,1.043-0.627,1.043l-8.896,6.83c0,0-0.99,0.766-1.977,1.801c-1.725,1.809-1.57,3.23-1.275,4.343
			c0.6,2.239,3.775,3.107,4.709,3.107c0.932,0,1.432,0,1.432,0s6.814,0,7.994,0s2.381-1.573,2.381-3.534
			C92.842,116.762,85.932,116.762,85.932,116.762z"/>
		<path fill="#4777BB" d="M103.645,116.762c0,0-0.93,0-1.736,0c-0.805,0-1.955,0.064-1.949-0.732
			c0.004-0.509,0.592-0.971,0.592-0.971l10.166-7.838c0,0,1.9-1.49,2.025-3.494c0.105-1.668-1.344-4.438-4.572-4.438
			c-1.09,0-6.693,0-9.693,0c-1.139,0-2.23,1.88-2.23,3.5c1.371,0,11.045,0,11.295,0c0.646,0,1.078,0.098,1.172,0.383
			c0.162,0.487-0.625,1.043-0.625,1.043l-8.898,6.83c0,0-0.99,0.766-1.977,1.801c-1.727,1.809-1.57,3.23-1.275,4.343
			c0.6,2.239,3.775,3.107,4.709,3.107c0.932,0,1.432,0,1.432,0s6.814,0,7.994,0s2.381-1.573,2.381-3.534
			C110.553,116.762,103.645,116.762,103.645,116.762z"/>
		<path fill="#4777BB" d="M63.654,88.752l-3.842,4.916c-0.918,1.181-0.068,2.848,1.211,3.841l3.842-4.916
			C65.783,91.412,64.932,89.746,63.654,88.752z"/>
	</g>
	<g>
		<g>
			<path fill="#4777BB" d="M115.725,30.028h-1.512v4.162h-0.959v-4.162h-1.512v-0.78h3.982V30.028z M119.479,32.75l1.344-3.502
				h1.379v4.941h-0.9v-3.862h-0.023l-1.475,3.862h-0.672l-1.477-3.862h-0.023v3.862h-0.898v-4.941h1.391L119.479,32.75z"/>
		</g>
	</g>
</g>
</svg>
