<?xml version="1.0" encoding="utf-8"?>
<!-- Generator: Adobe Illustrator 15.0.2, SVG Export Plug-In . SVG Version: 6.00 Build 0)  -->
<!DOCTYPE svg PUBLIC "-//W3C//DTD SVG 1.1//EN" "http://www.w3.org/Graphics/SVG/1.1/DTD/svg11.dtd">
<svg version="1.1" id="Capa_1" xmlns="http://www.w3.org/2000/svg" xmlns:xlink="http://www.w3.org/1999/xlink" x="0px" y="0px"
	 width="300px" height="300px" viewBox="0 0 300 300" enable-background="new 0 0 300 300" xml:space="preserve">
<g>
	<path fill="#FFFFFF" d="M186.138,92.075c-7.665-4.424-35.708-20.615-35.708-20.615s-28.041,16.191-35.709,20.615
		c-7.662,4.426-8.749,9.423-8.749,14.718c0,5.294,0,13.975,0,19.089c0,9.627,0.365,13.439,2.991,19.012
		c2.626,5.574,6.337,8.956,16.193,14.646c9.853,5.691,25.274,14.593,25.274,14.593s15.42-8.901,25.277-14.593
		c9.854-5.689,13.567-9.072,16.193-14.646c2.63-5.573,2.988-9.385,2.988-19.012c0-5.115,0.003-13.795,0.003-19.089
		C194.891,101.499,193.804,96.501,186.138,92.075z M185.365,117.473c0,3.81-2.231,9.094-6.741,11.688
		c-4.507,2.592-10.794,6.231-10.794,6.231l-17.401,10.116l-0.964-0.555c0,0-10.827-6.285-14.48-8.393
		c-3.65-2.106-4.406-5.048-4.406-8.083c0-3.033,0-4.533,0-4.533l10.127,5.953l9.629,5.592l17.495-10.072c0,0,1.466-0.846,4.54-2.618
		c3.071-1.776,5.661-2.821,5.661-6.551c0-2.288-2.707-2.691-4.333-1.88l-23.363,13.407c0,0-15.387-8.875-19.894-11.475
		c-4.513-2.603-6.417-0.705-6.417,4.57v10.195c0,6.959,1.787,7.969,7.136,11.058c5.35,3.088,19.269,10.947,19.269,10.947
		s26.19-15.161,29.104-16.835c2.915-1.678,5.822-4.897,5.822-4.897s0.134,11.505-4.323,14.139
		c-4.46,2.636-30.67,17.743-30.67,17.743s-14.42-8.345-23.22-13.423c-8.796-5.079-11.784-7.809-11.784-22.621
		c0-5.941,0-5.303,0-10.574c0-3.418,2.359-7.572,6.3-9.382c5.012-2.302,10.917,0.22,10.917,0.22l17.786,10.357l17.766-10.357
		c4.701-2.732,9.81-1.531,12.292-0.401c2.402,1.092,4.945,4.103,4.945,7.267V117.473z M163.367,94.262
		c0,4.055-5.792,7.34-12.935,7.34c-7.146,0-12.935-3.286-12.935-7.34c0-4.055,5.788-7.342,12.935-7.342
		C157.575,86.92,163.367,90.207,163.367,94.262z"/>
	<g>
		<path fill="#FFFFFF" d="M70.596,211.953c0,0-4.637,0-8.13,0c-0.334-3.022,1.174-5.995,4.108-5.995c2.931,0,11.195,0,11.195,0
			v19.114c-0.746,0.448-1.67,0.859-2.774,1.234c-1.104,0.371-2.298,0.699-3.586,0.98c-1.292,0.277-2.637,0.495-4.035,0.646
			c-1.402,0.147-2.777,0.224-4.122,0.224c-2.84,0-5.353-0.224-7.541-0.676c-2.185-0.446-4.019-1.345-5.491-2.688
			c-1.479-1.346-2.6-3.254-3.366-5.719c-0.766-2.467-1.147-5.699-1.147-9.697c0-3.961,0.428-7.156,1.288-9.587
			c0.86-2.428,2.074-4.296,3.644-5.604c1.572-1.307,3.466-2.187,5.691-2.637c2.222-0.446,4.714-0.671,7.481-0.671
			c2.616,0,5.028,0.204,7.233,0.616c1.091,0.206,2.747,0.783,3.677,1.354c2.449,1.493,2.493,3.354,2.493,6.448
			c-1.583-0.538-4.343-1.452-7.755-1.971c-1.261-0.19-4.413-0.451-5.534-0.451c-1.533,0-2.951,0.107-4.259,0.312
			c-1.308,0.207-2.439,0.719-3.393,1.54c-0.95,0.821-1.7,2.064-2.242,3.729c-0.542,1.661-0.816,3.951-0.816,6.865
			c0,2.727,0.191,4.932,0.562,6.614c0.375,1.683,0.984,2.981,1.824,3.895c0.84,0.917,1.954,1.536,3.335,1.851
			c1.382,0.317,3.102,0.477,5.156,0.477c1.161,0,2.346-0.101,3.563-0.307c1.211-0.205,2.191-0.438,2.941-0.702V211.953z"/>
		<path fill="#FFFFFF" d="M88.553,212.012c0.11,2.203,0.378,3.979,0.81,5.325c0.428,1.345,1.074,2.382,1.934,3.111
			c0.86,0.726,1.944,1.225,3.252,1.485s2.914,0.392,4.821,0.392c1.121,0,2.271-0.104,3.449-0.308
			c1.174-0.206,2.295-0.448,3.363-0.729c1.064-0.279,2.034-0.569,2.914-0.87c0.876-0.296,2.964-1.052,3.546-1.392
			c0,0,0.452,1.028,0.298,3.961c-0.087,1.638-1.629,3.205-2.75,3.543c-1.124,0.335-2.329,0.635-3.617,0.897
			c-1.292,0.261-2.626,0.477-4.008,0.642c-1.381,0.173-2.73,0.255-4.035,0.255c-2.804,0-5.29-0.225-7.455-0.673
			c-2.171-0.45-4.001-1.337-5.494-2.663c-1.499-1.326-2.636-3.177-3.419-5.551c-0.786-2.372-1.178-5.5-1.178-9.39
			c0-4.033,0.418-7.306,1.262-9.812c0.84-2.499,2.014-4.444,3.53-5.828c1.516-1.382,3.306-2.315,5.38-2.801
			c2.074-0.486,4.363-0.729,6.869-0.729c2.69,0,5.072,0.262,7.146,0.785c2.075,0.523,3.817,1.467,5.24,2.832
			c1.422,1.363,2.66,3.207,3.104,5.61c0.442,2.433-0.167,6.366-1.141,8.002c-1.165,1.962-4.206,3.904-7.752,3.904
			C101.079,212.012,88.553,212.012,88.553,212.012z M103.301,205.958c3.188,0,3.834-2.299,3.553-4.354
			c-0.161-1.201-1.031-2.509-2.024-3.188c-0.816-0.561-1.857-1.035-2.938-1.261c-1.084-0.225-2.375-0.335-3.868-0.335
			c-1.312,0-2.513,0.067-3.617,0.197c-1.104,0.131-2.071,0.494-2.914,1.091c-0.843,0.599-1.516,1.516-2.021,2.747
			c-0.502,1.234-0.81,2.933-0.92,5.103C88.553,205.958,101.207,205.958,103.301,205.958z"/>
		<path fill="#FFFFFF" d="M198.397,212.012c0.11,2.203,0.385,3.979,0.813,5.325c0.429,1.345,1.074,2.382,1.934,3.111
			c0.86,0.726,1.944,1.225,3.252,1.485c1.306,0.261,2.915,0.392,4.821,0.392c1.121,0,2.269-0.104,3.446-0.308
			c1.178-0.206,2.299-0.448,3.362-0.729c1.067-0.279,2.038-0.569,2.918-0.87c0.877-0.296,2.964-1.052,3.546-1.392
			c0,0,0.452,1.028,0.298,3.961c-0.087,1.638-1.629,3.205-2.753,3.543c-1.121,0.335-2.325,0.635-3.617,0.897
			c-1.284,0.261-2.623,0.477-4.005,0.642c-1.385,0.173-2.729,0.255-4.035,0.255c-2.804,0-5.289-0.225-7.457-0.673
			c-2.168-0.45-4.002-1.337-5.494-2.663s-2.637-3.177-3.419-5.551c-0.786-2.372-1.175-5.5-1.175-9.39
			c0-4.033,0.418-7.306,1.262-9.812c0.84-2.499,2.014-4.444,3.529-5.828c1.516-1.382,3.306-2.315,5.384-2.801
			c2.071-0.486,4.359-0.729,6.865-0.729c2.69,0,5.072,0.262,7.146,0.785s3.821,1.467,5.243,2.832
			c1.418,1.363,2.656,3.207,3.098,5.61c0.445,2.433-0.164,6.366-1.138,8.002c-1.164,1.962-4.209,3.904-7.752,3.904
			S198.397,212.012,198.397,212.012z M213.146,205.958c3.191,0,3.837-2.299,3.556-4.354c-0.163-1.201-1.033-2.509-2.023-3.188
			c-0.816-0.561-1.854-1.035-2.938-1.261c-1.084-0.225-2.376-0.335-3.868-0.335c-1.308,0-2.516,0.067-3.616,0.197
			c-1.102,0.131-2.075,0.494-2.915,1.091c-0.839,0.599-1.512,1.516-2.017,2.747c-0.506,1.234-0.816,2.933-0.927,5.103
			C198.397,205.958,211.054,205.958,213.146,205.958z"/>
		<path fill="#FFFFFF" d="M117.49,227.593c0,0,0-32.593,0-35.985c3.617,0,7.401,1.771,7.401,5.112c0,3.34,0,30.873,0,30.873H117.49z
			"/>
		<path fill="#FFFFFF" d="M226.25,227.593v-35.985h13.403c2.653,0,4.34,0.067,6.133,0.347c1.797,0.279,3.814,1.434,4.895,2.255
			c1.088,0.821,2.102,2.621,2.808,4.127c0.676,1.432,1.295,3.806,1.295,6.273c0,1.982-0.141,2.178-0.419,3.505
			c-0.28,1.328-1.268,2.327-1.92,3.207c-0.589,0.791-1.382,1.371-2.285,1.87c-0.097,0.057-0.197,0.112-0.298,0.167
			c2.158,1.274,2.771,1.919,3.617,3.449c0.655,1.183,0.652,3.129,0.652,5.253c0,0.92-0.023,2.121-0.054,3.186
			c-0.037,1.405,0.77,2.675,1.077,3.294c-4.667,0-8.388-0.582-8.388-3.515c0-0.716,0-1.52,0-2.339c0-2.548-0.157-4.523-0.532-5.293
			c-0.686-1.414-2.485-2.747-3.958-2.747c-1.472,0-8.625,0-8.625,0v12.946H226.25z M247.218,202.985c0-1.267-0.364-2.28-0.826-2.89
			c-0.418-0.549-0.987-1.263-1.692-1.732c-0.499-0.335-1.142-0.571-1.961-0.649c-0.823-0.072-1.813-0.11-2.971-0.11h-6.116v11.044
			h7.229c1.161,0,1.717-0.036,2.54-0.11c0.823-0.077,1.469-0.328,1.983-0.649c0.767-0.475,1.252-0.886,1.476-1.594
			c0.225-0.711,0.338-1.701,0.338-2.973V202.985z"/>
		<path fill="#FFFFFF" d="M142.724,221.539c0,0-1.592,0-2.974,0c-1.378,0-3.346,0.11-3.339-1.255
			c0.007-0.871,1.014-1.663,1.014-1.663l17.415-13.426c0,0,3.255-2.554,3.473-5.986c0.178-2.857-2.306-7.602-7.836-7.602
			c-1.867,0-11.466,0-16.604,0c-1.951,0-3.821,3.221-3.821,5.996c2.352,0,18.92,0,19.352,0c1.104,0,1.84,0.167,2.004,0.655
			c0.277,0.835-1.074,1.787-1.074,1.787l-15.24,11.7c0,0-1.696,1.312-3.386,3.085c-2.954,3.098-2.69,5.533-2.185,7.438
			c1.027,3.836,6.467,5.323,8.066,5.323c1.596,0,2.453,0,2.453,0s11.673,0,13.694,0c2.021,0,4.079-2.694,4.079-6.054
			C154.561,221.539,142.724,221.539,142.724,221.539z"/>
		<path fill="#FFFFFF" d="M173.066,221.539c0,0-1.593,0-2.975,0c-1.378,0-3.349,0.11-3.339-1.255
			c0.007-0.871,1.014-1.663,1.014-1.663l17.415-13.426c0,0,3.255-2.554,3.469-5.986c0.181-2.857-2.302-7.602-7.832-7.602
			c-1.867,0-11.466,0-16.604,0c-1.951,0-3.821,3.221-3.821,5.996c2.349,0,18.92,0,19.349,0c1.107,0,1.847,0.167,2.008,0.655
			c0.277,0.835-1.071,1.787-1.071,1.787l-15.243,11.7c0,0-1.696,1.312-3.386,3.085c-2.958,3.098-2.69,5.533-2.185,7.438
			c1.027,3.836,6.467,5.323,8.066,5.323c1.596,0,2.452,0,2.452,0s11.674,0,13.694,0s4.078-2.694,4.078-6.054
			C184.9,221.539,173.066,221.539,173.066,221.539z"/>
		<path fill="#FFFFFF" d="M104.562,173.558l-6.581,8.421c-1.572,2.022-0.117,4.878,2.074,6.58l6.581-8.422
			C108.209,178.114,106.75,175.261,104.562,173.558z"/>
	</g>
	<g>
		<g>
			<path fill="#FFFFFF" d="M193.76,72.961h-2.59v7.129h-1.643v-7.129h-2.59v-1.335h6.822V72.961z M200.19,77.625l2.302-6h2.362
				v8.465h-1.543v-6.616h-0.04l-2.525,6.616h-1.151l-2.529-6.616h-0.04v6.616h-1.539v-8.465h2.382L200.19,77.625z"/>
		</g>
	</g>
</g>
</svg>
