<?xml version="1.0" encoding="utf-8"?>
<!-- Generator: Adobe Illustrator 15.0.2, SVG Export Plug-In . SVG Version: 6.00 Build 0)  -->
<!DOCTYPE svg PUBLIC "-//W3C//DTD SVG 1.1//EN" "http://www.w3.org/Graphics/SVG/1.1/DTD/svg11.dtd">
<svg version="1.1" id="Capa_1" xmlns="http://www.w3.org/2000/svg" xmlns:xlink="http://www.w3.org/1999/xlink" x="0px" y="0px"
	 width="600px" height="340px" viewBox="-50.623 20 600 340" enable-background="new -50.623 20 600 340" xml:space="preserve">
<g id="Capa_1_1_">
	<g>
		<g>
			<path fill="#93AFD3" d="M257.441,208.738h-90.295c-7.554,0-13.7-6.146-13.7-13.699v-70.394c0-7.554,6.146-13.699,13.7-13.699
				h90.295c7.554,0,13.699,6.146,13.699,13.699v70.394C271.141,202.593,264.995,208.738,257.441,208.738z M167.146,115.054
				c-5.289,0-9.591,4.303-9.591,9.592v70.394c0,5.289,4.303,9.592,9.591,9.592h90.295c5.289,0,9.591-4.303,9.591-9.592v-70.394
				c0-5.289-4.304-9.592-9.591-9.592H167.146z"/>
		</g>
		<g>
			<path fill="#93AFD3" d="M287.377,189.902c-0.63,0-1.263-0.223-1.768-0.68l-39.354-35.49c-1.083-0.977-1.169-2.646-0.193-3.729
				c0.978-1.083,2.647-1.17,3.73-0.192l39.354,35.49c1.082,0.978,1.168,2.646,0.192,3.729
				C288.818,189.609,288.1,189.902,287.377,189.902z"/>
		</g>
		<g>
			<g>
				<polygon fill="#93AFD3" points="252.309,196.791 231.206,170.479 224.454,179.925 207.192,155.181 199.838,162.301 
					174.17,135.331 176.721,132.903 199.94,157.301 207.713,149.774 224.489,173.819 231.043,164.648 255.057,194.588 				"/>
			</g>
			<g>
				<g>
					<polygon fill="#93AFD3" points="181.921,130.791 168.45,126.821 171.747,140.474 					"/>
				</g>
			</g>
		</g>
		<g>
			<path fill="#93AFD3" d="M361.835,147.418c9.504,0,17.211-7.704,17.211-17.211c0-9.508-7.708-17.207-17.211-17.207
				c-9.496,0-17.209,7.699-17.209,17.207C344.626,139.714,352.339,147.418,361.835,147.418L361.835,147.418z"/>
			<path fill="#93AFD3" d="M380.578,151.277c-5.957,0-26.9,0-32.705,0c-7.578,0-14.285,3.886-18.21,9.767
				c-5.742,8.618-11.896,17.907-15.156,22.831c-8.357,0-21.177,0-24.386,0c-4.104,0-7.434,3.229-7.434,7.329
				c0,4.103,3.328,7.428,7.434,7.428c4.781,0,28.485-0.046,28.485-0.046c2.368-0.044,4.67-1.214,6.07-3.337
				c2.638-3.993,11.341-17.062,11.341-17.062h3.83c0,0,0,123.879,0,132.023c0,5.502,4.501,9.952,9.993,9.952
				c5.501,0,9.957-4.45,9.957-9.952c0-8.144,0-76.665,0-76.665h4.082c0,0,0,68.521,0,76.665c0,5.502,4.46,9.952,9.956,9.952
				c5.493,0,9.995-4.45,9.995-9.952c0-8.144,0-132.023,0-132.023h3.827c0,0,0,42.661,0,47.445c0,4.101,3.333,7.435,7.431,7.435
				c4.101,0,7.327-3.334,7.327-7.435c0-4.104,0-46.502,0-52.617C402.415,161.012,392.588,151.277,380.578,151.277L380.578,151.277z"
				/>
		</g>
	</g>
	<g>
		<g>
			<defs>
				<rect id="SVGID_1_" y="180" width="498.682" height="180"/>
			</defs>
			<clipPath id="SVGID_2_">
				<use xlink:href="#SVGID_1_"  overflow="visible"/>
			</clipPath>
			<g clip-path="url(#SVGID_2_)">
				<g>
					<g>
						<g>
							<g>
								<path fill="#7095C4" d="M178.035,248.67c11.364,0,20.573-9.217,20.573-20.572c0-11.363-9.209-20.578-20.573-20.578
									c-11.362,0-20.571,9.215-20.571,20.578C157.464,239.453,166.673,248.67,178.035,248.67z"/>
								<path fill="#7095C4" d="M200.762,253.934c14.545,0,26.473,11.803,26.473,26.356c0,7.415,0,58.821,0,63.797
									c0,4.978-3.91,9.004-8.885,9.004c-4.974,0-9.008-4.026-9.008-9.004c0-5.799,0-57.521,0-57.521H204.7c0,0,0,150.19,0,160.061
									c0,6.666-5.463,12.07-12.122,12.07c-6.663,0-12.071-5.404-12.071-12.07c0-9.869,0-92.941,0-92.941h-4.945
									c0,0,0,83.072,0,92.941c0,6.666-5.409,12.07-12.068,12.07c-6.663,0-12.122-5.404-12.122-12.07c0-9.869,0-160.061,0-160.061
									h-4.642c0,0,0,51.722,0,57.521c0,4.978-4.034,9.004-9.008,9.004c-4.974,0-8.885-4.026-8.885-9.004
									c0-4.976,0-56.382,0-63.797c0-14.556,11.917-26.356,26.473-26.356C162.345,253.934,193.536,253.934,200.762,253.934z"/>
							</g>
						</g>
					</g>
					<g>
						<g>
							<g>
								<path fill="#7095C4" d="M306.998,248.67c11.364,0,20.573-9.217,20.573-20.572c0-11.363-9.209-20.578-20.573-20.578
									c-11.363,0-20.571,9.215-20.571,20.578C286.426,239.453,295.635,248.67,306.998,248.67z"/>
								<path fill="#7095C4" d="M329.723,253.934c14.546,0,26.475,11.803,26.475,26.356c0,7.415,0,58.821,0,63.797
									c0,4.978-3.911,9.004-8.886,9.004s-9.008-4.026-9.008-9.004c0-5.799,0-57.521,0-57.521h-4.642c0,0,0,150.19,0,160.061
									c0,6.666-5.463,12.07-12.123,12.07c-6.662,0-12.07-5.404-12.07-12.07c0-9.869,0-92.941,0-92.941h-4.947
									c0,0,0,83.072,0,92.941c0,6.666-5.407,12.07-12.066,12.07c-6.662,0-12.122-5.404-12.122-12.07c0-9.869,0-160.061,0-160.061
									h-4.642c0,0,0,51.722,0,57.521c0,4.978-4.033,9.004-9.008,9.004s-8.885-4.026-8.885-9.004c0-4.976,0-56.382,0-63.797
									c0-14.556,11.917-26.356,26.473-26.356C291.307,253.934,322.498,253.934,329.723,253.934z"/>
							</g>
						</g>
					</g>
					<g>
						<g>
							<g>
								<path fill="#7095C4" d="M438.457,248.67c11.364,0,20.573-9.217,20.573-20.572c0-11.363-9.209-20.578-20.573-20.578
									c-11.362,0-20.571,9.215-20.571,20.578C417.885,239.453,427.095,248.67,438.457,248.67z"/>
								<path fill="#7095C4" d="M461.183,253.934c14.546,0,26.474,11.803,26.474,26.356c0,7.415,0,58.821,0,63.797
									c0,4.978-3.91,9.004-8.885,9.004s-9.009-4.026-9.009-9.004c0-5.799,0-57.521,0-57.521h-4.641c0,0,0,150.19,0,160.061
									c0,6.666-5.463,12.07-12.122,12.07c-6.663,0-12.071-5.404-12.071-12.07c0-9.869,0-92.941,0-92.941h-4.945
									c0,0,0,83.072,0,92.941c0,6.666-5.409,12.07-12.068,12.07c-6.662,0-12.122-5.404-12.122-12.07c0-9.869,0-160.061,0-160.061
									h-4.642c0,0,0,51.722,0,57.521c0,4.978-4.034,9.004-9.009,9.004c-4.974,0-8.885-4.026-8.885-9.004
									c0-4.976,0-56.382,0-63.797c0-14.556,11.917-26.356,26.475-26.356C422.767,253.934,453.957,253.934,461.183,253.934z"/>
							</g>
						</g>
					</g>
				</g>
				<g>
					<g>
						<g>
							<g>
								<path fill="#3469AB" d="M73.068,281.482c13.344,0,24.159-10.821,24.159-24.157c0-13.347-10.815-24.168-24.159-24.168
									c-13.345,0-24.16,10.821-24.16,24.168C48.908,270.661,59.723,281.482,73.068,281.482z"/>
								<path fill="#3469AB" d="M99.755,287.667c17.083,0,31.089,13.856,31.089,30.951c0,8.708,0,69.075,0,74.919
									c0,5.845-4.593,10.573-10.434,10.573c-5.841,0-10.579-4.729-10.579-10.573c0-6.809,0-67.549,0-67.549h-5.451
									c0,0,0,176.38,0,187.969c0,7.826-6.414,14.175-14.236,14.175c-7.824,0-14.175-6.349-14.175-14.175
									c0-11.589,0-109.148,0-109.148h-5.808c0,0,0,97.561,0,109.148c0,7.826-6.351,14.175-14.171,14.175
									c-7.825,0-14.235-6.349-14.235-14.175c0-11.589,0-187.969,0-187.969h-5.453c0,0,0,60.74,0,67.549
									c0,5.845-4.736,10.573-10.578,10.573c-5.841,0-10.434-4.729-10.434-10.573s0-66.211,0-74.919
									c0-17.095,13.995-30.951,31.089-30.951C54.641,287.667,91.27,287.667,99.755,287.667z"/>
							</g>
						</g>
					</g>
					<g>
						<g>
							<g>
								<path fill="#3469AB" d="M224.515,281.482c13.345,0,24.16-10.821,24.16-24.157c0-13.347-10.814-24.168-24.16-24.168
									c-13.344,0-24.159,10.821-24.159,24.168C200.356,270.661,211.171,281.482,224.515,281.482z"/>
								<path fill="#3469AB" d="M251.204,287.667c17.082,0,31.089,13.856,31.089,30.951c0,8.708,0,69.075,0,74.919
									c0,5.845-4.593,10.573-10.436,10.573c-5.84,0-10.578-4.729-10.578-10.573c0-6.809,0-67.549,0-67.549h-5.45
									c0,0,0,176.38,0,187.969c0,7.826-6.416,14.175-14.236,14.175c-7.824,0-14.176-6.349-14.176-14.175
									c0-11.589,0-109.148,0-109.148h-5.808c0,0,0,97.561,0,109.148c0,7.826-6.35,14.175-14.169,14.175
									c-7.826,0-14.236-6.349-14.236-14.175c0-11.589,0-187.969,0-187.969h-5.452c0,0,0,60.74,0,67.549
									c0,5.845-4.737,10.573-10.578,10.573c-5.842,0-10.434-4.729-10.434-10.573s0-66.211,0-74.919
									c0-17.095,13.995-30.951,31.088-30.951C206.088,287.667,242.716,287.667,251.204,287.667z"/>
							</g>
						</g>
					</g>
					<g>
						<g>
							<g>
								<path fill="#3469AB" d="M378.895,281.482c13.345,0,24.16-10.821,24.16-24.157c0-13.347-10.815-24.168-24.16-24.168
									c-13.344,0-24.157,10.821-24.157,24.168C354.736,270.661,365.55,281.482,378.895,281.482z"/>
								<path fill="#3469AB" d="M405.583,287.667c17.083,0,31.089,13.856,31.089,30.951c0,8.708,0,69.075,0,74.919
									c0,5.845-4.592,10.573-10.433,10.573c-5.843,0-10.579-4.729-10.579-10.573c0-6.809,0-67.549,0-67.549h-5.451
									c0,0,0,176.38,0,187.969c0,7.826-6.415,14.175-14.236,14.175c-7.824,0-14.176-6.349-14.176-14.175
									c0-11.589,0-109.148,0-109.148h-5.808c0,0,0,97.561,0,109.148c0,7.826-6.353,14.175-14.171,14.175
									c-7.824,0-14.235-6.349-14.235-14.175c0-11.589,0-187.969,0-187.969h-5.451c0,0,0,60.74,0,67.549
									c0,5.845-4.738,10.573-10.579,10.573s-10.434-4.729-10.434-10.573s0-66.211,0-74.919c0-17.095,13.995-30.951,31.088-30.951
									C360.468,287.667,397.097,287.667,405.583,287.667z"/>
							</g>
						</g>
					</g>
				</g>
			</g>
		</g>
	</g>
</g>
<g id="Capa_2" display="none">
	<g display="inline">
		<g>
			<path fill="#4777BB" d="M319.682-561.587c-6.469,0-11.711,5.242-11.711,11.713c0,6.467,5.242,11.711,11.711,11.711
				c6.47,0,11.711-5.244,11.711-11.711C331.393-556.345,326.151-561.587,319.682-561.587z M319.682-539.761
				c-5.578,0-10.114-4.534-10.114-10.113c0-5.577,4.536-10.112,10.114-10.112c5.577,0,10.115,4.536,10.115,10.112
				C329.797-544.295,325.259-539.761,319.682-539.761z"/>
			<path fill="#4777BB" d="M358.213-544.434c0.227-1.621,0.35-3.271,0.369-4.947l-5.654-1.161c-0.019-0.868-0.069-1.729-0.151-2.578
				l5.463-1.927c-0.224-1.648-0.547-3.266-0.97-4.844l-5.76,0.409c-0.253-0.841-0.54-1.669-0.858-2.48l4.739-3.326
				c-0.654-1.516-1.404-2.979-2.241-4.381l-5.436,1.946c-0.477-0.75-0.986-1.475-1.521-2.179l3.663-4.481
				c-1.034-1.269-2.146-2.473-3.331-3.6l-4.711,3.344c-0.666-0.597-1.357-1.167-2.074-1.706l2.32-5.307
				c-1.33-0.936-2.723-1.793-4.169-2.559l-3.635,4.488c-0.81-0.393-1.637-0.758-2.48-1.088l0.804-5.729
				c-1.525-0.535-3.094-0.979-4.702-1.322l-2.288,5.309c-0.887-0.159-1.786-0.283-2.695-0.37l-0.771-5.729
				c-0.81-0.049-1.622-0.079-2.441-0.079s-1.633,0.029-2.44,0.079l-0.771,5.729c-0.912,0.087-1.811,0.211-2.695,0.37l-2.287-5.309
				c-1.608,0.343-3.176,0.787-4.702,1.322l0.801,5.729c-0.842,0.331-1.67,0.696-2.479,1.088l-3.635-4.488
				c-1.447,0.766-2.839,1.624-4.17,2.559l2.319,5.307c-0.714,0.539-1.405,1.108-2.073,1.706l-4.711-3.344
				c-1.186,1.127-2.295,2.332-3.33,3.602l3.664,4.482c-0.533,0.703-1.045,1.427-1.521,2.177l-5.436-1.946
				c-0.834,1.402-1.585,2.865-2.24,4.381l4.738,3.326c-0.316,0.812-0.604,1.64-0.859,2.48l-5.758-0.409
				c-0.423,1.578-0.748,3.195-0.968,4.844l5.462,1.927c-0.082,0.849-0.135,1.71-0.152,2.578l-5.651,1.161
				c0.019,1.675,0.141,3.326,0.366,4.947l5.777,0.38c0.146,0.838,0.325,1.668,0.533,2.491l-5.135,2.642
				c0.469,1.605,1.037,3.167,1.699,4.676l5.668-1.189c0.363,0.754,0.754,1.493,1.171,2.216l-4.229,3.933
				c0.883,1.415,1.855,2.776,2.908,4.064l5.137-2.681c0.543,0.618,1.109,1.216,1.696,1.795l-3.015,4.934
				c1.23,1.126,2.533,2.181,3.897,3.146l4.224-3.959c0.684,0.444,1.381,0.867,2.098,1.26l-1.578,5.569
				c1.486,0.76,3.025,1.419,4.611,1.987l2.994-4.951c0.771,0.242,1.556,0.457,2.348,0.646l-0.016,5.784
				c1.625,0.328,3.288,0.556,4.981,0.677l1.547-5.583c0.401,0.019,0.808,0.026,1.213,0.026c0.406,0,0.812-0.008,1.213-0.026
				l1.549,5.583c1.691-0.122,3.354-0.35,4.98-0.677l-0.018-5.784c0.796-0.19,1.575-0.405,2.35-0.646l2.992,4.951
				c1.588-0.568,3.127-1.227,4.611-1.987l-1.575-5.569c0.715-0.393,1.413-0.816,2.097-1.26l4.222,3.959
				c1.368-0.965,2.67-2.02,3.899-3.146l-3.014-4.934c0.586-0.579,1.151-1.177,1.694-1.795l5.137,2.681
				c1.054-1.289,2.025-2.65,2.906-4.064l-4.229-3.933c0.418-0.723,0.809-1.462,1.172-2.216l5.668,1.189
				c0.661-1.51,1.23-3.071,1.698-4.676l-5.134-2.642c0.206-0.822,0.387-1.652,0.533-2.491L358.213-544.434z M319.682-538.163
				c-6.469,0-11.711-5.244-11.711-11.711c0-6.471,5.242-11.713,11.711-11.713c6.47,0,11.711,5.242,11.711,11.713
				C331.393-543.407,326.151-538.163,319.682-538.163z"/>
		</g>
		<g>
			<path fill="#4777BB" d="M596.088-677.114v-4.237l-4.465-1.246c-0.203-1.173-0.513-2.314-0.916-3.405l3.232-3.315l-2.128-3.665
				l-4.491,1.172c-0.688-0.823-1.448-1.587-2.267-2.285l1.195-4.482l-3.647-2.153l-3.336,3.209c-1.13-0.424-2.31-0.747-3.529-0.957
				l-1.245-4.469h-4.231l-1.246,4.469c-1.128,0.196-2.223,0.483-3.274,0.863l-3.293-3.255l-3.677,2.102l1.139,4.492
				c-0.831,0.689-1.598,1.446-2.305,2.257l-4.469-1.231l-2.18,3.633l3.188,3.362c-0.452,1.17-0.793,2.394-1.014,3.657l-4.469,1.248
				v4.235l4.469,1.244c0.203,1.173,0.51,2.315,0.914,3.41l-3.232,3.314l2.131,3.662l4.485-1.168
				c0.694,0.821,1.454,1.583,2.271,2.281l-1.198,4.484l3.648,2.152l3.34-3.213c1.131,0.426,2.307,0.748,3.524,0.961l1.246,4.462
				h4.236l1.24-4.462c1.129-0.199,2.223-0.485,3.277-0.868l3.29,3.258l3.68-2.103l-1.137-4.495c0.83-0.688,1.596-1.444,2.297-2.257
				l4.479,1.232l2.174-3.631l-3.188-3.364c0.454-1.17,0.793-2.392,1.015-3.658L596.088-677.114z M572.377-663.932
				c-8.451,0-15.302-6.851-15.302-15.302c0-8.451,6.851-15.304,15.302-15.304c8.447,0,15.299,6.853,15.299,15.304
				C587.676-670.783,580.825-663.932,572.377-663.932z"/>
			<path fill="#4777BB" d="M572.377-694.538c-8.451,0-15.302,6.853-15.302,15.304c0,8.451,6.851,15.302,15.302,15.302
				c8.447,0,15.299-6.851,15.299-15.302C587.676-687.685,580.825-694.538,572.377-694.538z M572.377-664.689
				c-8.021,0-14.546-6.523-14.546-14.544c0-8.017,6.524-14.544,14.546-14.544c8.018,0,14.543,6.527,14.543,14.544
				C586.92-671.212,580.395-664.689,572.377-664.689z"/>
			<path fill="#4777BB" d="M572.377-692.521c-7.327,0-13.288,5.962-13.288,13.288c0,7.327,5.961,13.285,13.288,13.285
				c7.323,0,13.287-5.958,13.287-13.285C585.665-686.559,579.701-692.521,572.377-692.521z M572.377-666.147
				c-7.228,0-13.088-5.86-13.088-13.086s5.86-13.087,13.088-13.087c7.229,0,13.088,5.861,13.088,13.087
				S579.606-666.147,572.377-666.147z"/>
			<path fill="#4777BB" d="M572.377-692.32c-7.228,0-13.088,5.861-13.088,13.087s5.86,13.086,13.088,13.086
				c7.229,0,13.088-5.86,13.088-13.086S579.606-692.32,572.377-692.32z"/>
		</g>
		<g>
			<path fill="#4777BB" d="M419.272-547.077v-4.236l-4.466-1.246c-0.203-1.173-0.513-2.313-0.915-3.404l3.232-3.317l-2.128-3.664
				l-4.492,1.173c-0.688-0.824-1.447-1.588-2.266-2.285l1.194-4.482l-3.646-2.154l-3.336,3.21c-1.131-0.424-2.311-0.746-3.53-0.957
				l-1.245-4.47h-4.231l-1.246,4.47c-1.127,0.194-2.224,0.483-3.275,0.863l-3.293-3.255l-3.676,2.101l1.138,4.492
				c-0.83,0.69-1.597,1.446-2.303,2.258l-4.47-1.231l-2.181,3.633l3.189,3.363c-0.452,1.169-0.793,2.392-1.014,3.656l-4.469,1.248
				v4.234l4.469,1.245c0.203,1.173,0.51,2.315,0.915,3.41l-3.233,3.313l2.131,3.665l4.485-1.169c0.693,0.822,1.454,1.583,2.271,2.28
				l-1.198,4.486l3.647,2.152l3.34-3.214c1.132,0.425,2.308,0.748,3.525,0.962l1.246,4.461h4.235l1.241-4.461
				c1.128-0.2,2.223-0.487,3.278-0.868l3.29,3.257l3.679-2.103l-1.137-4.495c0.83-0.688,1.595-1.443,2.297-2.257l4.479,1.231
				l2.176-3.631l-3.189-3.362c0.454-1.169,0.794-2.393,1.015-3.658L419.272-547.077z M395.561-533.894
				c-8.449,0-15.301-6.851-15.301-15.303c0-8.45,6.852-15.303,15.301-15.303c8.447,0,15.3,6.853,15.3,15.303
				C410.86-540.745,404.008-533.894,395.561-533.894z"/>
			<path fill="#4777BB" d="M395.561-564.5c-8.449,0-15.301,6.853-15.301,15.303c0,8.452,6.852,15.303,15.301,15.303
				c8.447,0,15.3-6.851,15.3-15.303C410.86-557.646,404.008-564.5,395.561-564.5z M395.561-534.651
				c-8.021,0-14.545-6.523-14.545-14.545c0-8.016,6.524-14.543,14.545-14.543c8.019,0,14.543,6.527,14.543,14.543
				C410.104-541.174,403.579-534.651,395.561-534.651z"/>
			<path fill="#4777BB" d="M395.561-562.481c-7.325,0-13.286,5.961-13.286,13.285c0,7.328,5.961,13.285,13.286,13.285
				c7.324,0,13.287-5.957,13.287-13.285C408.848-556.521,402.885-562.481,395.561-562.481z M395.561-536.11
				c-7.228,0-13.087-5.859-13.087-13.086c0-7.225,5.859-13.087,13.087-13.087c7.229,0,13.09,5.862,13.09,13.087
				C408.65-541.969,402.79-536.11,395.561-536.11z"/>
			<path fill="#4777BB" d="M395.561-562.283c-7.228,0-13.087,5.862-13.087,13.087c0,7.228,5.859,13.086,13.087,13.086
				c7.229,0,13.09-5.858,13.09-13.086C408.65-556.421,402.79-562.283,395.561-562.283z"/>
		</g>
		<g>
			<path fill="#4777BB" d="M536.503-723.607c-2.259,0-4.089,1.83-4.089,4.089c0,2.257,1.83,4.089,4.089,4.089
				c2.256,0,4.09-1.832,4.09-4.089C540.593-721.777,538.759-723.607,536.503-723.607z M536.503-715.988
				c-1.948,0-3.534-1.583-3.534-3.531c0-1.947,1.586-3.532,3.534-3.532s3.53,1.585,3.53,3.532
				C540.034-717.571,538.452-715.988,536.503-715.988z"/>
			<path fill="#4777BB" d="M549.952-717.621c0.078-0.563,0.122-1.141,0.131-1.727l-1.973-0.404c-0.01-0.304-0.027-0.605-0.058-0.9
				l1.911-0.672c-0.081-0.576-0.196-1.14-0.339-1.692l-2.014,0.144c-0.087-0.294-0.187-0.583-0.297-0.867l1.653-1.161
				c-0.229-0.526-0.494-1.038-0.783-1.529l-1.899,0.682c-0.165-0.263-0.341-0.517-0.529-0.763l1.279-1.563
				c-0.359-0.443-0.75-0.863-1.161-1.258l-1.646,1.168c-0.233-0.209-0.474-0.408-0.724-0.597l0.808-1.852
				c-0.463-0.327-0.946-0.625-1.453-0.892l-1.27,1.566c-0.282-0.138-0.572-0.264-0.865-0.381l0.279-2
				c-0.533-0.188-1.08-0.342-1.639-0.461l-0.802,1.853c-0.31-0.055-0.625-0.097-0.94-0.129l-0.269-1.998
				c-0.281-0.019-0.564-0.027-0.853-0.027s-0.571,0.009-0.853,0.027l-0.271,1.998c-0.315,0.032-0.631,0.075-0.941,0.129
				l-0.795-1.853c-0.563,0.12-1.11,0.273-1.645,0.461l0.281,2c-0.295,0.117-0.584,0.243-0.867,0.381l-1.27-1.566
				c-0.502,0.267-0.99,0.565-1.453,0.892l0.808,1.852c-0.25,0.189-0.487,0.388-0.724,0.597l-1.643-1.168
				c-0.415,0.395-0.806,0.815-1.165,1.258l1.279,1.563c-0.188,0.247-0.363,0.5-0.529,0.763l-1.899-0.682
				c-0.289,0.492-0.55,1.003-0.78,1.529l1.655,1.161c-0.112,0.285-0.213,0.573-0.302,0.867l-2.01-0.144
				c-0.146,0.552-0.26,1.116-0.338,1.692l1.906,0.672c-0.029,0.295-0.048,0.597-0.056,0.9l-1.972,0.404
				c0.006,0.585,0.052,1.163,0.128,1.727l2.016,0.134c0.053,0.292,0.113,0.582,0.188,0.869l-1.792,0.922
				c0.161,0.561,0.359,1.105,0.591,1.633l1.98-0.416c0.126,0.263,0.265,0.522,0.408,0.774l-1.478,1.371
				c0.309,0.496,0.646,0.97,1.017,1.418l1.793-0.933c0.188,0.215,0.387,0.425,0.594,0.626l-1.057,1.722
				c0.431,0.395,0.887,0.762,1.363,1.098l1.473-1.383c0.239,0.156,0.481,0.304,0.731,0.441l-0.547,1.943
				c0.518,0.264,1.053,0.498,1.607,0.694l1.043-1.729c0.272,0.084,0.545,0.16,0.82,0.226l-0.005,2.02
				c0.566,0.115,1.15,0.193,1.738,0.233l0.541-1.945c0.143,0.003,0.281,0.007,0.425,0.007c0.141,0,0.283-0.004,0.424-0.007
				l0.539,1.945c0.591-0.041,1.171-0.119,1.737-0.233l-0.004-2.02c0.275-0.066,0.551-0.142,0.818-0.226l1.043,1.729
				c0.557-0.196,1.091-0.43,1.609-0.694l-0.548-1.943c0.25-0.137,0.494-0.285,0.73-0.441l1.474,1.383
				c0.479-0.335,0.934-0.703,1.362-1.098l-1.054-1.722c0.205-0.201,0.402-0.411,0.591-0.626l1.797,0.933
				c0.368-0.448,0.704-0.922,1.016-1.418l-1.478-1.371c0.146-0.252,0.282-0.511,0.406-0.774l1.98,0.416
				c0.231-0.528,0.43-1.073,0.592-1.633l-1.793-0.922c0.073-0.287,0.136-0.577,0.188-0.869L549.952-717.621z M536.503-715.429
				c-2.259,0-4.089-1.832-4.089-4.089c0-2.259,1.83-4.089,4.089-4.089c2.256,0,4.09,1.83,4.09,4.089
				C540.593-717.261,538.759-715.429,536.503-715.429z"/>
		</g>
		<g>
			<path fill="#4777BB" d="M451.294-745.938c-6.062,0-10.978,4.915-10.978,10.978s4.916,10.979,10.978,10.979
				c6.063,0,10.979-4.916,10.979-10.979S457.357-745.938,451.294-745.938z M451.294-725.479c-5.229,0-9.48-4.254-9.48-9.481
				c0-5.228,4.252-9.479,9.48-9.479s9.479,4.251,9.479,9.479S456.522-725.479,451.294-725.479z"/>
			<path fill="#4777BB" d="M487.414-729.861c0.206-1.517,0.326-3.064,0.345-4.638l-5.3-1.086c-0.019-0.814-0.066-1.618-0.145-2.416
				l5.121-1.806c-0.211-1.544-0.514-3.061-0.907-4.54l-5.399,0.382c-0.239-0.788-0.509-1.564-0.806-2.324l4.442-3.119
				c-0.613-1.418-1.315-2.788-2.1-4.104l-5.098,1.824c-0.447-0.702-0.928-1.382-1.428-2.042l3.436-4.2
				c-0.969-1.189-2.012-2.319-3.119-3.376l-4.413,3.133c-0.63-0.559-1.276-1.093-1.948-1.6l2.181-4.973
				c-1.254-0.877-2.558-1.679-3.914-2.399l-3.404,4.208c-0.758-0.37-1.532-0.71-2.326-1.02l0.752-5.371
				c-1.427-0.501-2.9-0.916-4.402-1.239l-2.149,4.974c-0.828-0.151-1.672-0.264-2.521-0.345l-0.727-5.369
				c-0.76-0.048-1.52-0.074-2.288-0.074c-0.771,0-1.53,0.026-2.288,0.074l-0.728,5.369c-0.85,0.081-1.689,0.194-2.522,0.345
				l-2.146-4.974c-1.504,0.323-2.975,0.738-4.403,1.239l0.75,5.371c-0.791,0.309-1.568,0.65-2.324,1.02l-3.407-4.208
				c-1.354,0.72-2.661,1.521-3.908,2.401l2.174,4.97c-0.668,0.507-1.316,1.041-1.941,1.6l-4.416-3.133
				c-1.11,1.057-2.151,2.187-3.123,3.377l3.436,4.199c-0.499,0.661-0.979,1.34-1.425,2.042l-5.097-1.824
				c-0.781,1.317-1.484,2.687-2.099,4.105l4.44,3.119c-0.298,0.76-0.566,1.536-0.806,2.324l-5.397-0.382
				c-0.396,1.479-0.699,2.996-0.907,4.54l5.119,1.806c-0.075,0.797-0.125,1.602-0.145,2.416l-5.299,1.086
				c0.02,1.573,0.135,3.121,0.346,4.638l5.417,0.356c0.137,0.788,0.304,1.566,0.499,2.333l-4.813,2.478
				c0.438,1.505,0.973,2.969,1.593,4.387l5.313-1.117c0.34,0.707,0.708,1.401,1.1,2.078l-3.967,3.685
				c0.829,1.328,1.737,2.601,2.727,3.808l4.814-2.508c0.509,0.581,1.039,1.141,1.592,1.684l-2.826,4.619
				c1.151,1.06,2.373,2.048,3.652,2.952l3.959-3.714c0.637,0.419,1.295,0.816,1.965,1.186l-1.477,5.219
				c1.391,0.71,2.836,1.333,4.319,1.863l2.81-4.643c0.723,0.229,1.456,0.432,2.2,0.61l-0.015,5.42
				c1.522,0.307,3.083,0.521,4.67,0.63l1.448-5.228c0.378,0.013,0.756,0.024,1.138,0.024c0.378,0,0.759-0.011,1.136-0.024
				l1.45,5.228c1.589-0.109,3.146-0.323,4.67-0.63l-0.011-5.42c0.742-0.179,1.473-0.382,2.196-0.61l2.808,4.643
				c1.486-0.53,2.931-1.152,4.32-1.863l-1.475-5.219c0.669-0.369,1.323-0.765,1.962-1.186l3.96,3.714
				c1.281-0.904,2.503-1.892,3.655-2.952l-2.827-4.621c0.549-0.541,1.082-1.101,1.59-1.682l4.813,2.508
				c0.99-1.208,1.9-2.48,2.728-3.808l-3.968-3.685c0.396-0.676,0.761-1.371,1.104-2.078l5.313,1.117
				c0.62-1.418,1.152-2.882,1.592-4.387l-4.813-2.478c0.193-0.767,0.363-1.545,0.499-2.333L487.414-729.861z M451.294-723.981
				c-6.062,0-10.978-4.916-10.978-10.979s4.916-10.978,10.978-10.978c6.063,0,10.979,4.915,10.979,10.978
				S457.357-723.981,451.294-723.981z"/>
		</g>
		<g>
			<path fill="#4777BB" d="M612.837-637.244c-1.515,0-2.737,1.221-2.737,2.735c0,1.508,1.224,2.731,2.737,2.731
				c1.51,0,2.732-1.225,2.732-2.731C615.57-636.023,614.347-637.244,612.837-637.244z M612.837-632.15
				c-1.306,0-2.362-1.06-2.362-2.359c0-1.306,1.058-2.363,2.362-2.363c1.3,0,2.358,1.057,2.358,2.363
				C615.196-633.209,614.137-632.15,612.837-632.15z"/>
			<path fill="#4777BB" d="M621.831-633.239c0.054-0.382,0.084-0.764,0.086-1.156l-1.321-0.273c-0.004-0.2-0.015-0.398-0.033-0.599
				l1.274-0.452c-0.051-0.384-0.128-0.76-0.227-1.132l-1.347,0.097c-0.057-0.196-0.123-0.391-0.196-0.576l1.104-0.781
				c-0.153-0.351-0.326-0.694-0.521-1.021l-1.271,0.455c-0.11-0.174-0.232-0.343-0.354-0.508l0.854-1.049
				c-0.237-0.293-0.499-0.574-0.774-0.838l-1.102,0.781c-0.154-0.141-0.314-0.273-0.484-0.401l0.543-1.237
				c-0.313-0.221-0.637-0.419-0.973-0.595l-0.85,1.043c-0.191-0.089-0.382-0.178-0.58-0.25l0.186-1.336
				c-0.354-0.126-0.723-0.231-1.096-0.314l-0.533,1.239c-0.207-0.037-0.416-0.066-0.629-0.084l-0.18-1.336
				c-0.191-0.012-0.379-0.021-0.569-0.021c-0.194,0-0.382,0.008-0.574,0.021l-0.18,1.336c-0.213,0.019-0.421,0.047-0.628,0.084
				l-0.537-1.239c-0.374,0.083-0.737,0.188-1.095,0.314l0.188,1.336c-0.198,0.072-0.393,0.161-0.581,0.25l-0.849-1.043
				c-0.337,0.175-0.661,0.374-0.973,0.595l0.543,1.237c-0.17,0.128-0.33,0.26-0.485,0.401l-1.101-0.781
				c-0.277,0.264-0.537,0.545-0.779,0.838l0.854,1.049c-0.124,0.165-0.241,0.334-0.354,0.508l-1.271-0.455
				c-0.194,0.326-0.367,0.669-0.522,1.021l1.106,0.781c-0.073,0.186-0.141,0.38-0.201,0.576l-1.346-0.097
				c-0.096,0.372-0.174,0.748-0.223,1.132l1.272,0.452c-0.018,0.201-0.027,0.399-0.036,0.599l-1.319,0.273
				c0.004,0.392,0.032,0.774,0.085,1.156l1.354,0.089c0.032,0.194,0.071,0.389,0.124,0.579l-1.2,0.62
				c0.108,0.374,0.241,0.737,0.396,1.09l1.321-0.276c0.086,0.178,0.18,0.347,0.277,0.517l-0.989,0.917
				c0.206,0.331,0.434,0.646,0.68,0.948l1.198-0.626c0.128,0.149,0.26,0.287,0.396,0.419l-0.703,1.154
				c0.287,0.265,0.595,0.51,0.909,0.733l0.987-0.925c0.159,0.103,0.324,0.202,0.49,0.295l-0.368,1.299
				c0.345,0.177,0.704,0.334,1.076,0.467l0.698-1.157c0.18,0.054,0.362,0.104,0.547,0.149l-0.004,1.352
				c0.383,0.074,0.769,0.128,1.164,0.155l0.359-1.301c0.095,0.004,0.192,0.008,0.287,0.008c0.091,0,0.188-0.004,0.278-0.008
				l0.363,1.301c0.393-0.027,0.782-0.081,1.161-0.155v-1.352c0.185-0.045,0.367-0.097,0.547-0.149l0.698,1.157
				c0.372-0.132,0.731-0.29,1.075-0.467l-0.367-1.299c0.166-0.093,0.33-0.192,0.49-0.295l0.984,0.925
				c0.317-0.223,0.623-0.469,0.91-0.733l-0.701-1.154c0.137-0.132,0.269-0.271,0.393-0.419l1.202,0.626
				c0.245-0.302,0.473-0.618,0.679-0.948l-0.988-0.917c0.098-0.169,0.188-0.339,0.271-0.517l1.326,0.276
				c0.154-0.353,0.287-0.717,0.393-1.09l-1.195-0.62c0.048-0.189,0.092-0.384,0.125-0.579L621.831-633.239z M612.837-631.776
				c-1.515,0-2.737-1.225-2.737-2.732c0-1.514,1.224-2.735,2.737-2.735c1.51,0,2.732,1.221,2.732,2.735
				C615.57-633.001,614.347-631.776,612.837-631.776z"/>
		</g>
		<g>
			<path fill="#4777BB" d="M308.645-646.03c-4.237,0-7.674,3.431-7.674,7.671c0,4.238,3.437,7.673,7.674,7.673
				c4.236,0,7.673-3.435,7.673-7.673C316.317-642.599,312.881-646.03,308.645-646.03z M308.645-631.733
				c-3.656,0-6.627-2.974-6.627-6.626s2.971-6.628,6.627-6.628c3.652,0,6.625,2.976,6.625,6.628S312.297-631.733,308.645-631.733z"
				/>
			<path fill="#4777BB" d="M333.885-634.796c0.146-1.06,0.229-2.142,0.241-3.241l-3.704-0.76c-0.011-0.57-0.047-1.132-0.101-1.686
				l3.581-1.264c-0.148-1.081-0.359-2.14-0.636-3.175l-3.773,0.269c-0.165-0.552-0.354-1.095-0.563-1.627l3.104-2.175
				c-0.43-0.991-0.92-1.95-1.467-2.872l-3.563,1.279c-0.313-0.493-0.646-0.969-0.995-1.429l2.399-2.938
				c-0.677-0.83-1.406-1.62-2.182-2.361l-3.086,2.192c-0.438-0.392-0.892-0.765-1.357-1.119l1.52-3.473
				c-0.873-0.616-1.785-1.175-2.731-1.677l-2.379,2.941c-0.532-0.259-1.072-0.498-1.627-0.714l0.523-3.754
				c-0.999-0.352-2.025-0.641-3.079-0.866l-1.5,3.476c-0.578-0.104-1.168-0.183-1.763-0.241l-0.505-3.752
				c-0.533-0.033-1.064-0.052-1.601-0.052c-0.539,0-1.07,0.02-1.6,0.052l-0.508,3.752c-0.596,0.058-1.184,0.136-1.764,0.241
				l-1.5-3.476c-1.054,0.225-2.08,0.515-3.082,0.868l0.525,3.752c-0.552,0.216-1.095,0.455-1.624,0.714l-2.382-2.941
				c-0.948,0.502-1.857,1.062-2.73,1.677l1.521,3.473c-0.47,0.354-0.923,0.729-1.358,1.119l-3.087-2.192
				c-0.776,0.741-1.505,1.531-2.182,2.363l2.399,2.935c-0.352,0.46-0.684,0.937-0.998,1.429l-3.559-1.279
				c-0.548,0.922-1.041,1.881-1.469,2.872l3.105,2.175c-0.211,0.533-0.398,1.076-0.564,1.627l-3.773-0.269
				c-0.275,1.035-0.488,2.094-0.633,3.175l3.577,1.264c-0.054,0.554-0.086,1.116-0.099,1.687l-3.705,0.76
				c0.012,1.099,0.094,2.181,0.242,3.241l3.785,0.25c0.096,0.549,0.211,1.095,0.35,1.632l-3.365,1.733
				c0.307,1.051,0.68,2.071,1.113,3.063l3.714-0.783c0.237,0.498,0.495,0.981,0.769,1.452l-2.771,2.576
				c0.577,0.93,1.213,1.818,1.903,2.663l3.364-1.756c0.355,0.409,0.728,0.802,1.113,1.18l-1.978,3.228
				c0.808,0.74,1.66,1.43,2.555,2.062l2.766-2.594c0.446,0.291,0.906,0.57,1.375,0.828l-1.033,3.648
				c0.973,0.496,1.982,0.929,3.021,1.299l1.964-3.243c0.505,0.161,1.02,0.302,1.538,0.425l-0.013,3.788
				c1.066,0.217,2.156,0.364,3.266,0.439l1.015-3.651c0.265,0.008,0.528,0.016,0.795,0.016c0.265,0,0.528-0.008,0.793-0.016
				l1.015,3.651c1.106-0.076,2.197-0.223,3.262-0.439l-0.008-3.788c0.52-0.124,1.031-0.264,1.536-0.425l1.962,3.243
				c1.039-0.37,2.049-0.803,3.02-1.299l-1.029-3.648c0.467-0.258,0.925-0.537,1.372-0.828l2.766,2.594
				c0.896-0.632,1.751-1.322,2.554-2.062l-1.975-3.228c0.384-0.378,0.757-0.771,1.113-1.18l3.363,1.756
				c0.689-0.845,1.327-1.733,1.903-2.663l-2.771-2.576c0.273-0.471,0.528-0.954,0.768-1.452l3.713,0.783
				c0.436-0.992,0.807-2.012,1.113-3.063l-3.363-1.733c0.137-0.537,0.254-1.083,0.35-1.632L333.885-634.796z M308.645-630.686
				c-4.237,0-7.674-3.435-7.674-7.673c0-4.24,3.437-7.671,7.674-7.671c4.236,0,7.673,3.432,7.673,7.671
				C316.317-634.121,312.881-630.686,308.645-630.686z"/>
		</g>
		<g>
			<path fill="#4777BB" d="M527.573-653.931v-10.774l-11.354-3.164c-0.516-2.987-1.293-5.884-2.326-8.659l8.22-8.429l-5.412-9.316
				l-11.414,2.978c-1.756-2.092-3.686-4.032-5.77-5.809l3.048-11.396l-9.272-5.474l-8.486,8.163
				c-2.873-1.081-5.875-1.897-8.975-2.435l-3.162-11.359h-10.768l-3.16,11.359c-2.865,0.499-5.653,1.229-8.328,2.196l-8.369-8.275
				l-9.352,5.342l2.892,11.422c-2.105,1.75-4.057,3.675-5.851,5.739l-11.37-3.13l-5.541,9.237l8.104,8.551
				c-1.146,2.971-2.01,6.081-2.569,9.296l-11.357,3.172v10.767l11.357,3.161c0.521,2.984,1.295,5.892,2.322,8.674l-8.216,8.423
				l5.41,9.313l11.409-2.973c1.765,2.09,3.696,4.03,5.776,5.804l-3.046,11.396l9.271,5.474l8.485-8.167
				c2.878,1.084,5.875,1.905,8.972,2.439l3.164,11.352h10.77l3.164-11.352c2.861-0.498,5.646-1.229,8.324-2.204l8.371,8.289
				l9.351-5.345l-2.888-11.433c2.104-1.741,4.049-3.666,5.842-5.734l11.381,3.133l5.531-9.234l-8.107-8.553
				c1.152-2.977,2.015-6.076,2.576-9.302L527.573-653.931z M467.286-620.41c-21.485,0-38.902-17.42-38.902-38.911
				c0-21.486,17.417-38.909,38.902-38.909c21.481,0,38.907,17.422,38.907,38.909C506.193-637.83,488.768-620.41,467.286-620.41z"/>
			<path fill="#4777BB" d="M467.286-698.23c-21.485,0-38.902,17.422-38.902,38.909c0,21.491,17.417,38.911,38.902,38.911
				c21.481,0,38.907-17.42,38.907-38.911C506.193-680.808,488.768-698.23,467.286-698.23z M467.286-622.343
				c-20.385,0-36.976-16.582-36.976-36.979c0-20.384,16.591-36.976,36.976-36.976c20.396,0,36.979,16.592,36.979,36.976
				C504.264-638.925,487.682-622.343,467.286-622.343z"/>
			<path fill="#4777BB" d="M467.286-693.099c-18.625,0-33.777,15.155-33.777,33.778c0,18.632,15.152,33.783,33.777,33.783
				c18.626,0,33.783-15.15,33.783-33.783C501.069-677.944,485.912-693.099,467.286-693.099z M467.286-626.046
				c-18.371,0-33.271-14.898-33.271-33.275c0-18.372,14.898-33.272,33.271-33.272c18.379,0,33.277,14.9,33.277,33.272
				C500.563-640.945,485.665-626.046,467.286-626.046z"/>
			<path fill="#4777BB" d="M467.286-692.594c-18.371,0-33.271,14.901-33.271,33.272c0,18.376,14.898,33.275,33.271,33.275
				c18.379,0,33.277-14.898,33.277-33.275C500.563-677.693,485.665-692.594,467.286-692.594z"/>
		</g>
		<g>
			<path fill="#4777BB" d="M635.888-743.875v-7.028l-7.409-2.063c-0.334-1.947-0.84-3.837-1.514-5.648l5.359-5.498l-3.529-6.077
				l-7.446,1.944c-1.142-1.365-2.401-2.63-3.761-3.789l1.986-7.434l-6.052-3.569l-5.531,5.323c-1.874-0.704-3.831-1.237-5.853-1.588
				l-2.064-7.41h-7.021l-2.063,7.41c-1.867,0.325-3.686,0.8-5.435,1.432l-5.459-5.396L574-779.785l1.888,7.452
				c-1.374,1.14-2.646,2.397-3.816,3.743l-7.417-2.042l-3.614,6.024l5.289,5.577c-0.75,1.938-1.315,3.968-1.679,6.063l-7.405,2.068
				v7.024l7.405,2.06c0.339,1.949,0.845,3.845,1.519,5.657l-5.36,5.497l3.53,6.072l7.439-1.938c1.149,1.365,2.409,2.629,3.77,3.786
				l-1.989,7.435l6.049,3.57l5.53-5.326c1.877,0.707,3.832,1.239,5.854,1.591l2.063,7.403h7.024l2.062-7.403
				c1.869-0.328,3.688-0.805,5.434-1.439l5.459,5.407l6.1-3.489l-1.883-7.453c1.374-1.137,2.639-2.394,3.805-3.742l7.426,2.043
				l3.61-6.024l-5.29-5.577c0.754-1.939,1.313-3.966,1.68-6.069L635.888-743.875z M596.568-722.013
				c-14.018,0-25.379-11.364-25.379-25.378c0-14.015,11.361-25.377,25.379-25.377c14.01,0,25.372,11.362,25.372,25.377
				C621.94-733.377,610.578-722.013,596.568-722.013z"/>
			<path fill="#4777BB" d="M596.568-772.769c-14.018,0-25.379,11.362-25.379,25.377c0,14.014,11.361,25.378,25.379,25.378
				c14.01,0,25.372-11.364,25.372-25.378S610.578-772.769,596.568-772.769z M596.568-723.275c-13.301,0-24.121-10.814-24.121-24.116
				c0-13.296,10.82-24.118,24.121-24.118c13.298,0,24.115,10.821,24.115,24.118C620.684-734.089,609.866-723.275,596.568-723.275z"
				/>
			<path fill="#4777BB" d="M596.568-769.423c-12.153,0-22.034,9.885-22.034,22.032c0,12.15,9.881,22.032,22.034,22.032
				c12.145,0,22.029-9.882,22.029-22.032C618.598-759.538,608.712-769.423,596.568-769.423z M596.568-725.69
				c-11.988,0-21.704-9.718-21.704-21.701c0-11.984,9.716-21.704,21.704-21.704c11.98,0,21.699,9.72,21.699,21.704
				C618.268-735.408,608.549-725.69,596.568-725.69z"/>
			<path fill="#4777BB" d="M596.568-769.095c-11.988,0-21.704,9.72-21.704,21.704c0,11.983,9.716,21.701,21.704,21.701
				c11.98,0,21.699-9.718,21.699-21.701C618.268-759.375,608.549-769.095,596.568-769.095z"/>
		</g>
		<path fill="#4777BB" d="M408.698-622.851v-6.409l-6.759-1.886c-0.308-1.776-0.771-3.501-1.385-5.153l4.894-5.017l-3.222-5.544
			l-6.797,1.771c-1.043-1.246-2.19-2.398-3.43-3.458l1.813-6.781l-5.521-3.26l-5.049,4.858c-1.711-0.645-3.498-1.128-5.343-1.448
			l-1.884-6.762h-6.407l-1.881,6.762c-1.704,0.297-3.363,0.731-4.959,1.308l-4.979-4.926l-5.565,3.179l1.722,6.8
			c-1.253,1.039-2.413,2.186-3.482,3.416l-6.767-1.863l-3.299,5.496l4.824,5.091c-0.684,1.766-1.197,3.619-1.529,5.531l-6.761,1.89
			v6.405l6.761,1.881c0.309,1.778,0.77,3.509,1.384,5.166l-4.894,5.013l3.224,5.54l6.789-1.766c1.05,1.246,2.2,2.398,3.438,3.454
			l-1.813,6.785l5.519,3.257l5.049-4.862c1.712,0.646,3.496,1.134,5.342,1.454l1.883,6.756h6.41l1.883-6.756
			c1.704-0.301,3.36-0.735,4.955-1.315l4.982,4.934l5.565-3.181l-1.722-6.804c1.255-1.037,2.409-2.183,3.478-3.417l6.774,1.865
			l3.294-5.496l-4.826-5.087c0.687-1.77,1.194-3.619,1.532-5.54L408.698-622.851z M372.816-602.899
			c-12.79,0-23.156-10.371-23.156-23.158c0-12.789,10.366-23.158,23.156-23.158c12.785,0,23.154,10.369,23.154,23.158
			C395.971-613.27,385.602-602.899,372.816-602.899z"/>
		<path fill="#4777BB" d="M372.816-649.215c-12.79,0-23.156,10.369-23.156,23.158c0,12.788,10.366,23.158,23.156,23.158
			c12.785,0,23.154-10.371,23.154-23.158C395.971-638.846,385.602-649.215,372.816-649.215z M372.816-604.049
			c-12.137,0-22.009-9.867-22.009-22.008c0-12.134,9.872-22.009,22.009-22.009c12.138,0,22.009,9.875,22.009,22.009
			C394.825-613.916,384.954-604.049,372.816-604.049z"/>
		<path fill="#4777BB" d="M372.816-646.162c-11.088,0-20.107,9.018-20.107,20.105c0,11.085,9.021,20.105,20.107,20.105
			c11.085,0,20.105-9.02,20.105-20.105C392.922-637.145,383.901-646.162,372.816-646.162z M372.816-606.253
			c-10.937,0-19.805-8.869-19.805-19.804c0-10.937,8.868-19.806,19.805-19.806s19.805,8.869,19.805,19.806
			C392.621-615.122,383.752-606.253,372.816-606.253z"/>
		<path fill="#4777BB" d="M372.816-645.863c-10.937,0-19.805,8.869-19.805,19.806c0,10.935,8.868,19.804,19.805,19.804
			s19.805-8.869,19.805-19.804C392.621-636.994,383.752-645.863,372.816-645.863z"/>
	</g>
</g>
<g id="Capa_3">
</g>
</svg>
