<?xml version="1.0" encoding="utf-8"?>
<!-- Generator: Adobe Illustrator 15.0.2, SVG Export Plug-In . SVG Version: 6.00 Build 0)  -->
<!DOCTYPE svg PUBLIC "-//W3C//DTD SVG 1.1//EN" "http://www.w3.org/Graphics/SVG/1.1/DTD/svg11.dtd">
<svg version="1.1" id="Capa_1" xmlns="http://www.w3.org/2000/svg" xmlns:xlink="http://www.w3.org/1999/xlink" x="0px" y="0px"
	 width="600px" height="340px" viewBox="-120 20 600 340" enable-background="new -120 20 600 340" xml:space="preserve">
<g>
	<path fill="#C4D3E9" d="M56.6,62.702c-34.961,0-63.3,28.342-63.3,63.3c0,34.962,28.339,63.302,63.3,63.302
		c34.96,0,63.299-28.34,63.299-63.302C119.898,91.043,91.56,62.702,56.6,62.702 M56.6,140.854c-8.199,0-14.849-6.648-14.849-14.852
		c0-8.199,6.649-14.848,14.849-14.848c8.201,0,14.848,6.648,14.848,14.848C71.447,134.205,64.801,140.854,56.6,140.854z"/>
	<polygon fill="#C4D3E9" points="50.608,65.305 55.297,49.155 67.541,49.157 71.969,66.347 	"/>
	<polygon fill="#C4D3E9" points="20.185,75.141 18.107,58.453 29.247,54.107 40.218,67.656 	"/>
	<polygon fill="#C4D3E9" points="2.15,99.127 -9.726,87.216 -3.588,76.951 13.385,80.929 	"/>
	<polygon fill="#C4D3E9" points="-4.062,129.75 -20.296,125.354 -20.096,113.394 -3.4,108.377 	"/>
	<polygon fill="#C4D3E9" points="5.447,159.533 -10.952,163.267 -16.387,152.611 -3.996,140.347 	"/>
	<polygon fill="#C4D3E9" points="29.402,182.013 16.646,192.98 6.862,186.104 12.081,169.469 	"/>
	<polygon fill="#C4D3E9" points="62.919,187.783 57.736,203.788 45.807,203.008 41.602,186.087 	"/>
	<polygon fill="#C4D3E9" points="93.43,176.471 97.088,192.891 86.413,198.276 74.201,185.835 	"/>
	<polygon fill="#C4D3E9" points="113.968,151.199 125.006,163.892 118.18,173.713 101.519,168.584 	"/>
	<polygon fill="#C4D3E9" points="118.321,120.408 134.412,125.312 133.841,137.254 116.998,141.752 	"/>
	<polygon fill="#C4D3E9" points="107.022,89.897 123.619,87.17 128.395,98.13 115.281,109.622 	"/>
	<polygon fill="#C4D3E9" points="82.507,69.522 94.489,57.718 104.713,63.914 100.637,80.864 	"/>
	<path fill="#C4D3E9" d="M165.747,81.976c-13.522,0-24.484,10.963-24.484,24.485c0,13.525,10.962,24.486,24.484,24.486
		c13.523,0,24.485-10.961,24.485-24.486C190.232,92.939,179.271,81.976,165.747,81.976 M165.747,115.84
		c-5.179,0-9.377-4.201-9.377-9.378s4.198-9.378,9.377-9.378c5.181,0,9.376,4.201,9.376,9.378S170.928,115.84,165.747,115.84z"/>
	<path fill="#C4D3E9" d="M170.961,106.333c0,2.81-2.273,5.083-5.08,5.083c-2.806,0-5.081-2.273-5.081-5.083
		c0-2.804,2.275-5.078,5.081-5.078C168.688,101.255,170.961,103.529,170.961,106.333z"/>
	<polygon fill="#C4D3E9" points="161.319,82.756 172.518,68.693 182.938,71.817 183.2,90.052 	"/>
	<polygon fill="#C4D3E9" points="184.664,91.696 202.127,95.979 203.649,106.748 187.199,114.621 	"/>
	<polygon fill="#C4D3E9" points="187.651,116.108 192.893,133.309 184.41,140.119 169.24,129.996 	"/>
	<polygon fill="#C4D3E9" points="169.58,128.635 158.672,142.931 148.191,140.027 147.552,121.799 	"/>
	<polygon fill="#C4D3E9" points="147.19,121.676 129.451,118.717 127.124,108.096 142.938,99.006 	"/>
	<polygon fill="#C4D3E9" points="143.221,99.205 136.15,82.677 143.841,74.983 160.021,83.401 	"/>
</g>
<g>
	<path fill="#C4D3E9" d="M251.705,142.086c19.489,16.496,48.658,14.068,65.153-5.42s14.069-48.657-5.419-65.153
		c-19.488-16.495-48.656-14.068-65.152,5.421C229.793,96.422,232.218,125.592,251.705,142.086 M288.579,98.522
		c4.571,3.868,5.14,10.711,1.27,15.284c-3.868,4.571-10.712,5.14-15.282,1.271c-4.571-3.87-5.141-10.712-1.271-15.283
		C277.165,95.222,284.008,94.652,288.579,98.522z"/>
	<polygon fill="#C4D3E9" points="256.272,143.463 246.04,150.253 239.215,144.475 244.856,132.803 	"/>
	<polygon fill="#C4D3E9" points="277.873,152.334 271.157,162.617 262.897,159.783 263.174,147.055 	"/>
	<polygon fill="#C4D3E9" points="299.244,147.473 300.244,159.715 291.98,162.541 284.395,152.316 	"/>
	<polygon fill="#C4D3E9" points="317.155,133.332 324.131,143.443 318.377,150.016 306.701,144.936 	"/>
	<polygon fill="#C4D3E9" points="325.908,112.244 336.811,117.9 334.812,126.404 322.118,127.395 	"/>
	<polygon fill="#C4D3E9" points="323.16,88.41 335.446,88.315 337.655,96.764 326.896,103.575 	"/>
	<polygon fill="#C4D3E9" points="307.199,69.379 317.64,62.903 323.922,68.966 318.282,80.383 	"/>
	<polygon fill="#C4D3E9" points="284.854,61.29 290.563,50.41 299.055,52.444 299.991,65.142 	"/>
	<polygon fill="#C4D3E9" points="261.48,65.686 261.317,53.403 269.756,51.148 276.624,61.869 	"/>
	<polygon fill="#C4D3E9" points="244.527,80.796 237.87,70.471 243.823,64.083 255.336,69.523 	"/>
	<polygon fill="#C4D3E9" points="236.428,103.135 225.891,96.825 228.4,88.462 241.133,88.243 	"/>
	<polygon fill="#C4D3E9" points="240.481,126.061 228.232,126.986 225.456,118.71 235.727,111.184 	"/>
	<path fill="#C4D3E9" d="M199.956,79.843c7.537,6.38,18.82,5.441,25.2-2.097c6.383-7.54,5.443-18.821-2.095-25.201
		c-7.538-6.38-18.82-5.443-25.202,2.096C191.479,62.179,192.417,73.463,199.956,79.843 M215.934,60.966
		c2.886,2.443,3.245,6.766,0.803,9.652c-2.443,2.886-6.767,3.246-9.652,0.803c-2.888-2.444-3.245-6.765-0.802-9.651
		C208.725,58.884,213.045,58.522,215.934,60.966z"/>
	<circle fill="#C4D3E9" cx="211.375" cy="66.203" r="3.711"/>
	<polygon fill="#C4D3E9" points="202.792,81.498 189.915,84.053 185.579,77.395 194.037,67.106 	"/>
	<polygon fill="#C4D3E9" points="193.997,65.5 186.282,54.873 190.516,48.151 203.399,51.524 	"/>
	<polygon fill="#C4D3E9" points="203.85,50.481 209.044,38.42 216.985,38.625 220.666,51.426 	"/>
	<polygon fill="#C4D3E9" points="219.834,52.025 232.66,49.203 237.132,55.766 228.889,66.229 	"/>
	<polygon fill="#C4D3E9" points="229.031,66.468 237.524,76.488 233.811,83.507 220.707,81.112 	"/>
	<polygon fill="#C4D3E9" points="220.642,80.868 216.784,93.417 208.868,94.077 203.82,81.751 	"/>
</g>
<g id="Capa_1_1_">
	<path fill="#4777BB" d="M242.729,195.421c19.738,0,35.75-16.003,35.75-35.75c0-19.748-16.012-35.741-35.75-35.741
		c-19.726,0-35.748,15.993-35.748,35.741C206.981,179.418,223.005,195.421,242.729,195.421L242.729,195.421z"/>
	<g>
		<path fill="#7A9DC9" d="M71.739,359.999V256.694h-5.388l-8.478,24.479c-3.167,9.188-11.125,16.083-21.237,16.083
			c0,0-29.603,0-38.586,0c-7.71,0-13.961-6.249-13.961-13.956c0-7.708,6.251-13.766,13.961-13.766c4.861,0,20.572,0,34.807,0
			l11.493-33.219c4.731-17.375,19.696-30.164,38.551-30.164c10.902,0,57.047,0,68.238,0c22.545,0,38.119,18.279,38.119,40.826
			c0,11.484,0,91.121,0,98.821c0,7.713-6.063,13.957-13.766,13.957c-7.713,0-13.956-6.243-13.956-13.957c0-8.979,0-89.104,0-89.104
			h-7.188v103.304L71.739,359.999L71.739,359.999z"/>
		<path fill="#7A9DC9" d="M81.175,166.121c0.001,17.603,14.27,31.868,31.867,31.868c17.602,0,31.863-14.266,31.865-31.868H81.175z"
			/>
		<g>
			<path fill="#7A9DC9" d="M152.207,167.2H73.875c-1.864,0-3.376-1.512-3.376-3.376c0-1.864,1.512-3.375,3.376-3.375h78.332
				c1.864,0,3.375,1.511,3.375,3.375C155.582,165.689,154.071,167.2,152.207,167.2z"/>
		</g>
		<path fill="#7A9DC9" d="M78.428,155.891c0,0-1.292-16.057,5.373-24.751c6.984-9.115,16.104-10.907,16.104-10.907v35.659H78.428
			V155.891z"/>
		<path fill="#7A9DC9" d="M148.581,155.891c0,0,1.291-16.057-5.373-24.751c-6.984-9.115-16.102-10.907-16.102-10.907v35.659h21.475
			V155.891z"/>
		<rect x="103.487" y="117.391" fill="#7A9DC9" width="20.035" height="38.5"/>
	</g>
	<path fill="#4777BB" d="M197.06,259.336c0,0,0,46.161,0,100.664h91.354c0-54.503,0-100.664,0-100.664h7.949c0,0,0,88.614,0,98.549
		c0,0.72,0.066,1.421,0.162,2.114h30.337c0.092-0.693,0.157-1.395,0.157-2.114c0-8.521,0-96.59,0-109.295
		c0-24.931-20.412-45.151-45.36-45.151c-12.372,0-55.875,0-67.936,0c-15.738,0-29.67,8.072-37.82,20.287
		c-11.93,17.901-24.715,37.199-31.485,47.422c-17.358,0-43.985,0-50.652,0c-8.526,0-15.44,6.709-15.44,15.226
		c0,8.522,6.914,15.43,15.44,15.43c9.934,0,59.172-0.096,59.172-0.096c4.918-0.097,9.697-2.521,12.608-6.935
		c5.476-8.293,23.556-35.437,23.556-35.437H197.06z M242.835,296.368l-9.41-17.729l6.038-56.087h3.372h3.37l6.038,56.087
		L242.835,296.368z M242.731,209.276h10.314l-6.986,10.617h-3.328h-3.33l-6.986-10.617H242.731z"/>
</g>
<g id="Capa_2" display="none">
	<g display="inline">
		<g>
			<path fill="#4777BB" d="M-838.967,258.413c-6.469,0-11.711,5.242-11.711,11.713c0,6.467,5.242,11.711,11.711,11.711
				c6.469,0,11.711-5.244,11.711-11.711C-827.256,263.655-832.499,258.413-838.967,258.413z M-838.967,280.239
				c-5.578,0-10.115-4.534-10.115-10.113c0-5.577,4.537-10.112,10.115-10.112c5.577,0,10.115,4.536,10.115,10.112
				C-828.852,275.705-833.39,280.239-838.967,280.239z"/>
			<path fill="#4777BB" d="M-800.436,275.566c0.226-1.621,0.349-3.271,0.369-4.947l-5.654-1.161
				c-0.019-0.868-0.07-1.729-0.152-2.578l5.463-1.927c-0.223-1.648-0.547-3.266-0.969-4.844l-5.76,0.408
				c-0.253-0.841-0.54-1.668-0.859-2.479l4.74-3.326c-0.655-1.517-1.405-2.979-2.242-4.381l-5.435,1.946
				c-0.477-0.75-0.986-1.476-1.521-2.18l3.663-4.481c-1.034-1.269-2.146-2.474-3.331-3.601l-4.711,3.344
				c-0.666-0.596-1.357-1.166-2.074-1.705l2.321-5.307c-1.331-0.936-2.723-1.793-4.169-2.559l-3.635,4.488
				c-0.81-0.394-1.637-0.758-2.481-1.088l0.804-5.729c-1.525-0.535-3.094-0.979-4.702-1.321l-2.288,5.309
				c-0.887-0.159-1.786-0.283-2.695-0.37l-0.771-5.729c-0.81-0.049-1.622-0.078-2.441-0.078c-0.82,0-1.633,0.028-2.441,0.078
				l-0.771,5.729c-0.912,0.087-1.811,0.211-2.696,0.37l-2.287-5.309c-1.608,0.342-3.175,0.786-4.702,1.321l0.801,5.729
				c-0.842,0.33-1.67,0.695-2.479,1.088l-3.635-4.488c-1.447,0.766-2.839,1.624-4.17,2.559l2.319,5.307
				c-0.714,0.539-1.405,1.109-2.073,1.705l-4.711-3.344c-1.186,1.127-2.295,2.332-3.33,3.603l3.664,4.481
				c-0.534,0.703-1.045,1.428-1.521,2.178l-5.436-1.946c-0.834,1.401-1.585,2.864-2.24,4.381l4.738,3.326
				c-0.316,0.812-0.604,1.64-0.859,2.479l-5.758-0.408c-0.423,1.578-0.748,3.195-0.968,4.844l5.462,1.927
				c-0.082,0.849-0.135,1.71-0.152,2.578l-5.652,1.161c0.018,1.675,0.141,3.326,0.366,4.947l5.778,0.38
				c0.146,0.838,0.325,1.668,0.533,2.491l-5.135,2.642c0.469,1.604,1.037,3.167,1.699,4.676l5.668-1.188
				c0.363,0.754,0.754,1.492,1.171,2.216l-4.229,3.933c0.883,1.415,1.855,2.776,2.908,4.064l5.137-2.682
				c0.543,0.618,1.109,1.217,1.696,1.795l-3.015,4.935c1.231,1.126,2.533,2.181,3.898,3.146l4.223-3.959
				c0.684,0.444,1.381,0.867,2.098,1.26l-1.578,5.569c1.486,0.761,3.026,1.419,4.611,1.987l2.994-4.951
				c0.771,0.242,1.556,0.457,2.348,0.646l-0.016,5.783c1.625,0.328,3.289,0.557,4.982,0.678l1.547-5.584
				c0.401,0.02,0.807,0.027,1.213,0.027c0.406,0,0.811-0.008,1.213-0.027l1.548,5.584c1.692-0.122,3.354-0.35,4.981-0.678
				l-0.018-5.783c0.796-0.19,1.576-0.405,2.35-0.646l2.992,4.951c1.588-0.568,3.127-1.227,4.611-1.987l-1.575-5.569
				c0.715-0.393,1.413-0.815,2.097-1.26l4.222,3.959c1.368-0.965,2.67-2.02,3.899-3.146l-3.014-4.935
				c0.586-0.578,1.152-1.177,1.695-1.795l5.136,2.682c1.054-1.289,2.026-2.65,2.907-4.064l-4.229-3.933
				c0.418-0.724,0.809-1.462,1.172-2.216l5.668,1.188c0.661-1.51,1.23-3.071,1.698-4.676l-5.134-2.642
				c0.207-0.822,0.387-1.652,0.534-2.491L-800.436,275.566z M-838.967,281.837c-6.469,0-11.711-5.244-11.711-11.711
				c0-6.471,5.242-11.713,11.711-11.713c6.469,0,11.711,5.242,11.711,11.713C-827.256,276.593-832.499,281.837-838.967,281.837z"/>
		</g>
		<g>
			<path fill="#4777BB" d="M-562.561,142.886v-4.237l-4.465-1.246c-0.203-1.173-0.513-2.314-0.916-3.405l3.232-3.315l-2.127-3.665
				l-4.492,1.172c-0.688-0.823-1.448-1.587-2.266-2.285l1.195-4.482l-3.647-2.153l-3.336,3.209c-1.13-0.424-2.31-0.747-3.53-0.957
				l-1.245-4.469h-4.231l-1.246,4.469c-1.128,0.196-2.223,0.483-3.275,0.863l-3.293-3.255l-3.676,2.102l1.138,4.492
				c-0.831,0.689-1.597,1.446-2.304,2.257l-4.469-1.231l-2.18,3.633l3.189,3.362c-0.453,1.17-0.793,2.394-1.014,3.657l-4.469,1.248
				v4.235l4.469,1.244c0.203,1.173,0.51,2.315,0.914,3.41l-3.232,3.314l2.13,3.662l4.486-1.168c0.694,0.821,1.454,1.583,2.27,2.281
				l-1.198,4.484l3.648,2.152l3.34-3.213c1.131,0.426,2.307,0.748,3.525,0.961l1.246,4.462h4.236l1.24-4.462
				c1.129-0.199,2.223-0.485,3.278-0.868l3.29,3.258l3.679-2.103l-1.136-4.495c0.83-0.688,1.595-1.444,2.297-2.257l4.479,1.232
				l2.174-3.631l-3.188-3.364c0.454-1.17,0.793-2.391,1.015-3.658L-562.561,142.886z M-586.272,156.068
				c-8.451,0-15.302-6.851-15.302-15.302c0-8.451,6.851-15.304,15.302-15.304c8.447,0,15.299,6.853,15.299,15.304
				C-570.973,149.217-577.825,156.068-586.272,156.068z"/>
			<path fill="#4777BB" d="M-586.272,125.462c-8.451,0-15.302,6.853-15.302,15.304c0,8.451,6.851,15.302,15.302,15.302
				c8.447,0,15.299-6.851,15.299-15.302C-570.973,132.315-577.825,125.462-586.272,125.462z M-586.272,155.311
				c-8.021,0-14.546-6.523-14.546-14.544c0-8.017,6.524-14.544,14.546-14.544c8.018,0,14.543,6.527,14.543,14.544
				C-571.729,148.788-578.254,155.311-586.272,155.311z"/>
			<path fill="#4777BB" d="M-586.272,127.479c-7.327,0-13.288,5.962-13.288,13.288c0,7.327,5.961,13.285,13.288,13.285
				c7.323,0,13.287-5.958,13.287-13.285C-572.985,133.441-578.949,127.479-586.272,127.479z M-586.272,153.853
				c-7.228,0-13.088-5.86-13.088-13.086s5.86-13.087,13.088-13.087c7.229,0,13.088,5.861,13.088,13.087
				S-579.043,153.853-586.272,153.853z"/>
			<path fill="#4777BB" d="M-586.272,127.68c-7.228,0-13.088,5.861-13.088,13.087s5.86,13.086,13.088,13.086
				c7.229,0,13.088-5.86,13.088-13.086S-579.043,127.68-586.272,127.68z"/>
		</g>
		<g>
			<path fill="#4777BB" d="M-739.377,272.923v-4.235l-4.465-1.246c-0.203-1.174-0.513-2.313-0.915-3.404l3.232-3.316l-2.128-3.664
				l-4.492,1.172c-0.688-0.823-1.447-1.588-2.266-2.285l1.195-4.481l-3.646-2.153l-3.336,3.209c-1.131-0.424-2.31-0.746-3.53-0.957
				l-1.245-4.47h-4.232l-1.246,4.47c-1.127,0.194-2.223,0.483-3.275,0.863l-3.293-3.255l-3.676,2.101l1.138,4.492
				c-0.83,0.69-1.597,1.446-2.303,2.258l-4.47-1.23l-2.18,3.633l3.189,3.363c-0.452,1.169-0.793,2.393-1.014,3.656l-4.468,1.248
				v4.233l4.468,1.245c0.204,1.173,0.51,2.314,0.915,3.41l-3.233,3.313l2.131,3.666l4.485-1.17c0.694,0.822,1.454,1.584,2.271,2.28
				l-1.198,4.485l3.647,2.152l3.34-3.214c1.132,0.425,2.307,0.748,3.525,0.962l1.246,4.461h4.236l1.241-4.461
				c1.128-0.199,2.223-0.486,3.278-0.867l3.29,3.256l3.679-2.103l-1.137-4.495c0.83-0.688,1.595-1.443,2.297-2.257l4.479,1.231
				l2.175-3.631l-3.189-3.362c0.454-1.169,0.794-2.392,1.015-3.658L-739.377,272.923z M-763.088,286.105
				c-8.45,0-15.301-6.851-15.301-15.303c0-8.449,6.851-15.303,15.301-15.303c8.447,0,15.299,6.854,15.299,15.303
				C-747.79,279.255-754.641,286.105-763.088,286.105z"/>
			<path fill="#4777BB" d="M-763.088,255.5c-8.45,0-15.301,6.854-15.301,15.303c0,8.452,6.851,15.303,15.301,15.303
				c8.447,0,15.299-6.851,15.299-15.303C-747.79,262.354-754.641,255.5-763.088,255.5z M-763.088,285.35
				c-8.021,0-14.545-6.523-14.545-14.546c0-8.016,6.524-14.543,14.545-14.543c8.018,0,14.543,6.527,14.543,14.543
				C-748.545,278.826-755.071,285.35-763.088,285.35z"/>
			<path fill="#4777BB" d="M-763.088,257.52c-7.326,0-13.287,5.961-13.287,13.285c0,7.327,5.961,13.284,13.287,13.284
				c7.324,0,13.287-5.957,13.287-13.284C-749.801,263.479-755.764,257.52-763.088,257.52z M-763.088,283.891
				c-7.228,0-13.087-5.859-13.087-13.086c0-7.226,5.859-13.088,13.087-13.088c7.229,0,13.089,5.862,13.089,13.088
				C-750,278.031-755.86,283.891-763.088,283.891z"/>
			<path fill="#4777BB" d="M-763.088,257.717c-7.228,0-13.087,5.862-13.087,13.088c0,7.227,5.859,13.086,13.087,13.086
				c7.229,0,13.089-5.859,13.089-13.086C-750,263.579-755.86,257.717-763.088,257.717z"/>
		</g>
		<g>
			<path fill="#4777BB" d="M-622.146,96.393c-2.259,0-4.089,1.83-4.089,4.089c0,2.257,1.83,4.089,4.089,4.089
				c2.256,0,4.09-1.832,4.09-4.089C-618.056,98.223-619.89,96.393-622.146,96.393z M-622.146,104.012
				c-1.948,0-3.534-1.583-3.534-3.531c0-1.947,1.586-3.532,3.534-3.532s3.53,1.585,3.53,3.532
				C-618.616,102.429-620.198,104.012-622.146,104.012z"/>
			<path fill="#4777BB" d="M-608.698,102.379c0.078-0.563,0.122-1.141,0.131-1.727l-1.973-0.404c-0.009-0.304-0.027-0.605-0.057-0.9
				l1.911-0.672c-0.081-0.576-0.196-1.14-0.339-1.692l-2.014,0.144c-0.087-0.294-0.186-0.583-0.297-0.867l1.654-1.161
				c-0.229-0.526-0.494-1.038-0.783-1.529l-1.9,0.682c-0.165-0.263-0.341-0.517-0.529-0.763l1.279-1.563
				c-0.359-0.443-0.75-0.863-1.161-1.258l-1.646,1.168c-0.234-0.209-0.474-0.408-0.724-0.597l0.808-1.852
				c-0.463-0.327-0.947-0.625-1.454-0.892l-1.269,1.566c-0.282-0.138-0.572-0.264-0.865-0.381l0.279-2
				c-0.533-0.188-1.08-0.342-1.639-0.461l-0.801,1.853c-0.31-0.055-0.626-0.097-0.941-0.129l-0.268-1.998
				c-0.282-0.018-0.565-0.027-0.853-0.027s-0.571,0.009-0.853,0.027l-0.271,1.998c-0.315,0.032-0.631,0.075-0.941,0.129
				l-0.795-1.853c-0.564,0.12-1.111,0.273-1.646,0.461l0.281,2c-0.295,0.117-0.584,0.243-0.867,0.381l-1.269-1.566
				c-0.502,0.267-0.991,0.565-1.454,0.892l0.808,1.852c-0.25,0.189-0.487,0.388-0.724,0.597l-1.642-1.168
				c-0.415,0.395-0.806,0.815-1.165,1.258l1.279,1.563c-0.188,0.247-0.363,0.5-0.529,0.763l-1.9-0.682
				c-0.289,0.492-0.549,1.003-0.78,1.529l1.656,1.161c-0.113,0.285-0.213,0.573-0.302,0.867l-2.01-0.144
				c-0.146,0.552-0.26,1.116-0.338,1.692l1.906,0.672c-0.029,0.295-0.048,0.597-0.055,0.9l-1.972,0.404
				c0.006,0.585,0.052,1.163,0.128,1.727l2.016,0.134c0.052,0.292,0.113,0.582,0.188,0.869l-1.792,0.922
				c0.161,0.56,0.359,1.105,0.591,1.633l1.98-0.416c0.126,0.263,0.265,0.522,0.409,0.774l-1.478,1.371
				c0.309,0.496,0.646,0.97,1.017,1.418l1.793-0.933c0.188,0.215,0.386,0.425,0.593,0.626l-1.056,1.722
				c0.43,0.395,0.886,0.762,1.363,1.098l1.473-1.383c0.239,0.156,0.481,0.304,0.731,0.441l-0.547,1.944
				c0.518,0.264,1.053,0.498,1.608,0.694l1.043-1.729c0.272,0.084,0.544,0.16,0.82,0.226l-0.005,2.02
				c0.566,0.115,1.15,0.193,1.738,0.233l0.541-1.945c0.143,0.003,0.282,0.007,0.425,0.007c0.141,0,0.283-0.004,0.424-0.007
				l0.539,1.945c0.591-0.041,1.171-0.119,1.737-0.233l-0.004-2.02c0.276-0.066,0.551-0.142,0.819-0.226l1.043,1.729
				c0.556-0.196,1.091-0.43,1.609-0.694l-0.548-1.944c0.25-0.137,0.494-0.285,0.731-0.441l1.473,1.383
				c0.479-0.335,0.934-0.703,1.363-1.098l-1.054-1.722c0.205-0.201,0.402-0.411,0.591-0.626l1.797,0.933
				c0.368-0.448,0.704-0.922,1.015-1.418l-1.477-1.371c0.146-0.252,0.282-0.511,0.406-0.774l1.98,0.416
				c0.232-0.528,0.43-1.073,0.592-1.633l-1.793-0.922c0.074-0.287,0.136-0.577,0.188-0.869L-608.698,102.379z M-622.146,104.571
				c-2.259,0-4.089-1.832-4.089-4.089c0-2.259,1.83-4.089,4.089-4.089c2.256,0,4.09,1.83,4.09,4.089
				C-618.056,102.739-619.89,104.571-622.146,104.571z"/>
		</g>
		<g>
			<path fill="#4777BB" d="M-707.355,74.062c-6.062,0-10.978,4.915-10.978,10.978s4.916,10.979,10.978,10.979
				c6.063,0,10.978-4.916,10.978-10.979S-701.292,74.062-707.355,74.062z M-707.355,94.521c-5.229,0-9.481-4.254-9.481-9.481
				c0-5.228,4.252-9.479,9.481-9.479c5.228,0,9.479,4.251,9.479,9.479S-702.127,94.521-707.355,94.521z"/>
			<path fill="#4777BB" d="M-671.236,90.139c0.206-1.517,0.326-3.065,0.345-4.638l-5.3-1.086c-0.019-0.814-0.066-1.618-0.145-2.416
				l5.122-1.806c-0.211-1.544-0.514-3.061-0.908-4.54l-5.399,0.382c-0.239-0.788-0.509-1.564-0.806-2.324l4.443-3.119
				c-0.614-1.418-1.316-2.788-2.1-4.105l-5.098,1.824c-0.447-0.702-0.927-1.382-1.427-2.042l3.435-4.2
				c-0.969-1.189-2.012-2.319-3.119-3.376l-4.413,3.133c-0.63-0.559-1.276-1.093-1.948-1.6l2.18-4.973
				c-1.254-0.877-2.557-1.679-3.914-2.399l-3.404,4.208c-0.758-0.37-1.532-0.71-2.326-1.02l0.752-5.371
				c-1.427-0.501-2.901-0.916-4.403-1.239l-2.149,4.974c-0.828-0.151-1.672-0.264-2.521-0.345l-0.726-5.369
				c-0.76-0.048-1.52-0.074-2.288-0.074c-0.771,0-1.53,0.026-2.288,0.074l-0.728,5.369c-0.849,0.081-1.689,0.194-2.522,0.345
				l-2.147-4.974c-1.504,0.323-2.974,0.738-4.403,1.239l0.75,5.371c-0.791,0.309-1.568,0.65-2.324,1.02l-3.408-4.208
				c-1.354,0.72-2.661,1.521-3.908,2.401l2.174,4.97c-0.668,0.507-1.316,1.041-1.941,1.6l-4.416-3.133
				c-1.111,1.057-2.152,2.187-3.123,3.377l3.435,4.199c-0.499,0.661-0.978,1.34-1.425,2.042l-5.096-1.824
				c-0.782,1.317-1.485,2.687-2.099,4.105l4.44,3.119c-0.297,0.76-0.566,1.536-0.805,2.324l-5.398-0.382
				c-0.396,1.479-0.699,2.996-0.907,4.54l5.119,1.806c-0.075,0.797-0.125,1.602-0.144,2.416l-5.299,1.086
				c0.019,1.573,0.135,3.121,0.346,4.638l5.417,0.356c0.136,0.788,0.303,1.566,0.499,2.333l-4.813,2.478
				c0.438,1.505,0.973,2.969,1.593,4.387l5.313-1.117c0.34,0.707,0.708,1.401,1.1,2.078l-3.967,3.685
				c0.829,1.328,1.738,2.601,2.727,3.808l4.814-2.508c0.509,0.581,1.039,1.14,1.592,1.683l-2.826,4.619
				c1.151,1.06,2.373,2.048,3.652,2.952l3.959-3.714c0.637,0.419,1.295,0.816,1.965,1.186l-1.477,5.219
				c1.391,0.71,2.836,1.333,4.32,1.863l2.809-4.642c0.723,0.229,1.456,0.432,2.201,0.61l-0.015,5.42
				c1.522,0.307,3.083,0.521,4.67,0.63l1.448-5.228c0.378,0.013,0.756,0.024,1.138,0.024c0.378,0,0.759-0.011,1.136-0.024
				l1.45,5.228c1.589-0.109,3.146-0.323,4.67-0.63l-0.011-5.42c0.742-0.179,1.473-0.382,2.196-0.61l2.808,4.642
				c1.486-0.53,2.93-1.152,4.32-1.863l-1.475-5.219c0.669-0.369,1.324-0.765,1.962-1.186l3.96,3.714
				c1.282-0.904,2.503-1.892,3.656-2.952l-2.828-4.621c0.549-0.541,1.082-1.1,1.59-1.681l4.814,2.508
				c0.99-1.208,1.9-2.48,2.727-3.808l-3.967-3.685c0.395-0.676,0.76-1.371,1.103-2.078l5.313,1.117
				c0.62-1.418,1.152-2.882,1.591-4.387l-4.813-2.478c0.193-0.767,0.363-1.545,0.499-2.333L-671.236,90.139z M-707.355,96.019
				c-6.062,0-10.978-4.916-10.978-10.979s4.916-10.978,10.978-10.978c6.063,0,10.978,4.915,10.978,10.978
				S-701.292,96.019-707.355,96.019z"/>
		</g>
		<g>
			<path fill="#4777BB" d="M-545.812,182.756c-1.515,0-2.737,1.221-2.737,2.735c0,1.508,1.223,2.731,2.737,2.731
				c1.51,0,2.732-1.225,2.732-2.731C-543.08,183.977-544.302,182.756-545.812,182.756z M-545.812,187.85
				c-1.306,0-2.362-1.06-2.362-2.358c0-1.306,1.057-2.363,2.362-2.363c1.3,0,2.358,1.058,2.358,2.363
				C-543.454,186.791-544.512,187.85-545.812,187.85z"/>
			<path fill="#4777BB" d="M-536.819,186.761c0.054-0.382,0.084-0.764,0.086-1.155l-1.321-0.273c-0.004-0.2-0.015-0.398-0.033-0.6
				l1.274-0.451c-0.051-0.385-0.128-0.76-0.227-1.133l-1.346,0.098c-0.057-0.196-0.123-0.391-0.197-0.576l1.104-0.781
				c-0.153-0.351-0.326-0.693-0.521-1.021l-1.271,0.455c-0.11-0.175-0.232-0.343-0.355-0.509l0.854-1.048
				c-0.237-0.293-0.499-0.574-0.774-0.838l-1.102,0.781c-0.154-0.141-0.315-0.273-0.484-0.401l0.543-1.237
				c-0.313-0.221-0.637-0.419-0.973-0.595l-0.85,1.043c-0.191-0.089-0.382-0.178-0.58-0.25l0.186-1.336
				c-0.355-0.126-0.723-0.231-1.096-0.314l-0.533,1.239c-0.207-0.037-0.416-0.066-0.629-0.084l-0.18-1.336
				c-0.191-0.012-0.379-0.021-0.569-0.021c-0.194,0-0.382,0.008-0.574,0.021l-0.18,1.336c-0.213,0.019-0.421,0.047-0.628,0.084
				l-0.537-1.239c-0.374,0.083-0.737,0.188-1.095,0.314l0.188,1.336c-0.199,0.072-0.393,0.161-0.581,0.25l-0.849-1.043
				c-0.337,0.175-0.661,0.374-0.973,0.595l0.543,1.237c-0.17,0.128-0.33,0.26-0.485,0.401l-1.101-0.781
				c-0.277,0.264-0.537,0.545-0.779,0.838l0.855,1.048c-0.124,0.166-0.242,0.334-0.354,0.509l-1.27-0.455
				c-0.195,0.325-0.368,0.669-0.523,1.021l1.107,0.781c-0.074,0.186-0.141,0.38-0.202,0.576l-1.345-0.098
				c-0.096,0.373-0.174,0.748-0.223,1.133l1.273,0.451c-0.018,0.201-0.028,0.399-0.037,0.6l-1.319,0.273
				c0.004,0.392,0.032,0.773,0.085,1.155l1.353,0.089c0.033,0.194,0.072,0.39,0.124,0.58l-1.2,0.619
				c0.109,0.374,0.241,0.737,0.396,1.09l1.321-0.277c0.086,0.179,0.18,0.348,0.277,0.518l-0.989,0.917
				c0.206,0.331,0.434,0.646,0.68,0.948l1.198-0.626c0.128,0.149,0.26,0.287,0.396,0.419l-0.703,1.154
				c0.287,0.265,0.594,0.51,0.909,0.732l0.987-0.925c0.159,0.103,0.324,0.202,0.49,0.295l-0.368,1.299
				c0.345,0.177,0.704,0.334,1.076,0.468l0.698-1.158c0.18,0.055,0.363,0.105,0.547,0.15l-0.004,1.352
				c0.383,0.074,0.769,0.128,1.165,0.154l0.359-1.301c0.095,0.004,0.192,0.008,0.287,0.008c0.091,0,0.188-0.004,0.278-0.008
				l0.364,1.301c0.392-0.026,0.782-0.08,1.161-0.154v-1.352c0.184-0.045,0.367-0.097,0.547-0.15l0.698,1.158
				c0.372-0.133,0.731-0.291,1.075-0.468l-0.367-1.299c0.166-0.093,0.33-0.192,0.49-0.295l0.984,0.925
				c0.318-0.223,0.624-0.469,0.911-0.732l-0.702-1.154c0.137-0.132,0.269-0.271,0.393-0.419l1.202,0.626
				c0.245-0.303,0.473-0.618,0.679-0.948l-0.988-0.917c0.097-0.169,0.188-0.339,0.271-0.518l1.326,0.277
				c0.155-0.353,0.287-0.717,0.393-1.09l-1.195-0.619c0.047-0.19,0.091-0.385,0.124-0.58L-536.819,186.761z M-545.812,188.225
				c-1.515,0-2.737-1.226-2.737-2.732c0-1.514,1.223-2.735,2.737-2.735c1.51,0,2.732,1.222,2.732,2.735
				C-543.08,186.999-544.302,188.225-545.812,188.225z"/>
		</g>
		<g>
			<path fill="#4777BB" d="M-850.004,173.97c-4.238,0-7.675,3.431-7.675,7.671c0,4.238,3.437,7.674,7.675,7.674
				c4.236,0,7.672-3.436,7.672-7.674C-842.333,177.401-845.768,173.97-850.004,173.97z M-850.004,188.268
				c-3.656,0-6.627-2.975-6.627-6.627c0-3.651,2.971-6.627,6.627-6.627c3.652,0,6.625,2.976,6.625,6.627
				C-843.379,185.293-846.352,188.268-850.004,188.268z"/>
			<path fill="#4777BB" d="M-824.764,185.204c0.146-1.06,0.228-2.142,0.241-3.241l-3.704-0.76c-0.011-0.57-0.047-1.132-0.101-1.686
				l3.581-1.264c-0.148-1.081-0.359-2.14-0.635-3.175l-3.774,0.269c-0.165-0.552-0.353-1.095-0.562-1.627l3.104-2.175
				c-0.43-0.991-0.92-1.95-1.467-2.872l-3.563,1.279c-0.313-0.493-0.646-0.969-0.995-1.429l2.399-2.938
				c-0.677-0.83-1.406-1.62-2.181-2.361l-3.086,2.192c-0.438-0.392-0.892-0.765-1.358-1.119l1.52-3.473
				c-0.873-0.616-1.785-1.175-2.732-1.677l-2.379,2.941c-0.532-0.259-1.072-0.498-1.627-0.714l0.524-3.754
				c-0.999-0.351-2.025-0.641-3.079-0.866l-1.5,3.476c-0.578-0.104-1.168-0.183-1.763-0.241l-0.505-3.752
				c-0.533-0.033-1.064-0.052-1.6-0.052c-0.539,0-1.071,0.019-1.6,0.052l-0.508,3.752c-0.596,0.058-1.184,0.136-1.764,0.241
				l-1.5-3.476c-1.053,0.225-2.08,0.515-3.081,0.868l0.525,3.752c-0.552,0.216-1.095,0.455-1.624,0.714l-2.382-2.941
				c-0.948,0.502-1.858,1.062-2.731,1.677l1.521,3.473c-0.469,0.354-0.923,0.729-1.359,1.119l-3.086-2.192
				c-0.777,0.741-1.505,1.531-2.182,2.363l2.4,2.935c-0.352,0.46-0.684,0.937-0.998,1.429l-3.559-1.279
				c-0.548,0.922-1.041,1.881-1.469,2.872l3.105,2.175c-0.21,0.533-0.398,1.076-0.564,1.627l-3.773-0.269
				c-0.275,1.035-0.488,2.094-0.633,3.175l3.577,1.264c-0.053,0.554-0.086,1.116-0.099,1.686l-3.705,0.76
				c0.012,1.099,0.094,2.181,0.242,3.241l3.785,0.25c0.096,0.549,0.212,1.095,0.35,1.632l-3.365,1.733
				c0.307,1.051,0.68,2.07,1.113,3.063l3.714-0.783c0.237,0.498,0.495,0.981,0.769,1.452l-2.771,2.576
				c0.578,0.931,1.213,1.817,1.904,2.663l3.364-1.756c0.355,0.408,0.728,0.802,1.113,1.18l-1.977,3.229
				c0.807,0.74,1.659,1.43,2.554,2.062l2.766-2.594c0.446,0.291,0.906,0.569,1.375,0.827l-1.033,3.648
				c0.973,0.496,1.982,0.93,3.02,1.299l1.964-3.242c0.505,0.16,1.019,0.302,1.538,0.425l-0.012,3.788
				c1.066,0.217,2.156,0.363,3.265,0.439l1.015-3.65c0.264,0.008,0.528,0.016,0.795,0.016c0.264,0,0.528-0.008,0.793-0.016
				l1.014,3.65c1.107-0.076,2.197-0.223,3.262-0.439l-0.008-3.788c0.52-0.124,1.031-0.265,1.536-0.425l1.962,3.242
				c1.039-0.369,2.049-0.803,3.021-1.299l-1.03-3.648c0.467-0.258,0.925-0.536,1.372-0.827l2.766,2.594
				c0.896-0.632,1.751-1.321,2.554-2.062l-1.975-3.229c0.384-0.378,0.757-0.771,1.113-1.18l3.364,1.756
				c0.689-0.846,1.327-1.732,1.903-2.663l-2.77-2.576c0.273-0.471,0.528-0.954,0.767-1.452l3.713,0.783
				c0.436-0.992,0.807-2.012,1.113-3.063l-3.363-1.733c0.137-0.537,0.254-1.083,0.35-1.632L-824.764,185.204z M-850.004,189.314
				c-4.238,0-7.675-3.436-7.675-7.674c0-4.24,3.437-7.671,7.675-7.671c4.236,0,7.672,3.431,7.672,7.671
				C-842.333,185.879-845.768,189.314-850.004,189.314z"/>
		</g>
		<g>
			<path fill="#4777BB" d="M-631.077,166.069v-10.774l-11.354-3.164c-0.516-2.987-1.293-5.884-2.326-8.659l8.219-8.429l-5.412-9.316
				l-11.414,2.978c-1.756-2.092-3.685-4.032-5.769-5.809l3.047-11.396l-9.272-5.474l-8.486,8.163
				c-2.873-1.081-5.875-1.897-8.975-2.435l-3.162-11.359h-10.768l-3.16,11.359c-2.865,0.499-5.653,1.229-8.328,2.196l-8.369-8.275
				l-9.352,5.342l2.892,11.422c-2.106,1.75-4.057,3.675-5.851,5.739l-11.37-3.13l-5.541,9.237l8.104,8.551
				c-1.146,2.971-2.01,6.081-2.57,9.296l-11.357,3.172v10.766l11.357,3.161c0.521,2.984,1.295,5.892,2.323,8.674l-8.216,8.423
				l5.41,9.313l11.409-2.973c1.765,2.09,3.697,4.03,5.777,5.805l-3.046,11.395l9.27,5.474l8.486-8.167
				c2.877,1.084,5.875,1.905,8.971,2.439l3.164,11.352h10.77l3.164-11.352c2.861-0.498,5.645-1.229,8.324-2.204l8.371,8.289
				l9.351-5.345l-2.888-11.434c2.105-1.74,4.049-3.666,5.842-5.734l11.381,3.133l5.531-9.233l-8.107-8.553
				c1.152-2.977,2.014-6.076,2.576-9.302L-631.077,166.069z M-691.364,199.59c-21.485,0-38.902-17.42-38.902-38.911
				c0-21.486,17.417-38.909,38.902-38.909c21.482,0,38.907,17.422,38.907,38.909C-652.457,182.17-669.881,199.59-691.364,199.59z"/>
			<path fill="#4777BB" d="M-691.364,121.77c-21.485,0-38.902,17.422-38.902,38.909c0,21.491,17.417,38.911,38.902,38.911
				c21.482,0,38.907-17.42,38.907-38.911C-652.457,139.192-669.881,121.77-691.364,121.77z M-691.364,197.657
				c-20.385,0-36.975-16.582-36.975-36.978c0-20.384,16.59-36.976,36.975-36.976c20.396,0,36.979,16.592,36.979,36.976
				C-654.385,181.075-670.967,197.657-691.364,197.657z"/>
			<path fill="#4777BB" d="M-691.364,126.901c-18.625,0-33.777,15.155-33.777,33.778c0,18.632,15.152,33.783,33.777,33.783
				c18.626,0,33.783-15.15,33.783-33.783C-657.581,142.056-672.738,126.901-691.364,126.901z M-691.364,193.954
				c-18.371,0-33.27-14.898-33.27-33.275c0-18.372,14.898-33.272,33.27-33.272c18.379,0,33.277,14.901,33.277,33.272
				C-658.086,179.055-672.985,193.954-691.364,193.954z"/>
			<path fill="#4777BB" d="M-691.364,127.406c-18.371,0-33.27,14.901-33.27,33.273c0,18.376,14.898,33.275,33.27,33.275
				c18.379,0,33.277-14.898,33.277-33.275C-658.086,142.307-672.985,127.406-691.364,127.406z"/>
		</g>
		<g>
			<path fill="#4777BB" d="M-522.761,76.125v-7.028l-7.409-2.064c-0.334-1.947-0.84-3.837-1.514-5.648l5.359-5.498l-3.529-6.077
				l-7.446,1.944c-1.142-1.365-2.402-2.63-3.761-3.789l1.986-7.434l-6.052-3.569l-5.531,5.323c-1.874-0.704-3.831-1.237-5.852-1.588
				l-2.065-7.41h-7.021l-2.063,7.41c-1.867,0.325-3.685,0.8-5.434,1.432l-5.459-5.396l-6.098,3.482l1.888,7.452
				c-1.374,1.14-2.646,2.397-3.817,3.743l-7.417-2.042l-3.614,6.024l5.289,5.577c-0.75,1.938-1.315,3.968-1.679,6.063l-7.405,2.068
				v7.024l7.405,2.06c0.339,1.949,0.845,3.845,1.519,5.657l-5.36,5.497l3.53,6.072l7.439-1.938c1.15,1.365,2.41,2.629,3.77,3.786
				l-1.989,7.434l6.048,3.57l5.531-5.326c1.877,0.707,3.832,1.239,5.854,1.591l2.063,7.403h7.024l2.062-7.403
				c1.869-0.328,3.687-0.805,5.433-1.439l5.459,5.407l6.1-3.489l-1.883-7.453c1.374-1.137,2.639-2.394,3.805-3.742l7.426,2.043
				l3.61-6.024l-5.29-5.577c0.754-1.939,1.313-3.966,1.68-6.069L-522.761,76.125z M-562.082,97.987
				c-14.017,0-25.379-11.364-25.379-25.378c0-14.015,11.362-25.377,25.379-25.377c14.01,0,25.372,11.362,25.372,25.377
				C-536.709,86.623-548.072,97.987-562.082,97.987z"/>
			<path fill="#4777BB" d="M-562.082,47.231c-14.017,0-25.379,11.362-25.379,25.377c0,14.014,11.362,25.378,25.379,25.378
				c14.01,0,25.372-11.364,25.372-25.378C-536.709,58.594-548.072,47.231-562.082,47.231z M-562.082,96.725
				c-13.3,0-24.121-10.814-24.121-24.116c0-13.296,10.821-24.118,24.121-24.118c13.298,0,24.116,10.821,24.116,24.118
				C-537.965,85.911-548.784,96.725-562.082,96.725z"/>
			<path fill="#4777BB" d="M-562.082,50.577c-12.153,0-22.034,9.885-22.034,22.032c0,12.15,9.881,22.032,22.034,22.032
				c12.145,0,22.03-9.882,22.03-22.032C-540.051,60.462-549.937,50.577-562.082,50.577z M-562.082,94.31
				c-11.988,0-21.704-9.718-21.704-21.701c0-11.984,9.716-21.704,21.704-21.704c11.981,0,21.7,9.72,21.7,21.704
				C-540.381,84.592-550.1,94.31-562.082,94.31z"/>
			<path fill="#4777BB" d="M-562.082,50.905c-11.988,0-21.704,9.72-21.704,21.704c0,11.983,9.716,21.701,21.704,21.701
				c11.981,0,21.7-9.718,21.7-21.701C-540.381,60.625-550.1,50.905-562.082,50.905z"/>
		</g>
		<path fill="#4777BB" d="M-749.952,197.148v-6.408l-6.759-1.887c-0.307-1.775-0.771-3.5-1.384-5.152l4.893-5.017l-3.221-5.544
			l-6.797,1.77c-1.043-1.246-2.191-2.398-3.43-3.458l1.813-6.781l-5.521-3.26l-5.049,4.858c-1.711-0.645-3.498-1.128-5.343-1.448
			l-1.883-6.762h-6.408l-1.88,6.762c-1.705,0.297-3.364,0.73-4.959,1.308l-4.98-4.926l-5.565,3.179l1.721,6.8
			c-1.253,1.039-2.413,2.185-3.482,3.416l-6.767-1.863l-3.299,5.496l4.825,5.091c-0.684,1.766-1.198,3.619-1.53,5.531l-6.76,1.89
			v6.405l6.76,1.881c0.309,1.777,0.77,3.509,1.384,5.166l-4.893,5.013l3.223,5.54l6.789-1.766c1.05,1.246,2.2,2.397,3.438,3.453
			l-1.813,6.785l5.519,3.258l5.049-4.862c1.712,0.646,3.496,1.134,5.341,1.454l1.883,6.756h6.41l1.883-6.756
			c1.704-0.301,3.361-0.735,4.955-1.315l4.983,4.935l5.565-3.182l-1.722-6.804c1.255-1.037,2.41-2.183,3.478-3.417l6.774,1.865
			l3.294-5.496l-4.826-5.088c0.687-1.77,1.195-3.618,1.532-5.539L-749.952,197.148z M-785.833,217.102
			c-12.79,0-23.156-10.371-23.156-23.158c0-12.789,10.366-23.158,23.156-23.158c12.786,0,23.155,10.369,23.155,23.158
			C-762.678,206.73-773.047,217.102-785.833,217.102z"/>
		<path fill="#4777BB" d="M-785.833,170.785c-12.79,0-23.156,10.369-23.156,23.158c0,12.787,10.366,23.158,23.156,23.158
			c12.786,0,23.155-10.371,23.155-23.158C-762.678,181.154-773.047,170.785-785.833,170.785z M-785.833,215.951
			c-12.136,0-22.008-9.867-22.008-22.008c0-12.135,9.872-22.009,22.008-22.009c12.138,0,22.009,9.875,22.009,22.009
			C-763.825,206.084-773.696,215.951-785.833,215.951z"/>
		<path fill="#4777BB" d="M-785.833,173.838c-11.087,0-20.107,9.018-20.107,20.105c0,11.084,9.021,20.104,20.107,20.104
			c11.085,0,20.106-9.021,20.106-20.104C-765.727,182.855-774.749,173.838-785.833,173.838z M-785.833,213.747
			c-10.936,0-19.804-8.869-19.804-19.804c0-10.938,8.868-19.807,19.804-19.807c10.937,0,19.805,8.869,19.805,19.807
			C-766.029,204.878-774.897,213.747-785.833,213.747z"/>
		<path fill="#4777BB" d="M-785.833,174.137c-10.936,0-19.804,8.869-19.804,19.807c0,10.935,8.868,19.804,19.804,19.804
			c10.937,0,19.805-8.869,19.805-19.804C-766.029,183.006-774.897,174.137-785.833,174.137z"/>
	</g>
</g>
<g id="Capa_3">
</g>
</svg>
