<?xml version="1.0" encoding="utf-8"?>
<!-- Generator: Adobe Illustrator 15.0.2, SVG Export Plug-In . SVG Version: 6.00 Build 0)  -->
<!DOCTYPE svg PUBLIC "-//W3C//DTD SVG 1.1//EN" "http://www.w3.org/Graphics/SVG/1.1/DTD/svg11.dtd">
<svg version="1.1" id="Capa_1" xmlns="http://www.w3.org/2000/svg" xmlns:xlink="http://www.w3.org/1999/xlink" x="0px" y="0px"
	 width="238.461px" height="88.718px" viewBox="0 0 238.461 88.718" enable-background="new 0 0 238.461 88.718"
	 xml:space="preserve">
<g>
	<path fill="#FFFFFF" d="M41.833,28.329c-4.002-2.309-18.634-10.758-18.634-10.758S8.566,26.02,4.568,28.329
		C0.568,30.64,0,33.245,0,36.009c0,2.762,0,7.293,0,9.963c0,5.021,0.189,7.012,1.561,9.918c1.371,2.91,3.307,4.676,8.451,7.645
		c5.143,2.969,13.188,7.613,13.188,7.613s8.049-4.645,13.189-7.613c5.143-2.969,7.082-4.734,8.451-7.645
		c1.371-2.906,1.561-4.896,1.561-9.918c0-2.67,0-7.201,0-9.963C46.4,33.245,45.833,30.639,41.833,28.329z M41.429,41.581
		c0,1.99-1.164,4.747-3.518,6.102c-2.352,1.352-5.633,3.25-5.633,3.25l-9.08,5.279l-0.504-0.291c0,0-5.648-3.279-7.555-4.379
		c-1.907-1.101-2.299-2.635-2.299-4.217c0-1.584,0-2.365,0-2.365l5.283,3.104l5.025,2.918l9.129-5.256c0,0,0.766-0.44,2.369-1.365
		c1.604-0.928,2.953-1.473,2.953-3.42c0-1.193-1.41-1.404-2.26-0.98l-12.191,6.997c0,0-8.027-4.633-10.381-5.989
		c-2.355-1.359-3.348-0.369-3.348,2.385v5.32c0,3.631,0.93,4.158,3.723,5.771c2.793,1.611,10.055,5.714,10.055,5.714
		s13.666-7.912,15.188-8.787c1.52-0.875,3.039-2.558,3.039-2.558s0.068,6.006-2.256,7.379c-2.326,1.375-16.006,9.259-16.006,9.259
		s-7.525-4.354-12.115-7.004c-4.59-2.652-6.15-4.076-6.15-11.804c0-3.102,0-2.77,0-5.52c0-1.783,1.232-3.951,3.289-4.895
		c2.615-1.201,5.697,0.113,5.697,0.113l9.279,5.406l9.271-5.406c2.453-1.426,5.119-0.797,6.414-0.209
		c1.254,0.57,2.58,2.143,2.58,3.793v1.654H41.429z M29.949,29.469c0,2.115-3.021,3.83-6.748,3.83c-3.729,0-6.75-1.715-6.75-3.83
		c0-2.117,3.021-3.832,6.75-3.832C26.927,25.637,29.949,27.352,29.949,29.469z"/>
	<g>
		<path fill="#FFFFFF" d="M68.824,45.262c0,0-2.705,0-4.744,0c-0.195-1.766,0.686-3.502,2.396-3.502c1.713,0,6.537,0,6.537,0v11.16
			c-0.436,0.261-0.977,0.5-1.619,0.72c-0.645,0.219-1.342,0.409-2.094,0.571c-0.754,0.164-1.539,0.289-2.355,0.377
			c-0.82,0.086-1.621,0.131-2.406,0.131c-1.658,0-3.125-0.131-4.402-0.393c-1.275-0.262-2.346-0.785-3.205-1.57
			c-0.863-0.784-1.518-1.897-1.965-3.338c-0.447-1.44-0.67-3.326-0.67-5.66c0-2.314,0.248-4.18,0.752-5.598
			c0.502-1.418,1.211-2.508,2.127-3.271c0.916-0.763,2.023-1.277,3.322-1.539c1.297-0.262,2.752-0.391,4.367-0.391
			c1.527,0,2.934,0.117,4.223,0.357c0.637,0.121,1.602,0.459,2.146,0.791c1.428,0.873,1.455,1.957,1.455,3.766
			c-0.924-0.316-2.535-0.85-4.529-1.152c-0.734-0.111-2.574-0.264-3.229-0.264c-0.895,0-1.725,0.063-2.488,0.182
			c-0.764,0.121-1.424,0.422-1.979,0.9c-0.557,0.48-0.994,1.205-1.311,2.176c-0.317,0.971-0.475,2.307-0.475,4.008
			c0,1.594,0.109,2.879,0.328,3.86c0.219,0.984,0.574,1.74,1.064,2.275c0.49,0.535,1.139,0.895,1.947,1.08
			c0.807,0.184,1.811,0.277,3.01,0.277c0.676,0,1.369-0.059,2.08-0.18c0.707-0.119,1.279-0.256,1.715-0.41v-5.364H68.824z"/>
		<path fill="#FFFFFF" d="M79.306,45.294c0.066,1.285,0.223,2.322,0.475,3.109c0.25,0.785,0.627,1.389,1.129,1.814
			c0.502,0.425,1.135,0.715,1.896,0.867c0.766,0.151,1.703,0.229,2.814,0.229c0.656,0,1.326-0.059,2.014-0.18
			c0.688-0.119,1.342-0.262,1.963-0.424c0.621-0.164,1.189-0.334,1.701-0.508c0.514-0.175,1.732-0.615,2.072-0.814
			c0,0,0.264,0.602,0.172,2.313c-0.049,0.957-0.951,1.871-1.604,2.07c-0.656,0.193-1.359,0.369-2.113,0.521
			c-0.752,0.151-1.531,0.278-2.338,0.375c-0.809,0.102-1.594,0.147-2.357,0.147c-1.635,0-3.086-0.131-4.352-0.394
			c-1.266-0.262-2.334-0.778-3.205-1.555c-0.875-0.773-1.539-1.854-1.998-3.238c-0.459-1.387-0.688-3.213-0.688-5.481
			c0-2.355,0.246-4.264,0.736-5.727c0.492-1.461,1.178-2.596,2.063-3.404c0.883-0.805,1.93-1.35,3.141-1.635
			c1.211-0.283,2.547-0.424,4.008-0.424c1.572,0,2.963,0.15,4.174,0.457c1.209,0.305,2.229,0.855,3.059,1.652
			s1.553,1.873,1.813,3.277c0.258,1.418-0.098,3.715-0.666,4.67c-0.68,1.145-2.457,2.279-4.525,2.279
			C86.622,45.292,79.306,45.294,79.306,45.294z M87.915,41.76c1.863,0,2.24-1.34,2.076-2.539c-0.096-0.701-0.604-1.465-1.182-1.861
			c-0.477-0.328-1.084-0.605-1.715-0.736c-0.635-0.133-1.387-0.197-2.26-0.197c-0.764,0-1.465,0.039-2.109,0.115
			s-1.211,0.289-1.701,0.639c-0.492,0.348-0.885,0.883-1.18,1.602c-0.293,0.721-0.473,1.713-0.539,2.979
			C79.306,41.76,86.695,41.76,87.915,41.76z"/>
		<path fill="#FFFFFF" d="M143.431,45.294c0.064,1.285,0.226,2.322,0.476,3.109c0.25,0.785,0.627,1.389,1.129,1.814
			c0.502,0.425,1.136,0.715,1.897,0.867c0.763,0.151,1.701,0.229,2.814,0.229c0.654,0,1.324-0.059,2.012-0.18
			c0.688-0.119,1.342-0.262,1.963-0.424c0.623-0.164,1.189-0.334,1.703-0.508c0.512-0.175,1.73-0.615,2.07-0.814
			c0,0,0.264,0.602,0.174,2.313c-0.051,0.957-0.951,1.871-1.607,2.07c-0.653,0.193-1.356,0.369-2.11,0.521
			c-0.75,0.151-1.53,0.278-2.338,0.375c-0.81,0.102-1.595,0.147-2.354,0.147c-1.638,0-3.088-0.131-4.354-0.394
			c-1.267-0.262-2.336-0.778-3.207-1.555c-0.871-0.773-1.539-1.854-1.996-3.238c-0.459-1.387-0.687-3.213-0.687-5.481
			c0-2.355,0.244-4.264,0.736-5.727c0.49-1.461,1.176-2.596,2.061-3.404c0.886-0.805,1.931-1.35,3.144-1.635
			c1.209-0.283,2.545-0.424,4.009-0.424c1.569,0,2.961,0.15,4.172,0.457c1.211,0.305,2.229,0.855,3.061,1.652
			c0.828,0.797,1.551,1.873,1.809,3.277c0.26,1.418-0.096,3.715-0.664,4.67c-0.68,1.145-2.457,2.279-4.524,2.279
			C150.748,45.292,143.431,45.294,143.431,45.294z M152.04,41.76c1.863,0,2.24-1.34,2.076-2.539
			c-0.096-0.701-0.604-1.465-1.182-1.861c-0.478-0.328-1.082-0.605-1.715-0.736c-0.633-0.133-1.388-0.197-2.258-0.197
			c-0.765,0-1.47,0.039-2.111,0.115c-0.643,0.076-1.211,0.289-1.701,0.639c-0.49,0.348-0.883,0.883-1.178,1.602
			c-0.295,0.721-0.478,1.713-0.541,2.979C143.431,41.76,150.82,41.76,152.04,41.76z"/>
		<path fill="#FFFFFF" d="M96.2,54.391c0,0,0-19.027,0-21.008c2.111,0,4.32,1.035,4.32,2.984c0,1.951,0,18.023,0,18.023L96.2,54.391
			L96.2,54.391z"/>
		<path fill="#FFFFFF" d="M159.691,54.391V33.383h7.823c1.55,0,2.533,0.039,3.58,0.203c1.049,0.162,2.228,0.836,2.857,1.316
			c0.635,0.48,1.227,1.529,1.639,2.408c0.396,0.838,0.756,2.223,0.756,3.662c0,1.158-0.082,1.273-0.244,2.047
			c-0.163,0.775-0.739,1.359-1.12,1.873c-0.345,0.461-0.808,0.799-1.334,1.092c-0.058,0.031-0.115,0.064-0.175,0.096
			c1.261,0.744,1.617,1.121,2.111,2.017c0.383,0.688,0.381,1.825,0.381,3.065c0,0.535-0.014,1.236-0.031,1.857
			c-0.021,0.82,0.449,1.563,0.629,1.924c-2.725,0-4.896-0.34-4.896-2.051c0-0.42,0-0.889,0-1.365c0-1.488-0.092-2.643-0.311-3.092
			c-0.4-0.824-1.451-1.604-2.312-1.604c-0.859,0-5.035,0-5.035,0v7.559L159.691,54.391L159.691,54.391z M171.931,40.026
			c0-0.74-0.213-1.332-0.481-1.686c-0.244-0.322-0.576-0.738-0.987-1.012c-0.291-0.197-0.666-0.334-1.146-0.379
			c-0.479-0.043-1.06-0.066-1.734-0.066h-3.569v6.447h4.221c0.678,0,1.002-0.021,1.482-0.064c0.479-0.043,0.856-0.191,1.157-0.377
			c0.447-0.277,0.729-0.518,0.861-0.932c0.131-0.416,0.196-0.992,0.196-1.736V40.026L171.931,40.026z"/>
		<path fill="#FFFFFF" d="M110.931,50.858c0,0-0.93,0-1.735,0s-1.953,0.063-1.949-0.733c0.004-0.508,0.593-0.972,0.593-0.972
			l10.166-7.836c0,0,1.899-1.49,2.026-3.494c0.104-1.67-1.347-4.439-4.574-4.439c-1.09,0-6.692,0-9.692,0
			c-1.142,0-2.23,1.881-2.23,3.5c1.371,0,11.045,0,11.297,0c0.645,0,1.074,0.098,1.17,0.383c0.162,0.488-0.627,1.043-0.627,1.043
			l-8.896,6.83c0,0-0.989,0.766-1.977,1.801c-1.725,1.809-1.572,3.23-1.275,4.344c0.601,2.238,3.775,3.107,4.709,3.107
			c0.933,0,1.433,0,1.433,0s6.813,0,7.994,0c1.18,0,2.381-1.574,2.381-3.533C117.841,50.858,110.931,50.858,110.931,50.858z"/>
		<path fill="#FFFFFF" d="M128.644,50.858c0,0-0.93,0-1.735,0s-1.955,0.063-1.949-0.733c0.005-0.508,0.593-0.972,0.593-0.972
			l10.166-7.836c0,0,1.899-1.49,2.024-3.494c0.104-1.67-1.344-4.439-4.571-4.439c-1.091,0-6.693,0-9.693,0
			c-1.139,0-2.23,1.881-2.23,3.5c1.371,0,11.045,0,11.295,0c0.646,0,1.078,0.098,1.172,0.383c0.162,0.488-0.625,1.043-0.625,1.043
			l-8.897,6.83c0,0-0.99,0.766-1.978,1.801c-1.727,1.809-1.57,3.23-1.274,4.344c0.6,2.238,3.774,3.107,4.709,3.107
			c0.932,0,1.432,0,1.432,0s6.813,0,7.994,0s2.381-1.574,2.381-3.533C135.552,50.858,128.644,50.858,128.644,50.858z"/>
		<path fill="#FFFFFF" d="M88.654,22.846l-3.842,4.916c-0.918,1.182-0.068,2.848,1.211,3.842l3.842-4.916
			C90.783,25.506,89.931,23.84,88.654,22.846z"/>
	</g>
	<g>
		<g>
			<path fill="#FFFFFF" d="M181.24,29.095h-1.513v4.161h-0.959v-4.161h-1.512v-0.78h3.982L181.24,29.095L181.24,29.095z
				 M184.993,31.818l1.344-3.503h1.379v4.941h-0.899v-3.861h-0.023l-1.475,3.861h-0.673l-1.477-3.861h-0.023v3.861h-0.897v-4.941
				h1.392L184.993,31.818z"/>
		</g>
	</g>
</g>
</svg>
